G04 EAGLE Gerber RS-274X export*
G75*
%MOMM*%
%FSLAX34Y34*%
%LPD*%
%INBottom Copper*%
%IPPOS*%
%AMOC8*
5,1,8,0,0,1.08239X$1,22.5*%
G01*
%ADD10C,1.600200*%
%ADD11P,1.732040X8X112.500000*%
%ADD12P,2.364373X8X202.500000*%
%ADD13R,2.100000X2.100000*%
%ADD14C,2.100000*%
%ADD15R,1.530000X1.530000*%
%ADD16C,1.530000*%
%ADD17R,0.650000X1.350000*%
%ADD18R,0.500000X0.500000*%
%ADD19R,1.000000X1.000000*%
%ADD20C,1.524000*%
%ADD21C,0.606400*%
%ADD22C,1.016000*%
%ADD23C,0.152400*%
%ADD24C,1.270000*%
%ADD25C,0.650000*%
%ADD26C,5.080000*%
%ADD27C,2.540000*%
%ADD28C,1.500000*%
%ADD29C,0.756400*%
%ADD30C,0.609600*%

G36*
X1612990Y-38847D02*
X1612990Y-38847D01*
X1613081Y-38839D01*
X1613111Y-38827D01*
X1613143Y-38822D01*
X1613223Y-38779D01*
X1613307Y-38743D01*
X1613339Y-38717D01*
X1613360Y-38706D01*
X1613382Y-38683D01*
X1613438Y-38638D01*
X1626138Y-25938D01*
X1626191Y-25864D01*
X1626251Y-25795D01*
X1626263Y-25765D01*
X1626282Y-25739D01*
X1626309Y-25652D01*
X1626343Y-25567D01*
X1626347Y-25526D01*
X1626354Y-25503D01*
X1626353Y-25471D01*
X1626361Y-25400D01*
X1626361Y698500D01*
X1626347Y698590D01*
X1626339Y698681D01*
X1626327Y698711D01*
X1626322Y698743D01*
X1626279Y698823D01*
X1626243Y698907D01*
X1626217Y698939D01*
X1626206Y698960D01*
X1626183Y698982D01*
X1626138Y699038D01*
X1600738Y724438D01*
X1600664Y724491D01*
X1600595Y724551D01*
X1600565Y724563D01*
X1600539Y724582D01*
X1600452Y724609D01*
X1600367Y724643D01*
X1600326Y724647D01*
X1600303Y724654D01*
X1600271Y724653D01*
X1600200Y724661D01*
X-12700Y724661D01*
X-12790Y724647D01*
X-12881Y724639D01*
X-12911Y724627D01*
X-12943Y724622D01*
X-13023Y724579D01*
X-13107Y724543D01*
X-13139Y724517D01*
X-13160Y724506D01*
X-13182Y724483D01*
X-13238Y724438D01*
X-25938Y711738D01*
X-25991Y711664D01*
X-26051Y711595D01*
X-26063Y711565D01*
X-26082Y711539D01*
X-26109Y711452D01*
X-26143Y711367D01*
X-26147Y711326D01*
X-26154Y711303D01*
X-26153Y711271D01*
X-26161Y711200D01*
X-26161Y-25400D01*
X-26147Y-25490D01*
X-26139Y-25581D01*
X-26127Y-25611D01*
X-26122Y-25643D01*
X-26079Y-25723D01*
X-26043Y-25807D01*
X-26017Y-25839D01*
X-26006Y-25860D01*
X-25983Y-25882D01*
X-25938Y-25938D01*
X-13238Y-38638D01*
X-13164Y-38691D01*
X-13095Y-38751D01*
X-13065Y-38763D01*
X-13039Y-38782D01*
X-12952Y-38809D01*
X-12867Y-38843D01*
X-12826Y-38847D01*
X-12803Y-38854D01*
X-12771Y-38853D01*
X-12700Y-38861D01*
X1612900Y-38861D01*
X1612990Y-38847D01*
G37*
%LPC*%
G36*
X48627Y-23623D02*
X48627Y-23623D01*
X44613Y-21960D01*
X41433Y-18780D01*
X-6080Y28733D01*
X-9260Y31913D01*
X-10923Y35927D01*
X-10923Y649873D01*
X-9260Y653887D01*
X-6080Y657067D01*
X41433Y704580D01*
X44613Y707760D01*
X48627Y709423D01*
X78373Y709423D01*
X82387Y707760D01*
X105901Y684246D01*
X105975Y684193D01*
X106045Y684133D01*
X106075Y684121D01*
X106101Y684102D01*
X106188Y684075D01*
X106273Y684041D01*
X106314Y684037D01*
X106336Y684030D01*
X106368Y684031D01*
X106440Y684023D01*
X122160Y684023D01*
X122250Y684037D01*
X122341Y684045D01*
X122371Y684057D01*
X122403Y684062D01*
X122484Y684105D01*
X122568Y684141D01*
X122600Y684167D01*
X122620Y684178D01*
X122643Y684201D01*
X122699Y684246D01*
X143033Y704580D01*
X146213Y707760D01*
X150227Y709423D01*
X1449973Y709423D01*
X1453987Y707760D01*
X1457167Y704580D01*
X1477501Y684246D01*
X1477575Y684193D01*
X1477645Y684133D01*
X1477675Y684121D01*
X1477701Y684102D01*
X1477788Y684075D01*
X1477873Y684041D01*
X1477914Y684037D01*
X1477936Y684030D01*
X1477968Y684031D01*
X1478040Y684023D01*
X1493760Y684023D01*
X1493850Y684037D01*
X1493941Y684045D01*
X1493971Y684057D01*
X1494003Y684062D01*
X1494084Y684105D01*
X1494168Y684141D01*
X1494200Y684167D01*
X1494220Y684178D01*
X1494243Y684201D01*
X1494299Y684246D01*
X1517813Y707760D01*
X1521827Y709423D01*
X1551573Y709423D01*
X1555587Y707760D01*
X1558767Y704580D01*
X1609460Y653887D01*
X1611123Y649873D01*
X1611123Y480427D01*
X1609460Y476413D01*
X1598646Y465599D01*
X1598600Y465535D01*
X1598580Y465514D01*
X1598576Y465506D01*
X1598533Y465455D01*
X1598521Y465425D01*
X1598502Y465399D01*
X1598475Y465312D01*
X1598441Y465227D01*
X1598437Y465186D01*
X1598430Y465164D01*
X1598431Y465132D01*
X1598423Y465060D01*
X1598423Y398540D01*
X1598437Y398450D01*
X1598445Y398359D01*
X1598457Y398329D01*
X1598462Y398297D01*
X1598505Y398216D01*
X1598541Y398132D01*
X1598567Y398100D01*
X1598578Y398080D01*
X1598601Y398057D01*
X1598646Y398001D01*
X1609460Y387187D01*
X1611123Y383173D01*
X1611123Y302627D01*
X1609460Y298613D01*
X1606280Y295433D01*
X1598646Y287799D01*
X1598593Y287725D01*
X1598533Y287655D01*
X1598521Y287625D01*
X1598502Y287599D01*
X1598475Y287512D01*
X1598441Y287427D01*
X1598437Y287386D01*
X1598430Y287364D01*
X1598431Y287332D01*
X1598423Y287260D01*
X1598423Y220740D01*
X1598437Y220650D01*
X1598445Y220559D01*
X1598457Y220529D01*
X1598462Y220497D01*
X1598505Y220416D01*
X1598541Y220332D01*
X1598567Y220300D01*
X1598578Y220280D01*
X1598601Y220257D01*
X1598609Y220247D01*
X1598617Y220234D01*
X1598625Y220227D01*
X1598646Y220201D01*
X1609460Y209387D01*
X1611123Y205373D01*
X1611123Y35927D01*
X1609460Y31913D01*
X1606280Y28733D01*
X1555587Y-21960D01*
X1551573Y-23623D01*
X556627Y-23623D01*
X552613Y-21960D01*
X529099Y1554D01*
X529025Y1607D01*
X528955Y1667D01*
X528925Y1679D01*
X528899Y1698D01*
X528812Y1725D01*
X528727Y1759D01*
X528686Y1763D01*
X528664Y1770D01*
X528632Y1769D01*
X528560Y1777D01*
X512840Y1777D01*
X512750Y1763D01*
X512659Y1755D01*
X512629Y1743D01*
X512597Y1738D01*
X512516Y1695D01*
X512432Y1659D01*
X512400Y1633D01*
X512380Y1622D01*
X512357Y1599D01*
X512301Y1554D01*
X488787Y-21960D01*
X484773Y-23623D01*
X455027Y-23623D01*
X451013Y-21960D01*
X447833Y-18780D01*
X427499Y1554D01*
X427425Y1607D01*
X427355Y1667D01*
X427325Y1679D01*
X427299Y1698D01*
X427212Y1725D01*
X427127Y1759D01*
X427086Y1763D01*
X427064Y1770D01*
X427032Y1769D01*
X426960Y1777D01*
X411240Y1777D01*
X411150Y1763D01*
X411059Y1755D01*
X411029Y1743D01*
X410997Y1738D01*
X410916Y1695D01*
X410832Y1659D01*
X410800Y1633D01*
X410780Y1622D01*
X410757Y1599D01*
X410701Y1554D01*
X387187Y-21960D01*
X383173Y-23623D01*
X353427Y-23623D01*
X349413Y-21960D01*
X346233Y-18780D01*
X325899Y1554D01*
X325825Y1607D01*
X325755Y1667D01*
X325725Y1679D01*
X325699Y1698D01*
X325612Y1725D01*
X325527Y1759D01*
X325486Y1763D01*
X325464Y1770D01*
X325432Y1769D01*
X325360Y1777D01*
X309640Y1777D01*
X309550Y1763D01*
X309459Y1755D01*
X309429Y1743D01*
X309397Y1738D01*
X309316Y1695D01*
X309232Y1659D01*
X309200Y1633D01*
X309180Y1622D01*
X309157Y1599D01*
X309101Y1554D01*
X285587Y-21960D01*
X281573Y-23623D01*
X251827Y-23623D01*
X247813Y-21960D01*
X224299Y1554D01*
X224225Y1607D01*
X224155Y1667D01*
X224125Y1679D01*
X224099Y1698D01*
X224012Y1725D01*
X223927Y1759D01*
X223886Y1763D01*
X223864Y1770D01*
X223832Y1769D01*
X223760Y1777D01*
X208040Y1777D01*
X207950Y1763D01*
X207859Y1755D01*
X207829Y1743D01*
X207797Y1738D01*
X207716Y1695D01*
X207632Y1659D01*
X207600Y1633D01*
X207580Y1622D01*
X207557Y1599D01*
X207501Y1554D01*
X183987Y-21960D01*
X179973Y-23623D01*
X150227Y-23623D01*
X146213Y-21960D01*
X122699Y1554D01*
X122625Y1607D01*
X122555Y1667D01*
X122525Y1679D01*
X122499Y1698D01*
X122412Y1725D01*
X122327Y1759D01*
X122286Y1763D01*
X122264Y1770D01*
X122232Y1769D01*
X122160Y1777D01*
X106440Y1777D01*
X106350Y1763D01*
X106259Y1755D01*
X106229Y1743D01*
X106197Y1738D01*
X106116Y1695D01*
X106032Y1659D01*
X106000Y1633D01*
X105980Y1622D01*
X105957Y1599D01*
X105901Y1554D01*
X85567Y-18780D01*
X82387Y-21960D01*
X78373Y-23623D01*
X48627Y-23623D01*
G37*
%LPD*%
G36*
X71450Y-1763D02*
X71450Y-1763D01*
X71541Y-1755D01*
X71571Y-1743D01*
X71603Y-1738D01*
X71684Y-1695D01*
X71768Y-1659D01*
X71800Y-1633D01*
X71820Y-1622D01*
X71843Y-1599D01*
X71899Y-1554D01*
X92233Y18780D01*
X95413Y21960D01*
X99427Y23623D01*
X129173Y23623D01*
X133187Y21960D01*
X136367Y18780D01*
X156701Y-1554D01*
X156775Y-1607D01*
X156845Y-1667D01*
X156875Y-1679D01*
X156901Y-1698D01*
X156988Y-1725D01*
X157073Y-1759D01*
X157114Y-1763D01*
X157136Y-1770D01*
X157168Y-1769D01*
X157240Y-1777D01*
X172960Y-1777D01*
X173050Y-1763D01*
X173141Y-1755D01*
X173171Y-1743D01*
X173203Y-1738D01*
X173284Y-1695D01*
X173368Y-1659D01*
X173400Y-1633D01*
X173420Y-1622D01*
X173443Y-1599D01*
X173499Y-1554D01*
X193833Y18780D01*
X197013Y21960D01*
X201027Y23623D01*
X230773Y23623D01*
X234787Y21960D01*
X237967Y18780D01*
X258301Y-1554D01*
X258375Y-1607D01*
X258445Y-1667D01*
X258475Y-1679D01*
X258501Y-1698D01*
X258588Y-1725D01*
X258673Y-1759D01*
X258714Y-1763D01*
X258736Y-1770D01*
X258768Y-1769D01*
X258840Y-1777D01*
X274560Y-1777D01*
X274650Y-1763D01*
X274741Y-1755D01*
X274771Y-1743D01*
X274803Y-1738D01*
X274884Y-1695D01*
X274968Y-1659D01*
X275000Y-1633D01*
X275020Y-1622D01*
X275043Y-1599D01*
X275099Y-1554D01*
X295433Y18780D01*
X298613Y21960D01*
X302627Y23623D01*
X332373Y23623D01*
X336387Y21960D01*
X339567Y18780D01*
X359901Y-1554D01*
X359975Y-1607D01*
X360045Y-1667D01*
X360075Y-1679D01*
X360101Y-1698D01*
X360188Y-1725D01*
X360273Y-1759D01*
X360314Y-1763D01*
X360336Y-1770D01*
X360368Y-1769D01*
X360440Y-1777D01*
X376160Y-1777D01*
X376250Y-1763D01*
X376341Y-1755D01*
X376371Y-1743D01*
X376403Y-1738D01*
X376484Y-1695D01*
X376568Y-1659D01*
X376600Y-1633D01*
X376620Y-1622D01*
X376643Y-1599D01*
X376699Y-1554D01*
X397033Y18780D01*
X400213Y21960D01*
X404227Y23623D01*
X433973Y23623D01*
X437987Y21960D01*
X441167Y18780D01*
X461501Y-1554D01*
X461575Y-1607D01*
X461645Y-1667D01*
X461675Y-1679D01*
X461701Y-1698D01*
X461788Y-1725D01*
X461873Y-1759D01*
X461914Y-1763D01*
X461936Y-1770D01*
X461968Y-1769D01*
X462040Y-1777D01*
X477760Y-1777D01*
X477850Y-1763D01*
X477941Y-1755D01*
X477971Y-1743D01*
X478003Y-1738D01*
X478084Y-1695D01*
X478168Y-1659D01*
X478200Y-1633D01*
X478220Y-1622D01*
X478243Y-1599D01*
X478299Y-1554D01*
X498633Y18780D01*
X501813Y21960D01*
X505827Y23623D01*
X535573Y23623D01*
X539587Y21960D01*
X542767Y18780D01*
X563101Y-1554D01*
X563175Y-1607D01*
X563245Y-1667D01*
X563275Y-1679D01*
X563301Y-1698D01*
X563388Y-1725D01*
X563473Y-1759D01*
X563514Y-1763D01*
X563536Y-1770D01*
X563568Y-1769D01*
X563640Y-1777D01*
X841414Y-1777D01*
X841510Y-1762D01*
X841607Y-1752D01*
X841631Y-1742D01*
X841657Y-1738D01*
X841743Y-1692D01*
X841832Y-1652D01*
X841851Y-1635D01*
X841874Y-1622D01*
X841941Y-1552D01*
X842013Y-1486D01*
X842025Y-1463D01*
X842043Y-1444D01*
X842084Y-1356D01*
X842131Y-1270D01*
X842136Y-1245D01*
X842147Y-1221D01*
X842158Y-1124D01*
X842175Y-1028D01*
X842171Y-1002D01*
X842174Y-977D01*
X842153Y-881D01*
X842139Y-785D01*
X842127Y-762D01*
X842122Y-736D01*
X842072Y-653D01*
X842028Y-566D01*
X842009Y-547D01*
X841996Y-525D01*
X841922Y-462D01*
X841852Y-394D01*
X841824Y-378D01*
X841809Y-365D01*
X841778Y-353D01*
X841705Y-313D01*
X840295Y271D01*
X836171Y4395D01*
X833939Y9784D01*
X833939Y15616D01*
X836171Y21005D01*
X840295Y25129D01*
X845684Y27361D01*
X851516Y27361D01*
X856905Y25129D01*
X861029Y21005D01*
X862897Y16495D01*
X862935Y16434D01*
X862964Y16369D01*
X862999Y16330D01*
X863026Y16286D01*
X863082Y16240D01*
X863130Y16188D01*
X863176Y16162D01*
X863216Y16129D01*
X863283Y16104D01*
X863346Y16069D01*
X863397Y16060D01*
X863445Y16041D01*
X863517Y16038D01*
X863588Y16025D01*
X863639Y16033D01*
X863691Y16031D01*
X863760Y16051D01*
X863831Y16061D01*
X863877Y16085D01*
X863927Y16099D01*
X863986Y16140D01*
X864050Y16173D01*
X864087Y16210D01*
X864129Y16239D01*
X864172Y16297D01*
X864222Y16348D01*
X864257Y16411D01*
X864276Y16437D01*
X864283Y16459D01*
X864303Y16495D01*
X866171Y21005D01*
X870295Y25129D01*
X875684Y27361D01*
X881516Y27361D01*
X886905Y25129D01*
X891029Y21005D01*
X893261Y15616D01*
X893261Y9784D01*
X891029Y4395D01*
X886905Y271D01*
X885495Y-313D01*
X885412Y-364D01*
X885326Y-410D01*
X885308Y-428D01*
X885286Y-442D01*
X885224Y-518D01*
X885157Y-588D01*
X885146Y-612D01*
X885129Y-632D01*
X885094Y-723D01*
X885053Y-811D01*
X885050Y-837D01*
X885041Y-861D01*
X885037Y-959D01*
X885026Y-1055D01*
X885031Y-1081D01*
X885030Y-1107D01*
X885058Y-1201D01*
X885078Y-1296D01*
X885092Y-1318D01*
X885099Y-1343D01*
X885154Y-1423D01*
X885204Y-1507D01*
X885224Y-1524D01*
X885239Y-1545D01*
X885317Y-1604D01*
X885391Y-1667D01*
X885416Y-1677D01*
X885437Y-1692D01*
X885529Y-1722D01*
X885619Y-1759D01*
X885652Y-1762D01*
X885670Y-1768D01*
X885703Y-1768D01*
X885786Y-1777D01*
X1544560Y-1777D01*
X1544650Y-1763D01*
X1544741Y-1755D01*
X1544771Y-1743D01*
X1544803Y-1738D01*
X1544884Y-1695D01*
X1544968Y-1659D01*
X1545000Y-1633D01*
X1545020Y-1622D01*
X1545043Y-1599D01*
X1545099Y-1554D01*
X1589054Y42401D01*
X1589107Y42475D01*
X1589167Y42545D01*
X1589179Y42575D01*
X1589198Y42601D01*
X1589225Y42688D01*
X1589259Y42773D01*
X1589263Y42814D01*
X1589270Y42836D01*
X1589269Y42868D01*
X1589277Y42940D01*
X1589277Y198360D01*
X1589263Y198450D01*
X1589255Y198541D01*
X1589243Y198571D01*
X1589238Y198603D01*
X1589195Y198684D01*
X1589159Y198768D01*
X1589133Y198800D01*
X1589122Y198820D01*
X1589099Y198843D01*
X1589054Y198899D01*
X1578240Y209713D01*
X1576577Y213727D01*
X1576577Y294273D01*
X1578240Y298287D01*
X1581420Y301467D01*
X1589054Y309101D01*
X1589107Y309175D01*
X1589167Y309245D01*
X1589179Y309275D01*
X1589198Y309301D01*
X1589225Y309388D01*
X1589259Y309473D01*
X1589263Y309514D01*
X1589270Y309536D01*
X1589269Y309568D01*
X1589277Y309640D01*
X1589277Y376160D01*
X1589263Y376250D01*
X1589255Y376341D01*
X1589243Y376371D01*
X1589238Y376403D01*
X1589195Y376484D01*
X1589159Y376568D01*
X1589133Y376600D01*
X1589122Y376620D01*
X1589099Y376643D01*
X1589054Y376699D01*
X1578240Y387513D01*
X1576577Y391527D01*
X1576577Y472073D01*
X1578240Y476087D01*
X1589054Y486901D01*
X1589107Y486975D01*
X1589167Y487045D01*
X1589179Y487075D01*
X1589198Y487101D01*
X1589225Y487188D01*
X1589259Y487273D01*
X1589263Y487314D01*
X1589270Y487336D01*
X1589269Y487368D01*
X1589277Y487440D01*
X1589277Y642860D01*
X1589263Y642950D01*
X1589255Y643041D01*
X1589243Y643071D01*
X1589238Y643103D01*
X1589195Y643184D01*
X1589159Y643268D01*
X1589133Y643300D01*
X1589122Y643320D01*
X1589099Y643343D01*
X1589054Y643399D01*
X1545099Y687354D01*
X1545025Y687407D01*
X1544955Y687467D01*
X1544925Y687479D01*
X1544899Y687498D01*
X1544812Y687525D01*
X1544727Y687559D01*
X1544686Y687563D01*
X1544664Y687570D01*
X1544632Y687569D01*
X1544560Y687577D01*
X1528840Y687577D01*
X1528750Y687563D01*
X1528659Y687555D01*
X1528629Y687543D01*
X1528597Y687538D01*
X1528516Y687495D01*
X1528432Y687459D01*
X1528400Y687433D01*
X1528380Y687422D01*
X1528357Y687399D01*
X1528301Y687354D01*
X1504787Y663840D01*
X1500773Y662177D01*
X1471027Y662177D01*
X1467013Y663840D01*
X1463833Y667020D01*
X1443499Y687354D01*
X1443425Y687407D01*
X1443355Y687467D01*
X1443325Y687479D01*
X1443299Y687498D01*
X1443212Y687525D01*
X1443127Y687559D01*
X1443086Y687563D01*
X1443064Y687570D01*
X1443032Y687569D01*
X1442960Y687577D01*
X157240Y687577D01*
X157150Y687563D01*
X157059Y687555D01*
X157029Y687543D01*
X156997Y687538D01*
X156916Y687495D01*
X156832Y687459D01*
X156800Y687433D01*
X156780Y687422D01*
X156757Y687399D01*
X156701Y687354D01*
X133187Y663840D01*
X129173Y662177D01*
X99427Y662177D01*
X95413Y663840D01*
X71899Y687354D01*
X71825Y687407D01*
X71755Y687467D01*
X71725Y687479D01*
X71699Y687498D01*
X71612Y687525D01*
X71527Y687559D01*
X71486Y687563D01*
X71464Y687570D01*
X71432Y687569D01*
X71360Y687577D01*
X55640Y687577D01*
X55550Y687563D01*
X55459Y687555D01*
X55429Y687543D01*
X55397Y687538D01*
X55316Y687495D01*
X55232Y687459D01*
X55200Y687433D01*
X55180Y687422D01*
X55157Y687399D01*
X55101Y687354D01*
X11146Y643399D01*
X11093Y643325D01*
X11033Y643255D01*
X11021Y643225D01*
X11002Y643199D01*
X10975Y643112D01*
X10941Y643027D01*
X10937Y642986D01*
X10930Y642964D01*
X10931Y642932D01*
X10923Y642860D01*
X10923Y42940D01*
X10937Y42850D01*
X10945Y42759D01*
X10957Y42729D01*
X10962Y42697D01*
X11005Y42616D01*
X11041Y42532D01*
X11067Y42500D01*
X11078Y42480D01*
X11101Y42457D01*
X11146Y42401D01*
X55101Y-1554D01*
X55175Y-1607D01*
X55245Y-1667D01*
X55275Y-1679D01*
X55301Y-1698D01*
X55388Y-1725D01*
X55473Y-1759D01*
X55514Y-1763D01*
X55536Y-1770D01*
X55568Y-1769D01*
X55640Y-1777D01*
X71360Y-1777D01*
X71450Y-1763D01*
G37*
%LPC*%
G36*
X1342655Y100075D02*
X1342655Y100075D01*
X1335807Y101910D01*
X1329668Y105455D01*
X1324655Y110468D01*
X1321110Y116607D01*
X1319275Y123455D01*
X1319275Y140932D01*
X1319261Y141022D01*
X1319253Y141113D01*
X1319241Y141143D01*
X1319236Y141175D01*
X1319193Y141256D01*
X1319157Y141339D01*
X1319131Y141372D01*
X1319120Y141392D01*
X1319097Y141414D01*
X1319052Y141470D01*
X1195570Y264952D01*
X1195496Y265005D01*
X1195427Y265065D01*
X1195397Y265077D01*
X1195371Y265096D01*
X1195284Y265123D01*
X1195199Y265157D01*
X1195158Y265161D01*
X1195136Y265168D01*
X1195103Y265167D01*
X1195032Y265175D01*
X771871Y265175D01*
X766642Y267341D01*
X743631Y290352D01*
X743557Y290405D01*
X743487Y290465D01*
X743457Y290477D01*
X743431Y290496D01*
X743344Y290523D01*
X743259Y290557D01*
X743218Y290561D01*
X743196Y290568D01*
X743164Y290567D01*
X743093Y290575D01*
X695671Y290575D01*
X690442Y292741D01*
X686441Y296742D01*
X686029Y297737D01*
X685994Y297792D01*
X685969Y297853D01*
X685917Y297917D01*
X685899Y297946D01*
X685884Y297958D01*
X685864Y297983D01*
X678725Y305122D01*
X678725Y347881D01*
X678724Y347890D01*
X678724Y347893D01*
X678720Y347911D01*
X678714Y347952D01*
X678712Y348024D01*
X678694Y348073D01*
X678686Y348124D01*
X678652Y348187D01*
X678627Y348255D01*
X678595Y348295D01*
X678570Y348341D01*
X678519Y348391D01*
X678474Y348447D01*
X678430Y348475D01*
X678392Y348511D01*
X678327Y348541D01*
X678267Y348580D01*
X678216Y348592D01*
X678169Y348614D01*
X678098Y348622D01*
X678028Y348640D01*
X677976Y348636D01*
X677925Y348641D01*
X677854Y348626D01*
X677783Y348621D01*
X677735Y348600D01*
X677684Y348589D01*
X677623Y348552D01*
X677557Y348524D01*
X677501Y348479D01*
X677473Y348463D01*
X677458Y348445D01*
X677426Y348419D01*
X677382Y348375D01*
X669618Y348375D01*
X668725Y349268D01*
X668725Y364032D01*
X669618Y364925D01*
X677382Y364925D01*
X677962Y364345D01*
X677978Y364333D01*
X677990Y364317D01*
X678078Y364261D01*
X678161Y364201D01*
X678180Y364195D01*
X678197Y364184D01*
X678298Y364159D01*
X678397Y364129D01*
X678416Y364129D01*
X678436Y364124D01*
X678539Y364132D01*
X678642Y364135D01*
X678661Y364142D01*
X678681Y364143D01*
X678776Y364184D01*
X678873Y364219D01*
X678889Y364232D01*
X678907Y364240D01*
X679038Y364345D01*
X679618Y364925D01*
X687382Y364925D01*
X687962Y364345D01*
X687978Y364333D01*
X687990Y364317D01*
X688078Y364261D01*
X688161Y364201D01*
X688180Y364195D01*
X688197Y364184D01*
X688298Y364159D01*
X688397Y364129D01*
X688416Y364129D01*
X688436Y364124D01*
X688539Y364132D01*
X688642Y364135D01*
X688661Y364142D01*
X688681Y364143D01*
X688776Y364184D01*
X688873Y364219D01*
X688889Y364232D01*
X688907Y364240D01*
X689038Y364345D01*
X689618Y364925D01*
X697382Y364925D01*
X697962Y364345D01*
X697978Y364333D01*
X697990Y364317D01*
X698078Y364261D01*
X698161Y364201D01*
X698180Y364195D01*
X698197Y364184D01*
X698298Y364159D01*
X698397Y364129D01*
X698416Y364129D01*
X698436Y364124D01*
X698539Y364132D01*
X698642Y364135D01*
X698661Y364142D01*
X698681Y364143D01*
X698776Y364184D01*
X698873Y364219D01*
X698889Y364232D01*
X698907Y364240D01*
X699038Y364345D01*
X699618Y364925D01*
X705985Y364925D01*
X706056Y364936D01*
X706127Y364938D01*
X706176Y364956D01*
X706228Y364964D01*
X706291Y364998D01*
X706358Y365023D01*
X706399Y365055D01*
X706445Y365080D01*
X706494Y365131D01*
X706550Y365176D01*
X706579Y365220D01*
X706614Y365258D01*
X706645Y365323D01*
X706683Y365383D01*
X706696Y365434D01*
X706718Y365481D01*
X706726Y365552D01*
X706744Y365622D01*
X706739Y365674D01*
X706745Y365725D01*
X706730Y365796D01*
X706724Y365867D01*
X706704Y365915D01*
X706693Y365966D01*
X706656Y366027D01*
X706628Y366093D01*
X706583Y366149D01*
X706567Y366177D01*
X706549Y366192D01*
X706523Y366224D01*
X706425Y366322D01*
X706425Y370278D01*
X706929Y370782D01*
X706971Y370840D01*
X707020Y370892D01*
X707042Y370939D01*
X707073Y370981D01*
X707094Y371050D01*
X707124Y371115D01*
X707130Y371167D01*
X707145Y371217D01*
X707143Y371288D01*
X707151Y371359D01*
X707140Y371410D01*
X707139Y371462D01*
X707114Y371530D01*
X707099Y371600D01*
X707072Y371645D01*
X707054Y371693D01*
X707009Y371749D01*
X706973Y371811D01*
X706933Y371845D01*
X706901Y371885D01*
X706840Y371924D01*
X706786Y371971D01*
X706738Y371990D01*
X706694Y372018D01*
X706624Y372036D01*
X706558Y372063D01*
X706486Y372071D01*
X706455Y372079D01*
X706432Y372077D01*
X706391Y372081D01*
X611866Y372081D01*
X554125Y429822D01*
X554125Y524938D01*
X554106Y525053D01*
X554089Y525170D01*
X554087Y525175D01*
X554086Y525181D01*
X554031Y525284D01*
X553978Y525389D01*
X553973Y525393D01*
X553970Y525399D01*
X553885Y525479D01*
X553802Y525561D01*
X553796Y525565D01*
X553792Y525568D01*
X553775Y525576D01*
X553717Y525608D01*
X551122Y528203D01*
X549725Y531575D01*
X549725Y535225D01*
X551122Y538597D01*
X553703Y541178D01*
X557075Y542575D01*
X560725Y542575D01*
X564097Y541178D01*
X566678Y538597D01*
X568075Y535225D01*
X568075Y531575D01*
X566678Y528203D01*
X564071Y525596D01*
X564046Y525580D01*
X563945Y525520D01*
X563941Y525516D01*
X563936Y525512D01*
X563861Y525422D01*
X563785Y525333D01*
X563783Y525328D01*
X563779Y525323D01*
X563737Y525214D01*
X563693Y525105D01*
X563692Y525098D01*
X563691Y525093D01*
X563690Y525075D01*
X563675Y524938D01*
X563675Y434093D01*
X563689Y434003D01*
X563697Y433912D01*
X563709Y433882D01*
X563714Y433850D01*
X563757Y433770D01*
X563793Y433686D01*
X563819Y433654D01*
X563830Y433633D01*
X563853Y433611D01*
X563898Y433555D01*
X615599Y381854D01*
X615673Y381801D01*
X615742Y381741D01*
X615772Y381729D01*
X615799Y381710D01*
X615885Y381683D01*
X615970Y381649D01*
X616011Y381645D01*
X616034Y381638D01*
X616066Y381639D01*
X616137Y381631D01*
X671704Y381631D01*
X671775Y381642D01*
X671847Y381644D01*
X671896Y381662D01*
X671947Y381670D01*
X672011Y381704D01*
X672078Y381729D01*
X672119Y381761D01*
X672165Y381786D01*
X672214Y381838D01*
X672270Y381882D01*
X672298Y381926D01*
X672334Y381964D01*
X672364Y382029D01*
X672403Y382089D01*
X672416Y382140D01*
X672438Y382187D01*
X672445Y382258D01*
X672463Y382328D01*
X672459Y382380D01*
X672465Y382431D01*
X672449Y382502D01*
X672444Y382573D01*
X672424Y382621D01*
X672412Y382672D01*
X672376Y382733D01*
X672348Y382799D01*
X672303Y382855D01*
X672286Y382883D01*
X672268Y382898D01*
X672243Y382930D01*
X671425Y383748D01*
X671425Y395064D01*
X671423Y395079D01*
X671424Y395091D01*
X671423Y395095D01*
X671424Y395103D01*
X671402Y395204D01*
X671386Y395307D01*
X671376Y395324D01*
X671372Y395344D01*
X671319Y395433D01*
X671270Y395524D01*
X671256Y395538D01*
X671246Y395555D01*
X671167Y395622D01*
X671092Y395694D01*
X671074Y395702D01*
X671059Y395715D01*
X670963Y395754D01*
X670869Y395797D01*
X670849Y395799D01*
X670831Y395807D01*
X670664Y395825D01*
X658848Y395825D01*
X657925Y396748D01*
X657925Y416052D01*
X658848Y416975D01*
X670664Y416975D01*
X670684Y416978D01*
X670703Y416976D01*
X670805Y416998D01*
X670907Y417014D01*
X670924Y417024D01*
X670944Y417028D01*
X671033Y417081D01*
X671124Y417130D01*
X671138Y417144D01*
X671155Y417154D01*
X671222Y417233D01*
X671294Y417308D01*
X671302Y417326D01*
X671315Y417341D01*
X671354Y417437D01*
X671397Y417531D01*
X671399Y417551D01*
X671407Y417569D01*
X671425Y417736D01*
X671425Y427688D01*
X671422Y427708D01*
X671424Y427727D01*
X671402Y427829D01*
X671386Y427931D01*
X671376Y427948D01*
X671372Y427968D01*
X671319Y428057D01*
X671270Y428148D01*
X671256Y428162D01*
X671246Y428179D01*
X671167Y428246D01*
X671092Y428318D01*
X671074Y428326D01*
X671059Y428339D01*
X670963Y428378D01*
X670869Y428421D01*
X670849Y428423D01*
X670831Y428431D01*
X670664Y428449D01*
X606298Y428449D01*
X579525Y455222D01*
X579525Y524938D01*
X579506Y525053D01*
X579489Y525170D01*
X579487Y525175D01*
X579486Y525181D01*
X579431Y525284D01*
X579378Y525389D01*
X579373Y525393D01*
X579370Y525399D01*
X579285Y525479D01*
X579202Y525561D01*
X579196Y525565D01*
X579192Y525568D01*
X579175Y525576D01*
X579117Y525608D01*
X576522Y528203D01*
X575125Y531575D01*
X575125Y535225D01*
X576522Y538597D01*
X579103Y541178D01*
X582475Y542575D01*
X586125Y542575D01*
X589497Y541178D01*
X592078Y538597D01*
X593475Y535225D01*
X593475Y531575D01*
X592078Y528203D01*
X589471Y525596D01*
X589446Y525580D01*
X589345Y525520D01*
X589341Y525516D01*
X589336Y525512D01*
X589261Y525422D01*
X589185Y525333D01*
X589183Y525328D01*
X589179Y525323D01*
X589137Y525214D01*
X589093Y525105D01*
X589092Y525098D01*
X589091Y525093D01*
X589090Y525075D01*
X589075Y524938D01*
X589075Y459493D01*
X589089Y459403D01*
X589097Y459312D01*
X589109Y459282D01*
X589114Y459250D01*
X589157Y459170D01*
X589193Y459086D01*
X589219Y459054D01*
X589230Y459033D01*
X589253Y459011D01*
X589298Y458955D01*
X610031Y438222D01*
X610105Y438169D01*
X610174Y438109D01*
X610204Y438097D01*
X610231Y438078D01*
X610317Y438051D01*
X610402Y438017D01*
X610443Y438013D01*
X610466Y438006D01*
X610498Y438007D01*
X610569Y437999D01*
X710981Y437999D01*
X711071Y438013D01*
X711162Y438021D01*
X711192Y438033D01*
X711224Y438038D01*
X711304Y438081D01*
X711388Y438117D01*
X711420Y438143D01*
X711441Y438154D01*
X711463Y438177D01*
X711519Y438222D01*
X711723Y438426D01*
X711765Y438484D01*
X711814Y438536D01*
X711836Y438583D01*
X711867Y438625D01*
X711888Y438694D01*
X711918Y438759D01*
X711924Y438811D01*
X711939Y438860D01*
X711937Y438932D01*
X711945Y439003D01*
X711934Y439054D01*
X711933Y439106D01*
X711908Y439174D01*
X711893Y439244D01*
X711866Y439289D01*
X711848Y439337D01*
X711804Y439393D01*
X711767Y439455D01*
X711727Y439489D01*
X711695Y439529D01*
X711634Y439568D01*
X711580Y439615D01*
X711532Y439634D01*
X711488Y439662D01*
X711418Y439680D01*
X711352Y439707D01*
X711280Y439715D01*
X711249Y439723D01*
X711226Y439721D01*
X711185Y439725D01*
X633022Y439725D01*
X604825Y467922D01*
X604825Y471924D01*
X604827Y471928D01*
X604846Y471955D01*
X604873Y472041D01*
X604907Y472126D01*
X604911Y472167D01*
X604918Y472190D01*
X604917Y472222D01*
X604925Y472293D01*
X604925Y524938D01*
X604906Y525053D01*
X604889Y525170D01*
X604887Y525175D01*
X604886Y525181D01*
X604831Y525284D01*
X604778Y525389D01*
X604773Y525393D01*
X604770Y525399D01*
X604685Y525479D01*
X604602Y525561D01*
X604596Y525565D01*
X604592Y525568D01*
X604575Y525576D01*
X604517Y525608D01*
X601922Y528203D01*
X600525Y531575D01*
X600525Y535225D01*
X601922Y538597D01*
X604503Y541178D01*
X607875Y542575D01*
X611525Y542575D01*
X614897Y541178D01*
X617478Y538597D01*
X618875Y535225D01*
X618875Y531575D01*
X617478Y528203D01*
X614871Y525596D01*
X614846Y525580D01*
X614745Y525520D01*
X614741Y525516D01*
X614736Y525512D01*
X614661Y525422D01*
X614585Y525333D01*
X614583Y525328D01*
X614579Y525323D01*
X614537Y525214D01*
X614493Y525105D01*
X614492Y525098D01*
X614491Y525093D01*
X614490Y525075D01*
X614475Y524938D01*
X614475Y472093D01*
X614489Y472003D01*
X614497Y471912D01*
X614509Y471882D01*
X614514Y471850D01*
X614557Y471770D01*
X614593Y471686D01*
X614619Y471654D01*
X614630Y471633D01*
X614653Y471611D01*
X614698Y471555D01*
X636755Y449498D01*
X636829Y449445D01*
X636898Y449385D01*
X636928Y449373D01*
X636955Y449354D01*
X637041Y449327D01*
X637126Y449293D01*
X637167Y449289D01*
X637190Y449282D01*
X637222Y449283D01*
X637293Y449275D01*
X667964Y449275D01*
X667984Y449278D01*
X668003Y449276D01*
X668105Y449298D01*
X668207Y449314D01*
X668224Y449324D01*
X668244Y449328D01*
X668333Y449381D01*
X668424Y449430D01*
X668438Y449444D01*
X668455Y449454D01*
X668522Y449533D01*
X668594Y449608D01*
X668602Y449626D01*
X668615Y449641D01*
X668654Y449737D01*
X668697Y449831D01*
X668699Y449851D01*
X668707Y449869D01*
X668725Y450036D01*
X668725Y491328D01*
X671745Y494348D01*
X679514Y502116D01*
X679552Y502170D01*
X679598Y502216D01*
X679638Y502289D01*
X679658Y502316D01*
X679663Y502335D01*
X679679Y502363D01*
X680091Y503358D01*
X684092Y507359D01*
X689321Y509525D01*
X743093Y509525D01*
X743183Y509539D01*
X743274Y509547D01*
X743303Y509559D01*
X743335Y509564D01*
X743416Y509607D01*
X743500Y509643D01*
X743532Y509669D01*
X743553Y509680D01*
X743575Y509703D01*
X743631Y509748D01*
X766642Y532759D01*
X771871Y534925D01*
X930645Y534925D01*
X937493Y533090D01*
X943632Y529545D01*
X948716Y524461D01*
X1077730Y395448D01*
X1077804Y395395D01*
X1077873Y395335D01*
X1077903Y395323D01*
X1077929Y395304D01*
X1078016Y395277D01*
X1078101Y395243D01*
X1078142Y395239D01*
X1078164Y395232D01*
X1078197Y395233D01*
X1078268Y395225D01*
X1387845Y395225D01*
X1394693Y393390D01*
X1400832Y389845D01*
X1405916Y384761D01*
X1464261Y326416D01*
X1469345Y321332D01*
X1472890Y315193D01*
X1474725Y308345D01*
X1474725Y123455D01*
X1472890Y116607D01*
X1469345Y110468D01*
X1464332Y105455D01*
X1458193Y101910D01*
X1451345Y100075D01*
X1444255Y100075D01*
X1437407Y101910D01*
X1431268Y105455D01*
X1426255Y110468D01*
X1422710Y116607D01*
X1420875Y123455D01*
X1420875Y293332D01*
X1420861Y293422D01*
X1420853Y293513D01*
X1420841Y293543D01*
X1420836Y293575D01*
X1420793Y293656D01*
X1420757Y293739D01*
X1420731Y293772D01*
X1420720Y293792D01*
X1420697Y293814D01*
X1420652Y293870D01*
X1373370Y341152D01*
X1373296Y341205D01*
X1373227Y341265D01*
X1373197Y341277D01*
X1373171Y341296D01*
X1373084Y341323D01*
X1372999Y341357D01*
X1372958Y341361D01*
X1372936Y341368D01*
X1372903Y341367D01*
X1372832Y341375D01*
X1063255Y341375D01*
X1056407Y343210D01*
X1050268Y346755D01*
X1045184Y351839D01*
X941969Y455054D01*
X941930Y455082D01*
X941898Y455117D01*
X941831Y455153D01*
X941769Y455197D01*
X941724Y455211D01*
X941681Y455234D01*
X941607Y455247D01*
X941534Y455269D01*
X941486Y455268D01*
X941439Y455276D01*
X941364Y455265D01*
X941288Y455263D01*
X941243Y455247D01*
X941196Y455239D01*
X941129Y455205D01*
X941057Y455179D01*
X941020Y455149D01*
X940977Y455127D01*
X940925Y455072D01*
X940865Y455025D01*
X940839Y454985D01*
X940806Y454950D01*
X940773Y454882D01*
X940732Y454818D01*
X940721Y454771D01*
X940700Y454728D01*
X940691Y454653D01*
X940672Y454579D01*
X940676Y454532D01*
X940670Y454484D01*
X940690Y454356D01*
X940691Y454334D01*
X940694Y454328D01*
X940696Y454318D01*
X942341Y448178D01*
X942341Y440822D01*
X940437Y433715D01*
X936758Y427344D01*
X931556Y422142D01*
X925185Y418463D01*
X918078Y416559D01*
X910722Y416559D01*
X903615Y418463D01*
X897244Y422142D01*
X892042Y427344D01*
X888363Y433715D01*
X886459Y440822D01*
X886459Y448178D01*
X888363Y455285D01*
X892042Y461656D01*
X897244Y466858D01*
X903615Y470537D01*
X910722Y472441D01*
X918078Y472441D01*
X924218Y470796D01*
X924266Y470791D01*
X924312Y470777D01*
X924388Y470779D01*
X924463Y470771D01*
X924510Y470782D01*
X924558Y470783D01*
X924629Y470809D01*
X924703Y470826D01*
X924744Y470851D01*
X924789Y470868D01*
X924848Y470915D01*
X924912Y470954D01*
X924943Y470991D01*
X924981Y471021D01*
X925022Y471085D01*
X925070Y471143D01*
X925088Y471188D01*
X925114Y471228D01*
X925132Y471302D01*
X925160Y471372D01*
X925162Y471420D01*
X925174Y471467D01*
X925168Y471542D01*
X925171Y471618D01*
X925158Y471664D01*
X925155Y471712D01*
X925125Y471782D01*
X925104Y471855D01*
X925077Y471894D01*
X925058Y471938D01*
X924978Y472039D01*
X924965Y472057D01*
X924960Y472061D01*
X924954Y472069D01*
X916170Y480852D01*
X916096Y480905D01*
X916027Y480965D01*
X915997Y480977D01*
X915971Y480996D01*
X915884Y481023D01*
X915799Y481057D01*
X915758Y481061D01*
X915736Y481068D01*
X915703Y481067D01*
X915632Y481075D01*
X813736Y481075D01*
X813716Y481072D01*
X813697Y481074D01*
X813595Y481052D01*
X813493Y481036D01*
X813476Y481026D01*
X813456Y481022D01*
X813367Y480969D01*
X813276Y480920D01*
X813262Y480906D01*
X813245Y480896D01*
X813178Y480817D01*
X813106Y480742D01*
X813098Y480724D01*
X813085Y480709D01*
X813046Y480613D01*
X813003Y480519D01*
X813001Y480499D01*
X812993Y480481D01*
X812975Y480314D01*
X812975Y476968D01*
X812795Y476788D01*
X812783Y476772D01*
X812767Y476760D01*
X812711Y476672D01*
X812651Y476589D01*
X812645Y476570D01*
X812634Y476553D01*
X812609Y476452D01*
X812579Y476354D01*
X812579Y476334D01*
X812574Y476314D01*
X812582Y476211D01*
X812585Y476108D01*
X812592Y476089D01*
X812593Y476069D01*
X812634Y475974D01*
X812669Y475877D01*
X812682Y475861D01*
X812690Y475843D01*
X812795Y475712D01*
X812975Y475532D01*
X812975Y464268D01*
X812795Y464088D01*
X812783Y464072D01*
X812767Y464060D01*
X812738Y464014D01*
X812717Y463992D01*
X812702Y463960D01*
X812651Y463889D01*
X812645Y463870D01*
X812634Y463853D01*
X812609Y463752D01*
X812579Y463654D01*
X812579Y463634D01*
X812574Y463614D01*
X812582Y463511D01*
X812585Y463408D01*
X812592Y463389D01*
X812593Y463369D01*
X812634Y463274D01*
X812669Y463177D01*
X812682Y463161D01*
X812690Y463143D01*
X812795Y463012D01*
X812975Y462832D01*
X812975Y451568D01*
X812082Y450675D01*
X800818Y450675D01*
X799925Y451568D01*
X799925Y451664D01*
X799922Y451684D01*
X799924Y451703D01*
X799902Y451805D01*
X799886Y451907D01*
X799876Y451924D01*
X799872Y451944D01*
X799819Y452033D01*
X799770Y452124D01*
X799756Y452138D01*
X799746Y452155D01*
X799667Y452222D01*
X799592Y452294D01*
X799574Y452302D01*
X799559Y452315D01*
X799463Y452354D01*
X799369Y452397D01*
X799349Y452399D01*
X799331Y452407D01*
X799164Y452425D01*
X729036Y452425D01*
X729016Y452422D01*
X728997Y452424D01*
X728895Y452402D01*
X728793Y452386D01*
X728776Y452376D01*
X728756Y452372D01*
X728667Y452319D01*
X728576Y452270D01*
X728562Y452256D01*
X728545Y452246D01*
X728478Y452167D01*
X728406Y452092D01*
X728398Y452074D01*
X728385Y452059D01*
X728346Y451963D01*
X728303Y451869D01*
X728301Y451849D01*
X728293Y451831D01*
X728275Y451664D01*
X728275Y441472D01*
X718272Y431469D01*
X718077Y431274D01*
X718035Y431216D01*
X717986Y431164D01*
X717964Y431117D01*
X717933Y431075D01*
X717912Y431006D01*
X717882Y430941D01*
X717876Y430889D01*
X717861Y430840D01*
X717863Y430768D01*
X717855Y430697D01*
X717866Y430646D01*
X717867Y430594D01*
X717892Y430526D01*
X717907Y430456D01*
X717934Y430411D01*
X717952Y430363D01*
X717996Y430307D01*
X718033Y430245D01*
X718073Y430211D01*
X718105Y430171D01*
X718166Y430132D01*
X718220Y430085D01*
X718268Y430066D01*
X718312Y430038D01*
X718382Y430020D01*
X718448Y429993D01*
X718520Y429985D01*
X718551Y429977D01*
X718574Y429979D01*
X718615Y429975D01*
X724652Y429975D01*
X725575Y429052D01*
X725575Y417736D01*
X725578Y417716D01*
X725576Y417697D01*
X725598Y417595D01*
X725614Y417493D01*
X725624Y417476D01*
X725628Y417456D01*
X725681Y417367D01*
X725730Y417276D01*
X725744Y417262D01*
X725754Y417245D01*
X725833Y417178D01*
X725908Y417106D01*
X725926Y417098D01*
X725941Y417085D01*
X726037Y417046D01*
X726131Y417003D01*
X726151Y417001D01*
X726169Y416993D01*
X726336Y416975D01*
X738152Y416975D01*
X739075Y416052D01*
X739075Y396748D01*
X738152Y395825D01*
X726336Y395825D01*
X726316Y395822D01*
X726297Y395824D01*
X726195Y395802D01*
X726093Y395786D01*
X726076Y395776D01*
X726056Y395772D01*
X725967Y395719D01*
X725876Y395670D01*
X725862Y395656D01*
X725845Y395646D01*
X725778Y395567D01*
X725706Y395492D01*
X725698Y395474D01*
X725685Y395459D01*
X725646Y395363D01*
X725603Y395269D01*
X725601Y395249D01*
X725593Y395231D01*
X725575Y395064D01*
X725575Y383748D01*
X724652Y382825D01*
X717365Y382825D01*
X717294Y382814D01*
X717223Y382812D01*
X717174Y382794D01*
X717122Y382786D01*
X717059Y382752D01*
X716992Y382727D01*
X716951Y382695D01*
X716905Y382670D01*
X716856Y382618D01*
X716800Y382574D01*
X716771Y382530D01*
X716736Y382492D01*
X716705Y382427D01*
X716667Y382367D01*
X716654Y382316D01*
X716632Y382269D01*
X716624Y382198D01*
X716607Y382128D01*
X716611Y382076D01*
X716605Y382025D01*
X716620Y381954D01*
X716626Y381883D01*
X716646Y381835D01*
X716657Y381784D01*
X716694Y381723D01*
X716722Y381657D01*
X716767Y381601D01*
X716783Y381573D01*
X716801Y381558D01*
X716827Y381526D01*
X719742Y378611D01*
X725055Y373298D01*
X725129Y373245D01*
X725198Y373185D01*
X725228Y373173D01*
X725255Y373154D01*
X725342Y373127D01*
X725426Y373093D01*
X725467Y373089D01*
X725490Y373082D01*
X725522Y373083D01*
X725593Y373075D01*
X772407Y373075D01*
X772497Y373089D01*
X772588Y373097D01*
X772618Y373109D01*
X772650Y373114D01*
X772730Y373157D01*
X772814Y373193D01*
X772846Y373219D01*
X772867Y373230D01*
X772889Y373253D01*
X772945Y373298D01*
X785422Y385775D01*
X792814Y385775D01*
X792834Y385778D01*
X792853Y385776D01*
X792955Y385798D01*
X793057Y385814D01*
X793074Y385824D01*
X793094Y385828D01*
X793183Y385881D01*
X793274Y385930D01*
X793288Y385944D01*
X793305Y385954D01*
X793372Y386033D01*
X793444Y386108D01*
X793452Y386126D01*
X793465Y386141D01*
X793504Y386237D01*
X793547Y386331D01*
X793549Y386351D01*
X793557Y386369D01*
X793575Y386536D01*
X793575Y386632D01*
X793755Y386812D01*
X793767Y386828D01*
X793783Y386840D01*
X793839Y386928D01*
X793899Y387011D01*
X793905Y387030D01*
X793916Y387047D01*
X793941Y387148D01*
X793971Y387247D01*
X793971Y387267D01*
X793976Y387286D01*
X793968Y387389D01*
X793965Y387492D01*
X793958Y387511D01*
X793957Y387531D01*
X793916Y387626D01*
X793881Y387723D01*
X793868Y387739D01*
X793860Y387757D01*
X793755Y387888D01*
X793575Y388068D01*
X793575Y399332D01*
X794468Y400225D01*
X805732Y400225D01*
X806625Y399332D01*
X806625Y399236D01*
X806628Y399216D01*
X806626Y399197D01*
X806648Y399095D01*
X806664Y398993D01*
X806674Y398976D01*
X806678Y398956D01*
X806731Y398867D01*
X806780Y398776D01*
X806794Y398762D01*
X806804Y398745D01*
X806883Y398678D01*
X806958Y398606D01*
X806976Y398598D01*
X806991Y398585D01*
X807087Y398546D01*
X807181Y398503D01*
X807201Y398501D01*
X807219Y398493D01*
X807386Y398475D01*
X911298Y398475D01*
X936924Y372848D01*
X937019Y372780D01*
X937113Y372710D01*
X937119Y372708D01*
X937124Y372705D01*
X937236Y372670D01*
X937347Y372634D01*
X937353Y372634D01*
X937359Y372632D01*
X937476Y372635D01*
X937593Y372636D01*
X937600Y372638D01*
X937605Y372639D01*
X937622Y372645D01*
X937754Y372683D01*
X937905Y372746D01*
X941695Y372746D01*
X945196Y371296D01*
X947876Y368616D01*
X949326Y365115D01*
X949326Y361325D01*
X947876Y357824D01*
X945196Y355144D01*
X941674Y353686D01*
X941636Y353680D01*
X941545Y353672D01*
X941515Y353660D01*
X941483Y353655D01*
X941403Y353612D01*
X941319Y353576D01*
X941287Y353550D01*
X941266Y353539D01*
X941244Y353516D01*
X941188Y353471D01*
X913563Y325846D01*
X911241Y323524D01*
X908346Y322325D01*
X716759Y322325D01*
X716669Y322311D01*
X716578Y322303D01*
X716548Y322291D01*
X716516Y322286D01*
X716435Y322243D01*
X716352Y322207D01*
X716319Y322181D01*
X716299Y322170D01*
X716277Y322147D01*
X716221Y322102D01*
X715427Y321309D01*
X708560Y321309D01*
X706849Y323020D01*
X706849Y323021D01*
X689574Y340295D01*
X689516Y340337D01*
X689464Y340386D01*
X689417Y340408D01*
X689375Y340439D01*
X689306Y340460D01*
X689241Y340490D01*
X689189Y340496D01*
X689139Y340511D01*
X689068Y340509D01*
X688997Y340517D01*
X688946Y340506D01*
X688894Y340505D01*
X688826Y340480D01*
X688756Y340465D01*
X688712Y340438D01*
X688663Y340420D01*
X688607Y340375D01*
X688545Y340339D01*
X688511Y340299D01*
X688471Y340266D01*
X688432Y340206D01*
X688385Y340152D01*
X688366Y340103D01*
X688338Y340059D01*
X688320Y339990D01*
X688293Y339923D01*
X688285Y339852D01*
X688277Y339821D01*
X688279Y339798D01*
X688275Y339757D01*
X688275Y338843D01*
X688289Y338753D01*
X688297Y338662D01*
X688309Y338632D01*
X688314Y338600D01*
X688357Y338520D01*
X688393Y338436D01*
X688419Y338404D01*
X688430Y338383D01*
X688453Y338361D01*
X688498Y338305D01*
X707555Y319248D01*
X707629Y319195D01*
X707698Y319135D01*
X707728Y319123D01*
X707755Y319104D01*
X707841Y319077D01*
X707926Y319043D01*
X707967Y319039D01*
X707990Y319032D01*
X708022Y319033D01*
X708093Y319025D01*
X1210045Y319025D01*
X1216893Y317190D01*
X1223032Y313645D01*
X1367745Y168932D01*
X1371290Y162793D01*
X1373125Y155945D01*
X1373125Y123455D01*
X1371290Y116607D01*
X1367745Y110468D01*
X1362732Y105455D01*
X1356593Y101910D01*
X1349745Y100075D01*
X1342655Y100075D01*
G37*
%LPD*%
%LPC*%
G36*
X328475Y524225D02*
X328475Y524225D01*
X325103Y525622D01*
X322522Y528203D01*
X321125Y531575D01*
X321125Y535225D01*
X322522Y538597D01*
X323372Y539447D01*
X323425Y539521D01*
X323485Y539591D01*
X323497Y539621D01*
X323516Y539647D01*
X323543Y539734D01*
X323577Y539819D01*
X323581Y539860D01*
X323588Y539882D01*
X323587Y539914D01*
X323595Y539986D01*
X323595Y610914D01*
X324601Y613341D01*
X351859Y640599D01*
X354286Y641605D01*
X953814Y641605D01*
X956241Y640599D01*
X970799Y626041D01*
X971805Y623614D01*
X971805Y585763D01*
X971819Y585673D01*
X971827Y585582D01*
X971839Y585552D01*
X971844Y585520D01*
X971887Y585440D01*
X971923Y585356D01*
X971949Y585324D01*
X971960Y585303D01*
X971983Y585281D01*
X972028Y585225D01*
X972953Y584300D01*
X974345Y580939D01*
X974345Y562061D01*
X972953Y558700D01*
X970380Y556127D01*
X967019Y554735D01*
X963381Y554735D01*
X960020Y556127D01*
X957447Y558700D01*
X956055Y562061D01*
X956055Y580939D01*
X957447Y584300D01*
X958372Y585225D01*
X958425Y585299D01*
X958485Y585368D01*
X958497Y585398D01*
X958516Y585425D01*
X958543Y585512D01*
X958577Y585596D01*
X958581Y585637D01*
X958588Y585660D01*
X958587Y585692D01*
X958595Y585763D01*
X958595Y619249D01*
X958581Y619339D01*
X958573Y619430D01*
X958561Y619460D01*
X958556Y619492D01*
X958513Y619572D01*
X958477Y619656D01*
X958451Y619688D01*
X958440Y619709D01*
X958417Y619731D01*
X958372Y619787D01*
X949987Y628172D01*
X949913Y628225D01*
X949844Y628285D01*
X949814Y628297D01*
X949787Y628316D01*
X949700Y628343D01*
X949616Y628377D01*
X949575Y628381D01*
X949552Y628388D01*
X949520Y628387D01*
X949449Y628395D01*
X358651Y628395D01*
X358561Y628381D01*
X358470Y628373D01*
X358440Y628361D01*
X358408Y628356D01*
X358328Y628313D01*
X358244Y628277D01*
X358212Y628251D01*
X358191Y628240D01*
X358169Y628217D01*
X358113Y628172D01*
X337028Y607087D01*
X336975Y607013D01*
X336915Y606944D01*
X336903Y606914D01*
X336884Y606887D01*
X336857Y606800D01*
X336823Y606716D01*
X336819Y606675D01*
X336812Y606652D01*
X336813Y606620D01*
X336805Y606549D01*
X336805Y540186D01*
X336819Y540096D01*
X336827Y540005D01*
X336839Y539975D01*
X336844Y539943D01*
X336887Y539862D01*
X336923Y539778D01*
X336949Y539746D01*
X336960Y539726D01*
X336983Y539703D01*
X337028Y539647D01*
X338078Y538597D01*
X339475Y535225D01*
X339475Y531575D01*
X338078Y528203D01*
X335497Y525622D01*
X332125Y524225D01*
X328475Y524225D01*
G37*
%LPD*%
%LPC*%
G36*
X404675Y524225D02*
X404675Y524225D01*
X401303Y525622D01*
X398722Y528203D01*
X397325Y531575D01*
X397325Y535225D01*
X398722Y538597D01*
X399672Y539547D01*
X399725Y539621D01*
X399785Y539691D01*
X399797Y539721D01*
X399816Y539747D01*
X399843Y539834D01*
X399877Y539919D01*
X399881Y539960D01*
X399888Y539982D01*
X399887Y540014D01*
X399895Y540086D01*
X399895Y544493D01*
X399885Y544558D01*
X399884Y544624D01*
X399861Y544704D01*
X399856Y544736D01*
X399846Y544753D01*
X399837Y544785D01*
X399795Y544886D01*
X399795Y598214D01*
X400801Y600641D01*
X415359Y615199D01*
X417786Y616205D01*
X737914Y616205D01*
X740341Y615199D01*
X802613Y552928D01*
X802687Y552875D01*
X802756Y552815D01*
X802786Y552803D01*
X802813Y552784D01*
X802900Y552757D01*
X802984Y552723D01*
X803025Y552719D01*
X803048Y552712D01*
X803080Y552713D01*
X803151Y552705D01*
X974849Y552705D01*
X974939Y552719D01*
X975030Y552727D01*
X975060Y552739D01*
X975092Y552744D01*
X975172Y552787D01*
X975256Y552823D01*
X975288Y552849D01*
X975309Y552860D01*
X975331Y552883D01*
X975387Y552928D01*
X981993Y559534D01*
X982062Y559629D01*
X982131Y559723D01*
X982133Y559729D01*
X982137Y559734D01*
X982171Y559845D01*
X982208Y559956D01*
X982207Y559963D01*
X982209Y559969D01*
X982206Y560085D01*
X982205Y560202D01*
X982203Y560210D01*
X982203Y560215D01*
X982197Y560232D01*
X982158Y560363D01*
X981455Y562061D01*
X981455Y580939D01*
X982847Y584300D01*
X983772Y585225D01*
X983825Y585299D01*
X983885Y585368D01*
X983897Y585398D01*
X983916Y585425D01*
X983943Y585512D01*
X983977Y585596D01*
X983981Y585637D01*
X983988Y585660D01*
X983987Y585692D01*
X983995Y585763D01*
X983995Y610914D01*
X984017Y610967D01*
X984027Y611009D01*
X984042Y611041D01*
X984044Y611061D01*
X984057Y611092D01*
X984066Y611174D01*
X984073Y611206D01*
X984072Y611226D01*
X984075Y611258D01*
X984075Y615232D01*
X984968Y616125D01*
X988942Y616125D01*
X989006Y616135D01*
X989072Y616136D01*
X989152Y616159D01*
X989184Y616164D01*
X989202Y616174D01*
X989233Y616183D01*
X989286Y616205D01*
X991914Y616205D01*
X991967Y616183D01*
X992031Y616168D01*
X992092Y616143D01*
X992174Y616134D01*
X992206Y616127D01*
X992226Y616128D01*
X992258Y616125D01*
X996232Y616125D01*
X997125Y615232D01*
X997125Y611258D01*
X997132Y611216D01*
X997131Y611207D01*
X997135Y611185D01*
X997136Y611128D01*
X997159Y611048D01*
X997164Y611016D01*
X997174Y610998D01*
X997183Y610967D01*
X997205Y610914D01*
X997205Y585763D01*
X997219Y585673D01*
X997227Y585582D01*
X997239Y585552D01*
X997244Y585520D01*
X997287Y585440D01*
X997323Y585356D01*
X997349Y585324D01*
X997360Y585303D01*
X997383Y585281D01*
X997428Y585225D01*
X998353Y584300D01*
X999745Y580939D01*
X999745Y562061D01*
X998353Y558700D01*
X997358Y557706D01*
X997320Y557653D01*
X997274Y557606D01*
X997234Y557533D01*
X997215Y557506D01*
X997209Y557488D01*
X997193Y557459D01*
X996199Y555059D01*
X981641Y540501D01*
X979214Y539495D01*
X798786Y539495D01*
X796359Y540501D01*
X734087Y602772D01*
X734013Y602825D01*
X733944Y602885D01*
X733914Y602897D01*
X733887Y602916D01*
X733800Y602943D01*
X733716Y602977D01*
X733675Y602981D01*
X733652Y602988D01*
X733620Y602987D01*
X733549Y602995D01*
X422151Y602995D01*
X422061Y602981D01*
X421970Y602973D01*
X421940Y602961D01*
X421908Y602956D01*
X421828Y602913D01*
X421744Y602877D01*
X421712Y602851D01*
X421691Y602840D01*
X421669Y602817D01*
X421613Y602772D01*
X413228Y594387D01*
X413175Y594313D01*
X413115Y594244D01*
X413103Y594214D01*
X413084Y594187D01*
X413057Y594100D01*
X413023Y594016D01*
X413019Y593975D01*
X413012Y593952D01*
X413013Y593920D01*
X413005Y593849D01*
X413005Y547807D01*
X413015Y547742D01*
X413016Y547676D01*
X413039Y547596D01*
X413044Y547564D01*
X413054Y547547D01*
X413063Y547515D01*
X413105Y547414D01*
X413105Y540086D01*
X413119Y539996D01*
X413127Y539905D01*
X413139Y539875D01*
X413144Y539843D01*
X413187Y539762D01*
X413223Y539678D01*
X413249Y539646D01*
X413260Y539626D01*
X413283Y539603D01*
X413328Y539547D01*
X414278Y538597D01*
X415675Y535225D01*
X415675Y531575D01*
X414278Y528203D01*
X411697Y525622D01*
X408325Y524225D01*
X404675Y524225D01*
G37*
%LPD*%
G36*
X903293Y338089D02*
X903293Y338089D01*
X903384Y338097D01*
X903414Y338109D01*
X903446Y338114D01*
X903526Y338157D01*
X903610Y338193D01*
X903642Y338219D01*
X903663Y338230D01*
X903685Y338253D01*
X903741Y338298D01*
X930051Y364608D01*
X930104Y364682D01*
X930164Y364751D01*
X930176Y364781D01*
X930195Y364808D01*
X930222Y364895D01*
X930256Y364979D01*
X930260Y365020D01*
X930267Y365043D01*
X930266Y365075D01*
X930270Y365103D01*
X930337Y365266D01*
X930364Y365380D01*
X930392Y365493D01*
X930392Y365499D01*
X930393Y365505D01*
X930382Y365622D01*
X930373Y365738D01*
X930371Y365744D01*
X930370Y365750D01*
X930322Y365858D01*
X930277Y365965D01*
X930272Y365971D01*
X930270Y365975D01*
X930257Y365989D01*
X930172Y366096D01*
X907565Y388702D01*
X907491Y388755D01*
X907422Y388815D01*
X907392Y388827D01*
X907365Y388846D01*
X907279Y388873D01*
X907194Y388907D01*
X907153Y388911D01*
X907130Y388918D01*
X907098Y388917D01*
X907027Y388925D01*
X807386Y388925D01*
X807366Y388922D01*
X807347Y388924D01*
X807245Y388902D01*
X807143Y388886D01*
X807126Y388876D01*
X807106Y388872D01*
X807017Y388819D01*
X806926Y388770D01*
X806912Y388756D01*
X806895Y388746D01*
X806828Y388667D01*
X806756Y388592D01*
X806748Y388574D01*
X806735Y388559D01*
X806696Y388463D01*
X806653Y388369D01*
X806651Y388349D01*
X806643Y388331D01*
X806625Y388164D01*
X806625Y388068D01*
X806445Y387888D01*
X806433Y387872D01*
X806417Y387860D01*
X806361Y387772D01*
X806301Y387689D01*
X806295Y387670D01*
X806284Y387653D01*
X806259Y387552D01*
X806229Y387454D01*
X806229Y387434D01*
X806224Y387414D01*
X806232Y387311D01*
X806235Y387208D01*
X806242Y387189D01*
X806243Y387169D01*
X806284Y387074D01*
X806319Y386977D01*
X806332Y386961D01*
X806340Y386943D01*
X806445Y386812D01*
X806625Y386632D01*
X806625Y375368D01*
X806445Y375188D01*
X806433Y375172D01*
X806417Y375160D01*
X806361Y375072D01*
X806301Y374989D01*
X806295Y374970D01*
X806284Y374953D01*
X806259Y374852D01*
X806229Y374753D01*
X806229Y374733D01*
X806224Y374714D01*
X806232Y374611D01*
X806235Y374508D01*
X806242Y374489D01*
X806243Y374469D01*
X806284Y374374D01*
X806319Y374277D01*
X806332Y374261D01*
X806340Y374243D01*
X806445Y374112D01*
X806625Y373932D01*
X806625Y362668D01*
X805732Y361775D01*
X800643Y361775D01*
X800553Y361761D01*
X800462Y361753D01*
X800432Y361741D01*
X800400Y361736D01*
X800320Y361693D01*
X800236Y361657D01*
X800204Y361631D01*
X800183Y361620D01*
X800161Y361597D01*
X800105Y361552D01*
X779698Y341145D01*
X777927Y339374D01*
X777885Y339316D01*
X777836Y339264D01*
X777814Y339217D01*
X777783Y339175D01*
X777762Y339106D01*
X777732Y339041D01*
X777726Y338989D01*
X777711Y338939D01*
X777713Y338868D01*
X777705Y338797D01*
X777716Y338746D01*
X777717Y338694D01*
X777742Y338626D01*
X777757Y338556D01*
X777784Y338511D01*
X777802Y338463D01*
X777847Y338407D01*
X777883Y338345D01*
X777923Y338311D01*
X777955Y338271D01*
X778016Y338232D01*
X778070Y338185D01*
X778118Y338166D01*
X778162Y338138D01*
X778232Y338120D01*
X778298Y338093D01*
X778370Y338085D01*
X778401Y338077D01*
X778424Y338079D01*
X778465Y338075D01*
X903203Y338075D01*
X903293Y338089D01*
G37*
%LPC*%
G36*
X531675Y270225D02*
X531675Y270225D01*
X528303Y271622D01*
X525722Y274203D01*
X524325Y277575D01*
X524325Y281225D01*
X524389Y281379D01*
X524397Y281414D01*
X524400Y281420D01*
X524401Y281431D01*
X524416Y281492D01*
X524444Y281606D01*
X524444Y281613D01*
X524445Y281619D01*
X524434Y281735D01*
X524425Y281852D01*
X524423Y281857D01*
X524422Y281864D01*
X524374Y281972D01*
X524329Y282078D01*
X524324Y282084D01*
X524322Y282088D01*
X524309Y282102D01*
X524224Y282209D01*
X290529Y515904D01*
X290455Y515957D01*
X290385Y516017D01*
X290355Y516029D01*
X290329Y516048D01*
X290242Y516075D01*
X290157Y516109D01*
X290116Y516113D01*
X290094Y516120D01*
X290062Y516119D01*
X289991Y516127D01*
X206447Y516127D01*
X206357Y516113D01*
X206266Y516105D01*
X206237Y516093D01*
X206205Y516088D01*
X206124Y516045D01*
X206040Y516009D01*
X206008Y515983D01*
X205987Y515972D01*
X205965Y515949D01*
X205909Y515904D01*
X205398Y515393D01*
X201002Y515393D01*
X197893Y518502D01*
X197893Y522898D01*
X201002Y526007D01*
X205398Y526007D01*
X205909Y525496D01*
X205983Y525443D01*
X206053Y525383D01*
X206083Y525371D01*
X206109Y525352D01*
X206196Y525325D01*
X206281Y525291D01*
X206322Y525287D01*
X206344Y525280D01*
X206376Y525281D01*
X206447Y525273D01*
X272814Y525273D01*
X272885Y525284D01*
X272957Y525286D01*
X273006Y525304D01*
X273057Y525312D01*
X273121Y525346D01*
X273188Y525371D01*
X273229Y525403D01*
X273275Y525428D01*
X273324Y525480D01*
X273380Y525524D01*
X273408Y525568D01*
X273444Y525606D01*
X273474Y525671D01*
X273513Y525731D01*
X273526Y525782D01*
X273548Y525829D01*
X273555Y525900D01*
X273573Y525970D01*
X273569Y526022D01*
X273575Y526073D01*
X273559Y526144D01*
X273554Y526215D01*
X273533Y526263D01*
X273522Y526314D01*
X273486Y526375D01*
X273458Y526441D01*
X273413Y526497D01*
X273396Y526525D01*
X273378Y526540D01*
X273353Y526572D01*
X271722Y528203D01*
X270325Y531575D01*
X270325Y535225D01*
X271722Y538597D01*
X274303Y541178D01*
X277675Y542575D01*
X281325Y542575D01*
X284697Y541178D01*
X287278Y538597D01*
X288675Y535225D01*
X288675Y531575D01*
X287278Y528203D01*
X285647Y526572D01*
X285605Y526514D01*
X285556Y526462D01*
X285534Y526415D01*
X285504Y526373D01*
X285483Y526304D01*
X285452Y526239D01*
X285447Y526187D01*
X285431Y526137D01*
X285433Y526066D01*
X285425Y525995D01*
X285436Y525944D01*
X285438Y525892D01*
X285462Y525824D01*
X285478Y525754D01*
X285504Y525709D01*
X285522Y525661D01*
X285567Y525605D01*
X285604Y525543D01*
X285643Y525509D01*
X285676Y525469D01*
X285736Y525430D01*
X285791Y525383D01*
X285839Y525364D01*
X285883Y525336D01*
X285952Y525318D01*
X286019Y525291D01*
X286090Y525283D01*
X286121Y525275D01*
X286145Y525277D01*
X286186Y525273D01*
X294094Y525273D01*
X530691Y288676D01*
X530785Y288608D01*
X530791Y288604D01*
X530811Y288587D01*
X530818Y288584D01*
X530880Y288538D01*
X530886Y288536D01*
X530891Y288532D01*
X531002Y288498D01*
X531114Y288462D01*
X531120Y288462D01*
X531126Y288460D01*
X531243Y288463D01*
X531360Y288464D01*
X531367Y288466D01*
X531372Y288466D01*
X531389Y288473D01*
X531521Y288511D01*
X531675Y288575D01*
X535325Y288575D01*
X538697Y287178D01*
X541278Y284597D01*
X542675Y281225D01*
X542675Y277575D01*
X541278Y274203D01*
X538697Y271622D01*
X535325Y270225D01*
X531675Y270225D01*
G37*
%LPD*%
%LPC*%
G36*
X506275Y270225D02*
X506275Y270225D01*
X502903Y271622D01*
X500322Y274203D01*
X498925Y277575D01*
X498925Y281225D01*
X498989Y281379D01*
X498997Y281414D01*
X499000Y281420D01*
X499001Y281431D01*
X499016Y281492D01*
X499044Y281606D01*
X499044Y281613D01*
X499045Y281619D01*
X499034Y281735D01*
X499025Y281852D01*
X499023Y281857D01*
X499022Y281864D01*
X498974Y281972D01*
X498929Y282078D01*
X498924Y282084D01*
X498922Y282088D01*
X498909Y282102D01*
X498824Y282209D01*
X303229Y477804D01*
X303155Y477857D01*
X303085Y477917D01*
X303055Y477929D01*
X303029Y477948D01*
X302942Y477975D01*
X302857Y478009D01*
X302816Y478013D01*
X302794Y478020D01*
X302762Y478019D01*
X302691Y478027D01*
X206447Y478027D01*
X206357Y478013D01*
X206266Y478005D01*
X206237Y477993D01*
X206205Y477988D01*
X206124Y477945D01*
X206040Y477909D01*
X206008Y477883D01*
X205987Y477872D01*
X205965Y477849D01*
X205909Y477804D01*
X205398Y477293D01*
X201002Y477293D01*
X197893Y480402D01*
X197893Y484798D01*
X201002Y487907D01*
X205398Y487907D01*
X205909Y487396D01*
X205983Y487343D01*
X206053Y487283D01*
X206083Y487271D01*
X206109Y487252D01*
X206196Y487225D01*
X206281Y487191D01*
X206322Y487187D01*
X206344Y487180D01*
X206376Y487181D01*
X206447Y487173D01*
X306794Y487173D01*
X505291Y288676D01*
X505385Y288608D01*
X505391Y288604D01*
X505411Y288587D01*
X505418Y288584D01*
X505480Y288538D01*
X505486Y288536D01*
X505491Y288532D01*
X505602Y288498D01*
X505714Y288462D01*
X505720Y288462D01*
X505726Y288460D01*
X505843Y288463D01*
X505960Y288464D01*
X505967Y288466D01*
X505972Y288466D01*
X505989Y288473D01*
X506121Y288511D01*
X506275Y288575D01*
X509925Y288575D01*
X513297Y287178D01*
X515878Y284597D01*
X517275Y281225D01*
X517275Y277575D01*
X515878Y274203D01*
X513297Y271622D01*
X509925Y270225D01*
X506275Y270225D01*
G37*
%LPD*%
%LPC*%
G36*
X480875Y270225D02*
X480875Y270225D01*
X477503Y271622D01*
X474922Y274203D01*
X473525Y277575D01*
X473525Y281225D01*
X473560Y281309D01*
X473587Y281422D01*
X473615Y281536D01*
X473615Y281542D01*
X473616Y281548D01*
X473605Y281664D01*
X473596Y281781D01*
X473594Y281787D01*
X473593Y281793D01*
X473545Y281900D01*
X473500Y282007D01*
X473495Y282013D01*
X473493Y282018D01*
X473481Y282031D01*
X473415Y282113D01*
X473413Y282116D01*
X473411Y282118D01*
X473395Y282138D01*
X315829Y439704D01*
X315755Y439757D01*
X315685Y439817D01*
X315655Y439829D01*
X315629Y439848D01*
X315542Y439875D01*
X315457Y439909D01*
X315416Y439913D01*
X315394Y439920D01*
X315362Y439919D01*
X315291Y439927D01*
X206447Y439927D01*
X206357Y439913D01*
X206266Y439905D01*
X206237Y439893D01*
X206205Y439888D01*
X206124Y439845D01*
X206040Y439809D01*
X206008Y439783D01*
X205987Y439772D01*
X205965Y439749D01*
X205909Y439704D01*
X205398Y439193D01*
X201002Y439193D01*
X197893Y442302D01*
X197893Y446698D01*
X201002Y449807D01*
X205398Y449807D01*
X205909Y449296D01*
X205983Y449243D01*
X206053Y449183D01*
X206083Y449171D01*
X206109Y449152D01*
X206196Y449125D01*
X206281Y449091D01*
X206322Y449087D01*
X206344Y449080D01*
X206376Y449081D01*
X206447Y449073D01*
X319494Y449073D01*
X322226Y446341D01*
X322255Y446286D01*
X322291Y446202D01*
X322317Y446170D01*
X322328Y446149D01*
X322351Y446127D01*
X322396Y446071D01*
X479820Y288646D01*
X479915Y288579D01*
X480009Y288509D01*
X480015Y288507D01*
X480020Y288503D01*
X480131Y288469D01*
X480243Y288432D01*
X480249Y288432D01*
X480255Y288431D01*
X480372Y288434D01*
X480489Y288435D01*
X480496Y288437D01*
X480501Y288437D01*
X480518Y288443D01*
X480650Y288481D01*
X480875Y288575D01*
X484525Y288575D01*
X487897Y287178D01*
X490478Y284597D01*
X491875Y281225D01*
X491875Y277575D01*
X490478Y274203D01*
X487897Y271622D01*
X484525Y270225D01*
X480875Y270225D01*
G37*
%LPD*%
%LPC*%
G36*
X455475Y270225D02*
X455475Y270225D01*
X452103Y271622D01*
X449522Y274203D01*
X448125Y277575D01*
X448125Y281225D01*
X448189Y281379D01*
X448197Y281414D01*
X448200Y281420D01*
X448201Y281431D01*
X448216Y281492D01*
X448244Y281606D01*
X448244Y281613D01*
X448245Y281619D01*
X448234Y281735D01*
X448225Y281852D01*
X448223Y281857D01*
X448222Y281864D01*
X448174Y281972D01*
X448129Y282078D01*
X448124Y282084D01*
X448122Y282088D01*
X448109Y282102D01*
X448024Y282209D01*
X328629Y401604D01*
X328555Y401657D01*
X328485Y401717D01*
X328455Y401729D01*
X328429Y401748D01*
X328342Y401775D01*
X328257Y401809D01*
X328216Y401813D01*
X328194Y401820D01*
X328162Y401819D01*
X328091Y401827D01*
X206447Y401827D01*
X206357Y401813D01*
X206266Y401805D01*
X206237Y401793D01*
X206205Y401788D01*
X206124Y401745D01*
X206040Y401709D01*
X206008Y401683D01*
X205987Y401672D01*
X205965Y401649D01*
X205909Y401604D01*
X205398Y401093D01*
X201002Y401093D01*
X197893Y404202D01*
X197893Y408598D01*
X201002Y411707D01*
X205398Y411707D01*
X205909Y411196D01*
X205983Y411143D01*
X206053Y411083D01*
X206083Y411071D01*
X206109Y411052D01*
X206196Y411025D01*
X206281Y410991D01*
X206322Y410987D01*
X206344Y410980D01*
X206376Y410981D01*
X206447Y410973D01*
X332194Y410973D01*
X454491Y288676D01*
X454585Y288608D01*
X454591Y288604D01*
X454611Y288587D01*
X454618Y288584D01*
X454680Y288538D01*
X454686Y288536D01*
X454691Y288532D01*
X454802Y288498D01*
X454914Y288462D01*
X454920Y288462D01*
X454926Y288460D01*
X455043Y288463D01*
X455160Y288464D01*
X455167Y288466D01*
X455172Y288466D01*
X455189Y288473D01*
X455321Y288511D01*
X455475Y288575D01*
X459125Y288575D01*
X462497Y287178D01*
X465078Y284597D01*
X466475Y281225D01*
X466475Y277575D01*
X465078Y274203D01*
X462497Y271622D01*
X459125Y270225D01*
X455475Y270225D01*
G37*
%LPD*%
G36*
X724047Y384387D02*
X724047Y384387D01*
X724042Y384394D01*
X724049Y384400D01*
X724049Y397351D01*
X737500Y397351D01*
X737547Y397387D01*
X737546Y397388D01*
X737547Y397389D01*
X737543Y397395D01*
X737549Y397400D01*
X737549Y415400D01*
X737513Y415447D01*
X737506Y415442D01*
X737500Y415449D01*
X724049Y415449D01*
X724049Y428400D01*
X724013Y428447D01*
X724006Y428442D01*
X724000Y428449D01*
X673000Y428449D01*
X672953Y428413D01*
X672958Y428406D01*
X672951Y428400D01*
X672951Y415449D01*
X659500Y415449D01*
X659453Y415413D01*
X659458Y415406D01*
X659451Y415400D01*
X659451Y397400D01*
X659487Y397353D01*
X659494Y397358D01*
X659500Y397351D01*
X672951Y397351D01*
X672951Y384400D01*
X672987Y384353D01*
X672994Y384358D01*
X673000Y384351D01*
X724000Y384351D01*
X724047Y384387D01*
G37*
%LPC*%
G36*
X430075Y270225D02*
X430075Y270225D01*
X426703Y271622D01*
X424122Y274203D01*
X422725Y277575D01*
X422725Y281225D01*
X422789Y281379D01*
X422797Y281414D01*
X422800Y281420D01*
X422801Y281431D01*
X422816Y281493D01*
X422844Y281606D01*
X422844Y281613D01*
X422845Y281619D01*
X422834Y281735D01*
X422825Y281852D01*
X422823Y281857D01*
X422822Y281864D01*
X422774Y281971D01*
X422729Y282078D01*
X422724Y282084D01*
X422722Y282088D01*
X422710Y282102D01*
X422624Y282209D01*
X354029Y350804D01*
X353955Y350857D01*
X353885Y350917D01*
X353855Y350929D01*
X353829Y350948D01*
X353742Y350975D01*
X353657Y351009D01*
X353616Y351013D01*
X353594Y351020D01*
X353562Y351019D01*
X353491Y351027D01*
X206447Y351027D01*
X206357Y351013D01*
X206266Y351005D01*
X206237Y350993D01*
X206205Y350988D01*
X206124Y350945D01*
X206040Y350909D01*
X206008Y350883D01*
X205987Y350872D01*
X205965Y350849D01*
X205909Y350804D01*
X205398Y350293D01*
X201002Y350293D01*
X197893Y353402D01*
X197893Y357798D01*
X201002Y360907D01*
X205398Y360907D01*
X205909Y360396D01*
X205983Y360343D01*
X206053Y360283D01*
X206083Y360271D01*
X206109Y360252D01*
X206196Y360225D01*
X206281Y360191D01*
X206322Y360187D01*
X206344Y360180D01*
X206376Y360181D01*
X206447Y360173D01*
X357594Y360173D01*
X429091Y288676D01*
X429185Y288608D01*
X429191Y288604D01*
X429211Y288587D01*
X429218Y288584D01*
X429280Y288538D01*
X429286Y288536D01*
X429291Y288532D01*
X429402Y288498D01*
X429514Y288462D01*
X429520Y288462D01*
X429526Y288460D01*
X429643Y288463D01*
X429760Y288464D01*
X429767Y288466D01*
X429772Y288466D01*
X429789Y288473D01*
X429921Y288511D01*
X430075Y288575D01*
X433725Y288575D01*
X437097Y287178D01*
X439678Y284597D01*
X441075Y281225D01*
X441075Y277575D01*
X439678Y274203D01*
X437097Y271622D01*
X433725Y270225D01*
X430075Y270225D01*
G37*
%LPD*%
%LPC*%
G36*
X1139362Y417575D02*
X1139362Y417575D01*
X1132578Y419393D01*
X1126497Y422904D01*
X1121531Y427870D01*
X1118020Y433951D01*
X1116202Y440735D01*
X1116202Y447757D01*
X1118020Y454541D01*
X1121531Y460622D01*
X1126497Y465588D01*
X1132578Y469099D01*
X1139362Y470917D01*
X1146384Y470917D01*
X1153168Y469099D01*
X1159249Y465588D01*
X1164215Y460622D01*
X1167726Y454541D01*
X1169544Y447757D01*
X1169544Y440735D01*
X1167726Y433951D01*
X1164215Y427870D01*
X1159249Y422904D01*
X1153168Y419393D01*
X1146384Y417575D01*
X1139362Y417575D01*
G37*
%LPD*%
%LPC*%
G36*
X72888Y597139D02*
X72888Y597139D01*
X66488Y598854D01*
X60751Y602166D01*
X56066Y606851D01*
X52754Y612588D01*
X51039Y618988D01*
X51039Y625612D01*
X52754Y632012D01*
X56066Y637749D01*
X60751Y642434D01*
X66488Y645746D01*
X72888Y647461D01*
X79512Y647461D01*
X85912Y645746D01*
X91649Y642434D01*
X96334Y637749D01*
X99646Y632012D01*
X101361Y625612D01*
X101361Y618988D01*
X99646Y612588D01*
X96334Y606851D01*
X91649Y602166D01*
X85912Y598854D01*
X79512Y597139D01*
X72888Y597139D01*
G37*
%LPD*%
%LPC*%
G36*
X1558788Y317739D02*
X1558788Y317739D01*
X1552388Y319454D01*
X1546651Y322766D01*
X1541966Y327451D01*
X1538654Y333188D01*
X1536939Y339588D01*
X1536939Y346212D01*
X1538654Y352612D01*
X1541966Y358349D01*
X1546651Y363034D01*
X1552388Y366346D01*
X1558788Y368061D01*
X1565412Y368061D01*
X1571812Y366346D01*
X1577549Y363034D01*
X1582234Y358349D01*
X1585546Y352612D01*
X1587261Y346212D01*
X1587261Y339588D01*
X1585546Y333188D01*
X1582234Y327451D01*
X1577549Y322766D01*
X1571812Y319454D01*
X1565412Y317739D01*
X1558788Y317739D01*
G37*
%LPD*%
%LPC*%
G36*
X72888Y38339D02*
X72888Y38339D01*
X66488Y40054D01*
X60751Y43366D01*
X56066Y48051D01*
X52754Y53788D01*
X51039Y60188D01*
X51039Y66812D01*
X52754Y73212D01*
X56066Y78949D01*
X60751Y83634D01*
X66488Y86946D01*
X72888Y88661D01*
X79512Y88661D01*
X85912Y86946D01*
X91649Y83634D01*
X96334Y78949D01*
X99646Y73212D01*
X101361Y66812D01*
X101361Y60188D01*
X99646Y53788D01*
X96334Y48051D01*
X91649Y43366D01*
X85912Y40054D01*
X79512Y38339D01*
X72888Y38339D01*
G37*
%LPD*%
%LPC*%
G36*
X807644Y178053D02*
X807644Y178053D01*
X800353Y185344D01*
X800353Y195656D01*
X807644Y202947D01*
X817956Y202947D01*
X824962Y195941D01*
X824978Y195929D01*
X824990Y195913D01*
X825078Y195857D01*
X825161Y195797D01*
X825180Y195791D01*
X825197Y195780D01*
X825298Y195755D01*
X825397Y195725D01*
X825416Y195725D01*
X825436Y195720D01*
X825539Y195728D01*
X825642Y195731D01*
X825661Y195738D01*
X825681Y195739D01*
X825776Y195780D01*
X825873Y195816D01*
X825889Y195828D01*
X825907Y195836D01*
X826038Y195941D01*
X833044Y202947D01*
X843356Y202947D01*
X850647Y195656D01*
X850647Y185344D01*
X843356Y178053D01*
X833044Y178053D01*
X826038Y185059D01*
X826022Y185071D01*
X826010Y185087D01*
X825922Y185143D01*
X825839Y185203D01*
X825820Y185209D01*
X825803Y185220D01*
X825702Y185245D01*
X825603Y185275D01*
X825584Y185275D01*
X825564Y185280D01*
X825461Y185272D01*
X825358Y185269D01*
X825339Y185262D01*
X825319Y185261D01*
X825224Y185220D01*
X825127Y185184D01*
X825111Y185172D01*
X825093Y185164D01*
X824962Y185059D01*
X817956Y178053D01*
X807644Y178053D01*
G37*
%LPD*%
G36*
X698539Y463632D02*
X698539Y463632D01*
X698642Y463635D01*
X698661Y463642D01*
X698681Y463643D01*
X698776Y463684D01*
X698873Y463719D01*
X698889Y463732D01*
X698907Y463740D01*
X699038Y463845D01*
X699618Y464425D01*
X707382Y464425D01*
X707426Y464381D01*
X707484Y464339D01*
X707536Y464289D01*
X707583Y464267D01*
X707625Y464237D01*
X707694Y464216D01*
X707759Y464186D01*
X707811Y464180D01*
X707861Y464165D01*
X707932Y464167D01*
X708003Y464159D01*
X708054Y464170D01*
X708106Y464171D01*
X708174Y464196D01*
X708244Y464211D01*
X708289Y464238D01*
X708337Y464255D01*
X708393Y464300D01*
X708455Y464337D01*
X708489Y464377D01*
X708529Y464409D01*
X708568Y464469D01*
X708615Y464524D01*
X708634Y464572D01*
X708662Y464616D01*
X708680Y464685D01*
X708707Y464752D01*
X708715Y464823D01*
X708723Y464855D01*
X708721Y464878D01*
X708725Y464919D01*
X708725Y469578D01*
X713822Y474675D01*
X799164Y474675D01*
X799184Y474678D01*
X799203Y474676D01*
X799305Y474698D01*
X799407Y474714D01*
X799424Y474724D01*
X799444Y474728D01*
X799533Y474781D01*
X799624Y474830D01*
X799638Y474844D01*
X799655Y474854D01*
X799722Y474933D01*
X799794Y475008D01*
X799802Y475026D01*
X799815Y475041D01*
X799854Y475137D01*
X799897Y475231D01*
X799899Y475251D01*
X799907Y475269D01*
X799925Y475436D01*
X799925Y475532D01*
X800105Y475712D01*
X800117Y475728D01*
X800133Y475740D01*
X800189Y475828D01*
X800249Y475911D01*
X800255Y475930D01*
X800266Y475947D01*
X800291Y476048D01*
X800321Y476147D01*
X800321Y476167D01*
X800326Y476186D01*
X800318Y476289D01*
X800315Y476392D01*
X800308Y476411D01*
X800307Y476431D01*
X800266Y476526D01*
X800231Y476623D01*
X800218Y476639D01*
X800210Y476657D01*
X800105Y476788D01*
X799925Y476968D01*
X799925Y480314D01*
X799922Y480333D01*
X799924Y480351D01*
X799924Y480352D01*
X799924Y480353D01*
X799902Y480455D01*
X799886Y480557D01*
X799876Y480574D01*
X799872Y480594D01*
X799819Y480683D01*
X799770Y480774D01*
X799756Y480788D01*
X799746Y480805D01*
X799667Y480872D01*
X799592Y480944D01*
X799574Y480952D01*
X799559Y480965D01*
X799463Y481004D01*
X799369Y481047D01*
X799349Y481049D01*
X799331Y481057D01*
X799164Y481075D01*
X691743Y481075D01*
X691653Y481061D01*
X691562Y481053D01*
X691532Y481041D01*
X691500Y481036D01*
X691420Y480993D01*
X691336Y480957D01*
X691304Y480931D01*
X691283Y480920D01*
X691280Y480918D01*
X691260Y480897D01*
X691205Y480852D01*
X678498Y468145D01*
X678445Y468071D01*
X678385Y468002D01*
X678373Y467972D01*
X678354Y467945D01*
X678327Y467859D01*
X678293Y467774D01*
X678289Y467733D01*
X678282Y467710D01*
X678283Y467678D01*
X678275Y467607D01*
X678275Y464919D01*
X678286Y464848D01*
X678288Y464776D01*
X678306Y464727D01*
X678314Y464676D01*
X678348Y464613D01*
X678373Y464545D01*
X678405Y464505D01*
X678430Y464459D01*
X678481Y464409D01*
X678526Y464353D01*
X678570Y464325D01*
X678608Y464289D01*
X678673Y464259D01*
X678733Y464220D01*
X678784Y464208D01*
X678831Y464186D01*
X678902Y464178D01*
X678972Y464160D01*
X679024Y464164D01*
X679075Y464159D01*
X679146Y464174D01*
X679217Y464179D01*
X679265Y464200D01*
X679316Y464211D01*
X679377Y464248D01*
X679443Y464276D01*
X679499Y464321D01*
X679527Y464337D01*
X679542Y464355D01*
X679574Y464381D01*
X679618Y464425D01*
X687382Y464425D01*
X687962Y463845D01*
X687978Y463833D01*
X687990Y463817D01*
X688078Y463761D01*
X688161Y463701D01*
X688180Y463695D01*
X688197Y463684D01*
X688298Y463659D01*
X688397Y463629D01*
X688416Y463629D01*
X688436Y463624D01*
X688539Y463632D01*
X688642Y463635D01*
X688661Y463642D01*
X688681Y463643D01*
X688776Y463684D01*
X688873Y463719D01*
X688889Y463732D01*
X688907Y463740D01*
X689038Y463845D01*
X689618Y464425D01*
X697382Y464425D01*
X697962Y463845D01*
X697978Y463833D01*
X697990Y463817D01*
X698078Y463761D01*
X698161Y463701D01*
X698180Y463695D01*
X698197Y463684D01*
X698298Y463659D01*
X698397Y463629D01*
X698416Y463629D01*
X698436Y463624D01*
X698539Y463632D01*
G37*
G36*
X772497Y347689D02*
X772497Y347689D01*
X772588Y347697D01*
X772618Y347709D01*
X772650Y347714D01*
X772730Y347757D01*
X772814Y347793D01*
X772846Y347819D01*
X772867Y347830D01*
X772889Y347853D01*
X772945Y347898D01*
X793352Y368305D01*
X793405Y368379D01*
X793465Y368448D01*
X793477Y368478D01*
X793496Y368505D01*
X793523Y368591D01*
X793557Y368676D01*
X793561Y368717D01*
X793568Y368740D01*
X793567Y368772D01*
X793575Y368843D01*
X793575Y373932D01*
X793755Y374112D01*
X793767Y374128D01*
X793783Y374140D01*
X793839Y374228D01*
X793899Y374311D01*
X793905Y374330D01*
X793916Y374347D01*
X793941Y374448D01*
X793971Y374546D01*
X793971Y374566D01*
X793976Y374586D01*
X793968Y374689D01*
X793965Y374792D01*
X793958Y374811D01*
X793957Y374831D01*
X793916Y374926D01*
X793881Y375023D01*
X793868Y375039D01*
X793860Y375057D01*
X793755Y375188D01*
X793575Y375368D01*
X793575Y375464D01*
X793572Y375484D01*
X793574Y375503D01*
X793552Y375605D01*
X793536Y375707D01*
X793526Y375724D01*
X793522Y375744D01*
X793469Y375833D01*
X793420Y375924D01*
X793406Y375938D01*
X793396Y375955D01*
X793317Y376022D01*
X793242Y376094D01*
X793224Y376102D01*
X793209Y376115D01*
X793113Y376154D01*
X793019Y376197D01*
X792999Y376199D01*
X792981Y376207D01*
X792814Y376225D01*
X789693Y376225D01*
X789603Y376211D01*
X789512Y376203D01*
X789482Y376191D01*
X789450Y376186D01*
X789370Y376143D01*
X789286Y376107D01*
X789254Y376081D01*
X789233Y376070D01*
X789211Y376047D01*
X789155Y376002D01*
X776678Y363525D01*
X729036Y363525D01*
X729016Y363522D01*
X728997Y363524D01*
X728895Y363502D01*
X728793Y363486D01*
X728776Y363476D01*
X728756Y363472D01*
X728667Y363419D01*
X728576Y363370D01*
X728562Y363356D01*
X728545Y363346D01*
X728478Y363267D01*
X728406Y363192D01*
X728398Y363174D01*
X728385Y363159D01*
X728346Y363063D01*
X728303Y362969D01*
X728301Y362949D01*
X728293Y362931D01*
X728275Y362764D01*
X728275Y349268D01*
X727981Y348974D01*
X727939Y348916D01*
X727889Y348864D01*
X727867Y348817D01*
X727837Y348775D01*
X727816Y348706D01*
X727786Y348641D01*
X727780Y348589D01*
X727765Y348539D01*
X727767Y348468D01*
X727759Y348397D01*
X727770Y348346D01*
X727771Y348294D01*
X727796Y348226D01*
X727811Y348156D01*
X727838Y348111D01*
X727855Y348063D01*
X727900Y348007D01*
X727937Y347945D01*
X727977Y347911D01*
X728009Y347871D01*
X728069Y347832D01*
X728124Y347785D01*
X728172Y347766D01*
X728216Y347738D01*
X728285Y347720D01*
X728352Y347693D01*
X728423Y347685D01*
X728455Y347677D01*
X728478Y347679D01*
X728519Y347675D01*
X772407Y347675D01*
X772497Y347689D01*
G37*
%LPC*%
G36*
X912581Y554735D02*
X912581Y554735D01*
X909220Y556127D01*
X906647Y558700D01*
X905255Y562061D01*
X905255Y580939D01*
X906647Y584300D01*
X907572Y585225D01*
X907625Y585299D01*
X907685Y585368D01*
X907697Y585398D01*
X907716Y585425D01*
X907743Y585512D01*
X907777Y585596D01*
X907781Y585637D01*
X907788Y585660D01*
X907787Y585692D01*
X907795Y585763D01*
X907795Y610914D01*
X907817Y610967D01*
X907827Y611009D01*
X907842Y611041D01*
X907844Y611061D01*
X907857Y611092D01*
X907866Y611174D01*
X907873Y611206D01*
X907872Y611226D01*
X907875Y611258D01*
X907875Y615232D01*
X908768Y616125D01*
X912742Y616125D01*
X912806Y616135D01*
X912872Y616136D01*
X912952Y616159D01*
X912984Y616164D01*
X913002Y616174D01*
X913033Y616183D01*
X913086Y616205D01*
X915714Y616205D01*
X915767Y616183D01*
X915831Y616168D01*
X915892Y616143D01*
X915974Y616134D01*
X916006Y616127D01*
X916026Y616128D01*
X916058Y616125D01*
X920032Y616125D01*
X920925Y615232D01*
X920925Y611258D01*
X920932Y611216D01*
X920931Y611207D01*
X920935Y611185D01*
X920936Y611128D01*
X920959Y611048D01*
X920964Y611016D01*
X920974Y610998D01*
X920983Y610967D01*
X921005Y610914D01*
X921005Y585763D01*
X921019Y585673D01*
X921027Y585582D01*
X921039Y585552D01*
X921044Y585520D01*
X921087Y585440D01*
X921123Y585356D01*
X921149Y585324D01*
X921160Y585303D01*
X921183Y585281D01*
X921228Y585225D01*
X922153Y584300D01*
X923545Y580939D01*
X923545Y562061D01*
X922153Y558700D01*
X919580Y556127D01*
X916219Y554735D01*
X912581Y554735D01*
G37*
%LPD*%
%LPC*%
G36*
X937981Y554735D02*
X937981Y554735D01*
X934620Y556127D01*
X932047Y558700D01*
X930655Y562061D01*
X930655Y580939D01*
X932047Y584300D01*
X932972Y585225D01*
X933025Y585299D01*
X933085Y585368D01*
X933097Y585398D01*
X933116Y585425D01*
X933143Y585512D01*
X933177Y585596D01*
X933181Y585637D01*
X933188Y585660D01*
X933187Y585692D01*
X933195Y585763D01*
X933195Y610914D01*
X933217Y610967D01*
X933227Y611009D01*
X933242Y611041D01*
X933244Y611061D01*
X933257Y611092D01*
X933266Y611174D01*
X933273Y611206D01*
X933272Y611226D01*
X933275Y611258D01*
X933275Y615232D01*
X934168Y616125D01*
X938142Y616125D01*
X938206Y616135D01*
X938272Y616136D01*
X938352Y616159D01*
X938384Y616164D01*
X938402Y616174D01*
X938433Y616183D01*
X938486Y616205D01*
X941114Y616205D01*
X941167Y616183D01*
X941231Y616168D01*
X941292Y616143D01*
X941374Y616134D01*
X941406Y616127D01*
X941426Y616128D01*
X941458Y616125D01*
X945432Y616125D01*
X946325Y615232D01*
X946325Y611258D01*
X946332Y611216D01*
X946331Y611207D01*
X946335Y611185D01*
X946336Y611128D01*
X946359Y611048D01*
X946364Y611016D01*
X946374Y610998D01*
X946383Y610967D01*
X946405Y610914D01*
X946405Y585763D01*
X946419Y585673D01*
X946427Y585582D01*
X946439Y585552D01*
X946444Y585520D01*
X946487Y585440D01*
X946523Y585356D01*
X946549Y585324D01*
X946560Y585303D01*
X946583Y585281D01*
X946628Y585225D01*
X947553Y584300D01*
X948945Y580939D01*
X948945Y562061D01*
X947553Y558700D01*
X944980Y556127D01*
X941619Y554735D01*
X937981Y554735D01*
G37*
%LPD*%
%LPC*%
G36*
X1090381Y554735D02*
X1090381Y554735D01*
X1087020Y556127D01*
X1084447Y558700D01*
X1083055Y562061D01*
X1083055Y580939D01*
X1084447Y584300D01*
X1085372Y585225D01*
X1085425Y585299D01*
X1085485Y585368D01*
X1085497Y585398D01*
X1085516Y585425D01*
X1085543Y585512D01*
X1085577Y585596D01*
X1085581Y585637D01*
X1085588Y585660D01*
X1085587Y585692D01*
X1085595Y585763D01*
X1085595Y610914D01*
X1085617Y610967D01*
X1085627Y611009D01*
X1085642Y611041D01*
X1085644Y611061D01*
X1085657Y611092D01*
X1085666Y611174D01*
X1085673Y611206D01*
X1085672Y611226D01*
X1085675Y611258D01*
X1085675Y615232D01*
X1086568Y616125D01*
X1090542Y616125D01*
X1090606Y616135D01*
X1090672Y616136D01*
X1090752Y616159D01*
X1090784Y616164D01*
X1090802Y616174D01*
X1090833Y616183D01*
X1090886Y616205D01*
X1093514Y616205D01*
X1093567Y616183D01*
X1093631Y616168D01*
X1093692Y616143D01*
X1093774Y616134D01*
X1093806Y616127D01*
X1093826Y616128D01*
X1093858Y616125D01*
X1097832Y616125D01*
X1098725Y615232D01*
X1098725Y611258D01*
X1098732Y611216D01*
X1098731Y611207D01*
X1098735Y611185D01*
X1098736Y611128D01*
X1098759Y611048D01*
X1098764Y611016D01*
X1098774Y610998D01*
X1098783Y610967D01*
X1098805Y610914D01*
X1098805Y585763D01*
X1098819Y585673D01*
X1098827Y585582D01*
X1098839Y585552D01*
X1098844Y585520D01*
X1098887Y585440D01*
X1098923Y585356D01*
X1098949Y585324D01*
X1098960Y585303D01*
X1098983Y585281D01*
X1099028Y585225D01*
X1099953Y584300D01*
X1101345Y580939D01*
X1101345Y562061D01*
X1099953Y558700D01*
X1097380Y556127D01*
X1094019Y554735D01*
X1090381Y554735D01*
G37*
%LPD*%
%LPC*%
G36*
X1115781Y554735D02*
X1115781Y554735D01*
X1112420Y556127D01*
X1109847Y558700D01*
X1108455Y562061D01*
X1108455Y580939D01*
X1109847Y584300D01*
X1110772Y585225D01*
X1110825Y585299D01*
X1110885Y585368D01*
X1110897Y585398D01*
X1110916Y585425D01*
X1110943Y585512D01*
X1110977Y585596D01*
X1110981Y585637D01*
X1110988Y585660D01*
X1110987Y585692D01*
X1110995Y585763D01*
X1110995Y610914D01*
X1111017Y610967D01*
X1111027Y611009D01*
X1111042Y611041D01*
X1111044Y611061D01*
X1111057Y611092D01*
X1111066Y611174D01*
X1111073Y611206D01*
X1111072Y611226D01*
X1111075Y611258D01*
X1111075Y615232D01*
X1111968Y616125D01*
X1115942Y616125D01*
X1116006Y616135D01*
X1116072Y616136D01*
X1116152Y616159D01*
X1116184Y616164D01*
X1116202Y616174D01*
X1116233Y616183D01*
X1116286Y616205D01*
X1118914Y616205D01*
X1118967Y616183D01*
X1119031Y616168D01*
X1119092Y616143D01*
X1119174Y616134D01*
X1119206Y616127D01*
X1119226Y616128D01*
X1119258Y616125D01*
X1123232Y616125D01*
X1124125Y615232D01*
X1124125Y611258D01*
X1124132Y611216D01*
X1124131Y611207D01*
X1124135Y611185D01*
X1124136Y611128D01*
X1124159Y611048D01*
X1124164Y611016D01*
X1124174Y610998D01*
X1124183Y610967D01*
X1124205Y610914D01*
X1124205Y585763D01*
X1124219Y585673D01*
X1124227Y585582D01*
X1124239Y585552D01*
X1124244Y585520D01*
X1124287Y585440D01*
X1124323Y585356D01*
X1124349Y585324D01*
X1124360Y585303D01*
X1124383Y585281D01*
X1124428Y585225D01*
X1125353Y584300D01*
X1126745Y580939D01*
X1126745Y562061D01*
X1125353Y558700D01*
X1122780Y556127D01*
X1119419Y554735D01*
X1115781Y554735D01*
G37*
%LPD*%
%LPC*%
G36*
X1039581Y554735D02*
X1039581Y554735D01*
X1036220Y556127D01*
X1033647Y558700D01*
X1032255Y562061D01*
X1032255Y580939D01*
X1033647Y584300D01*
X1034572Y585225D01*
X1034625Y585299D01*
X1034685Y585368D01*
X1034697Y585398D01*
X1034716Y585425D01*
X1034743Y585512D01*
X1034777Y585596D01*
X1034781Y585637D01*
X1034788Y585660D01*
X1034787Y585692D01*
X1034795Y585763D01*
X1034795Y610914D01*
X1034817Y610967D01*
X1034827Y611009D01*
X1034842Y611041D01*
X1034844Y611061D01*
X1034857Y611092D01*
X1034866Y611174D01*
X1034873Y611206D01*
X1034872Y611226D01*
X1034875Y611258D01*
X1034875Y615232D01*
X1035768Y616125D01*
X1039742Y616125D01*
X1039806Y616135D01*
X1039872Y616136D01*
X1039952Y616159D01*
X1039984Y616164D01*
X1040002Y616174D01*
X1040033Y616183D01*
X1040086Y616205D01*
X1042714Y616205D01*
X1042767Y616183D01*
X1042831Y616168D01*
X1042892Y616143D01*
X1042974Y616134D01*
X1043006Y616127D01*
X1043026Y616128D01*
X1043058Y616125D01*
X1047032Y616125D01*
X1047925Y615232D01*
X1047925Y611258D01*
X1047932Y611216D01*
X1047931Y611207D01*
X1047935Y611185D01*
X1047936Y611128D01*
X1047959Y611048D01*
X1047964Y611016D01*
X1047974Y610998D01*
X1047983Y610967D01*
X1048005Y610914D01*
X1048005Y585763D01*
X1048019Y585673D01*
X1048027Y585582D01*
X1048039Y585552D01*
X1048044Y585520D01*
X1048087Y585440D01*
X1048123Y585356D01*
X1048149Y585324D01*
X1048160Y585303D01*
X1048183Y585281D01*
X1048228Y585225D01*
X1049153Y584300D01*
X1050545Y580939D01*
X1050545Y562061D01*
X1049153Y558700D01*
X1046580Y556127D01*
X1043219Y554735D01*
X1039581Y554735D01*
G37*
%LPD*%
%LPC*%
G36*
X1141181Y554735D02*
X1141181Y554735D01*
X1137820Y556127D01*
X1135247Y558700D01*
X1133855Y562061D01*
X1133855Y580939D01*
X1135247Y584300D01*
X1136172Y585225D01*
X1136225Y585299D01*
X1136285Y585368D01*
X1136297Y585398D01*
X1136316Y585425D01*
X1136343Y585512D01*
X1136377Y585596D01*
X1136381Y585637D01*
X1136388Y585660D01*
X1136387Y585692D01*
X1136395Y585763D01*
X1136395Y610914D01*
X1136417Y610967D01*
X1136427Y611009D01*
X1136442Y611041D01*
X1136444Y611061D01*
X1136457Y611092D01*
X1136466Y611174D01*
X1136473Y611206D01*
X1136472Y611226D01*
X1136475Y611258D01*
X1136475Y615232D01*
X1137368Y616125D01*
X1141342Y616125D01*
X1141406Y616135D01*
X1141472Y616136D01*
X1141552Y616159D01*
X1141584Y616164D01*
X1141602Y616174D01*
X1141633Y616183D01*
X1141686Y616205D01*
X1144314Y616205D01*
X1144367Y616183D01*
X1144431Y616168D01*
X1144492Y616143D01*
X1144574Y616134D01*
X1144606Y616127D01*
X1144626Y616128D01*
X1144658Y616125D01*
X1148632Y616125D01*
X1149525Y615232D01*
X1149525Y611258D01*
X1149532Y611216D01*
X1149531Y611207D01*
X1149535Y611185D01*
X1149536Y611128D01*
X1149559Y611048D01*
X1149564Y611016D01*
X1149574Y610998D01*
X1149583Y610967D01*
X1149605Y610914D01*
X1149605Y585763D01*
X1149619Y585673D01*
X1149627Y585582D01*
X1149639Y585552D01*
X1149644Y585520D01*
X1149687Y585440D01*
X1149723Y585356D01*
X1149749Y585324D01*
X1149760Y585303D01*
X1149783Y585281D01*
X1149828Y585225D01*
X1150753Y584300D01*
X1152145Y580939D01*
X1152145Y562061D01*
X1150753Y558700D01*
X1148180Y556127D01*
X1144819Y554735D01*
X1141181Y554735D01*
G37*
%LPD*%
%LPC*%
G36*
X1014181Y554735D02*
X1014181Y554735D01*
X1010820Y556127D01*
X1008247Y558700D01*
X1006855Y562061D01*
X1006855Y580939D01*
X1008247Y584300D01*
X1009172Y585225D01*
X1009225Y585299D01*
X1009285Y585368D01*
X1009297Y585398D01*
X1009316Y585425D01*
X1009343Y585512D01*
X1009377Y585596D01*
X1009381Y585637D01*
X1009388Y585660D01*
X1009387Y585692D01*
X1009395Y585763D01*
X1009395Y610914D01*
X1009417Y610967D01*
X1009427Y611009D01*
X1009442Y611041D01*
X1009444Y611061D01*
X1009457Y611092D01*
X1009466Y611174D01*
X1009473Y611206D01*
X1009472Y611226D01*
X1009475Y611258D01*
X1009475Y615232D01*
X1010368Y616125D01*
X1014342Y616125D01*
X1014406Y616135D01*
X1014472Y616136D01*
X1014552Y616159D01*
X1014584Y616164D01*
X1014602Y616174D01*
X1014633Y616183D01*
X1014686Y616205D01*
X1017314Y616205D01*
X1017367Y616183D01*
X1017431Y616168D01*
X1017492Y616143D01*
X1017574Y616134D01*
X1017606Y616127D01*
X1017626Y616128D01*
X1017658Y616125D01*
X1021632Y616125D01*
X1022525Y615232D01*
X1022525Y611258D01*
X1022532Y611216D01*
X1022531Y611207D01*
X1022535Y611185D01*
X1022536Y611128D01*
X1022559Y611048D01*
X1022564Y611016D01*
X1022574Y610998D01*
X1022583Y610967D01*
X1022605Y610914D01*
X1022605Y585763D01*
X1022619Y585673D01*
X1022627Y585582D01*
X1022639Y585552D01*
X1022644Y585520D01*
X1022687Y585440D01*
X1022723Y585356D01*
X1022749Y585324D01*
X1022760Y585303D01*
X1022783Y585281D01*
X1022828Y585225D01*
X1023753Y584300D01*
X1025145Y580939D01*
X1025145Y562061D01*
X1023753Y558700D01*
X1021180Y556127D01*
X1017819Y554735D01*
X1014181Y554735D01*
G37*
%LPD*%
%LPC*%
G36*
X1064981Y554735D02*
X1064981Y554735D01*
X1061620Y556127D01*
X1059047Y558700D01*
X1057655Y562061D01*
X1057655Y580939D01*
X1059047Y584300D01*
X1059972Y585225D01*
X1060025Y585299D01*
X1060085Y585368D01*
X1060097Y585398D01*
X1060116Y585425D01*
X1060143Y585512D01*
X1060177Y585596D01*
X1060181Y585637D01*
X1060188Y585660D01*
X1060187Y585692D01*
X1060195Y585763D01*
X1060195Y610914D01*
X1060217Y610967D01*
X1060227Y611009D01*
X1060242Y611041D01*
X1060244Y611061D01*
X1060257Y611092D01*
X1060266Y611174D01*
X1060273Y611206D01*
X1060272Y611226D01*
X1060275Y611258D01*
X1060275Y615232D01*
X1061168Y616125D01*
X1065142Y616125D01*
X1065206Y616135D01*
X1065272Y616136D01*
X1065352Y616159D01*
X1065384Y616164D01*
X1065402Y616174D01*
X1065433Y616183D01*
X1065486Y616205D01*
X1068114Y616205D01*
X1068167Y616183D01*
X1068231Y616168D01*
X1068292Y616143D01*
X1068374Y616134D01*
X1068406Y616127D01*
X1068426Y616128D01*
X1068458Y616125D01*
X1072432Y616125D01*
X1073325Y615232D01*
X1073325Y611258D01*
X1073332Y611216D01*
X1073331Y611207D01*
X1073335Y611185D01*
X1073336Y611128D01*
X1073359Y611048D01*
X1073364Y611016D01*
X1073374Y610998D01*
X1073383Y610967D01*
X1073405Y610914D01*
X1073405Y585763D01*
X1073419Y585673D01*
X1073427Y585582D01*
X1073439Y585552D01*
X1073444Y585520D01*
X1073487Y585440D01*
X1073523Y585356D01*
X1073549Y585324D01*
X1073560Y585303D01*
X1073583Y585281D01*
X1073628Y585225D01*
X1074553Y584300D01*
X1075945Y580939D01*
X1075945Y562061D01*
X1074553Y558700D01*
X1071980Y556127D01*
X1068619Y554735D01*
X1064981Y554735D01*
G37*
%LPD*%
%LPC*%
G36*
X1487468Y534075D02*
X1487468Y534075D01*
X1486575Y534968D01*
X1486575Y557232D01*
X1487468Y558125D01*
X1509732Y558125D01*
X1510625Y557232D01*
X1510625Y534968D01*
X1509732Y534075D01*
X1487468Y534075D01*
G37*
%LPD*%
%LPC*%
G36*
X649268Y114975D02*
X649268Y114975D01*
X648375Y115868D01*
X648375Y138132D01*
X649268Y139025D01*
X671532Y139025D01*
X672425Y138132D01*
X672425Y115868D01*
X671532Y114975D01*
X649268Y114975D01*
G37*
%LPD*%
%LPC*%
G36*
X1233468Y114975D02*
X1233468Y114975D01*
X1232575Y115868D01*
X1232575Y138132D01*
X1233468Y139025D01*
X1255732Y139025D01*
X1256625Y138132D01*
X1256625Y115868D01*
X1255732Y114975D01*
X1233468Y114975D01*
G37*
%LPD*%
%LPC*%
G36*
X1293008Y534075D02*
X1293008Y534075D01*
X1288589Y535906D01*
X1285206Y539289D01*
X1283375Y543708D01*
X1283375Y548492D01*
X1285206Y552911D01*
X1288589Y556294D01*
X1293008Y558125D01*
X1297792Y558125D01*
X1302211Y556294D01*
X1305594Y552911D01*
X1307425Y548492D01*
X1307425Y543708D01*
X1305594Y539289D01*
X1302211Y535906D01*
X1297792Y534075D01*
X1293008Y534075D01*
G37*
%LPD*%
%LPC*%
G36*
X1394608Y534075D02*
X1394608Y534075D01*
X1390189Y535906D01*
X1386806Y539289D01*
X1384975Y543708D01*
X1384975Y548492D01*
X1386806Y552911D01*
X1390189Y556294D01*
X1394608Y558125D01*
X1399392Y558125D01*
X1403811Y556294D01*
X1407194Y552911D01*
X1409025Y548492D01*
X1409025Y543708D01*
X1407194Y539289D01*
X1403811Y535906D01*
X1399392Y534075D01*
X1394608Y534075D01*
G37*
%LPD*%
%LPC*%
G36*
X1242208Y534075D02*
X1242208Y534075D01*
X1237789Y535906D01*
X1234406Y539289D01*
X1232575Y543708D01*
X1232575Y548492D01*
X1234406Y552911D01*
X1237789Y556294D01*
X1242208Y558125D01*
X1246992Y558125D01*
X1251411Y556294D01*
X1254794Y552911D01*
X1256625Y548492D01*
X1256625Y543708D01*
X1254794Y539289D01*
X1251411Y535906D01*
X1246992Y534075D01*
X1242208Y534075D01*
G37*
%LPD*%
%LPC*%
G36*
X1343808Y534075D02*
X1343808Y534075D01*
X1339389Y535906D01*
X1336006Y539289D01*
X1334175Y543708D01*
X1334175Y548492D01*
X1336006Y552911D01*
X1339389Y556294D01*
X1343808Y558125D01*
X1348592Y558125D01*
X1353011Y556294D01*
X1356394Y552911D01*
X1358225Y548492D01*
X1358225Y543708D01*
X1356394Y539289D01*
X1353011Y535906D01*
X1348592Y534075D01*
X1343808Y534075D01*
G37*
%LPD*%
%LPC*%
G36*
X1445408Y534075D02*
X1445408Y534075D01*
X1440989Y535906D01*
X1437606Y539289D01*
X1435775Y543708D01*
X1435775Y548492D01*
X1437606Y552911D01*
X1440989Y556294D01*
X1445408Y558125D01*
X1450192Y558125D01*
X1454611Y556294D01*
X1457994Y552911D01*
X1459825Y548492D01*
X1459825Y543708D01*
X1457994Y539289D01*
X1454611Y535906D01*
X1450192Y534075D01*
X1445408Y534075D01*
G37*
%LPD*%
%LPC*%
G36*
X1293008Y114975D02*
X1293008Y114975D01*
X1288589Y116806D01*
X1285206Y120189D01*
X1283375Y124608D01*
X1283375Y129392D01*
X1285206Y133811D01*
X1288589Y137194D01*
X1293008Y139025D01*
X1297792Y139025D01*
X1302211Y137194D01*
X1305594Y133811D01*
X1307425Y129392D01*
X1307425Y124608D01*
X1305594Y120189D01*
X1302211Y116806D01*
X1297792Y114975D01*
X1293008Y114975D01*
G37*
%LPD*%
%LPC*%
G36*
X708808Y114975D02*
X708808Y114975D01*
X704389Y116806D01*
X701006Y120189D01*
X699175Y124608D01*
X699175Y129392D01*
X701006Y133811D01*
X704389Y137194D01*
X708808Y139025D01*
X713592Y139025D01*
X718011Y137194D01*
X721394Y133811D01*
X723225Y129392D01*
X723225Y124608D01*
X721394Y120189D01*
X718011Y116806D01*
X713592Y114975D01*
X708808Y114975D01*
G37*
%LPD*%
%LPC*%
G36*
X1496208Y114975D02*
X1496208Y114975D01*
X1491789Y116806D01*
X1488406Y120189D01*
X1486575Y124608D01*
X1486575Y129392D01*
X1488406Y133811D01*
X1491789Y137194D01*
X1496208Y139025D01*
X1500992Y139025D01*
X1505411Y137194D01*
X1508794Y133811D01*
X1510625Y129392D01*
X1510625Y124608D01*
X1508794Y120189D01*
X1505411Y116806D01*
X1500992Y114975D01*
X1496208Y114975D01*
G37*
%LPD*%
%LPC*%
G36*
X1394608Y114975D02*
X1394608Y114975D01*
X1390189Y116806D01*
X1386806Y120189D01*
X1384975Y124608D01*
X1384975Y129392D01*
X1386806Y133811D01*
X1390189Y137194D01*
X1394608Y139025D01*
X1399392Y139025D01*
X1403811Y137194D01*
X1407194Y133811D01*
X1409025Y129392D01*
X1409025Y124608D01*
X1407194Y120189D01*
X1403811Y116806D01*
X1399392Y114975D01*
X1394608Y114975D01*
G37*
%LPD*%
%LPC*%
G36*
X271218Y270225D02*
X271218Y270225D01*
X270325Y271118D01*
X270325Y287682D01*
X271218Y288575D01*
X287782Y288575D01*
X288675Y287682D01*
X288675Y271118D01*
X287782Y270225D01*
X271218Y270225D01*
G37*
%LPD*%
%LPC*%
G36*
X935854Y389254D02*
X935854Y389254D01*
X930274Y394834D01*
X930274Y402726D01*
X935854Y408306D01*
X943746Y408306D01*
X949326Y402726D01*
X949326Y394834D01*
X943746Y389254D01*
X935854Y389254D01*
G37*
%LPD*%
%LPC*%
G36*
X633275Y524225D02*
X633275Y524225D01*
X629903Y525622D01*
X627322Y528203D01*
X625925Y531575D01*
X625925Y535225D01*
X627322Y538597D01*
X629903Y541178D01*
X633275Y542575D01*
X636925Y542575D01*
X640297Y541178D01*
X642878Y538597D01*
X644275Y535225D01*
X644275Y531575D01*
X642878Y528203D01*
X640297Y525622D01*
X636925Y524225D01*
X633275Y524225D01*
G37*
%LPD*%
%LPC*%
G36*
X480875Y524225D02*
X480875Y524225D01*
X477503Y525622D01*
X474922Y528203D01*
X473525Y531575D01*
X473525Y535225D01*
X474922Y538597D01*
X477503Y541178D01*
X480875Y542575D01*
X484525Y542575D01*
X487897Y541178D01*
X490478Y538597D01*
X491875Y535225D01*
X491875Y531575D01*
X490478Y528203D01*
X487897Y525622D01*
X484525Y524225D01*
X480875Y524225D01*
G37*
%LPD*%
%LPC*%
G36*
X658675Y524225D02*
X658675Y524225D01*
X655303Y525622D01*
X652722Y528203D01*
X651325Y531575D01*
X651325Y535225D01*
X652722Y538597D01*
X655303Y541178D01*
X658675Y542575D01*
X662325Y542575D01*
X665697Y541178D01*
X668278Y538597D01*
X669675Y535225D01*
X669675Y531575D01*
X668278Y528203D01*
X665697Y525622D01*
X662325Y524225D01*
X658675Y524225D01*
G37*
%LPD*%
%LPC*%
G36*
X633275Y270225D02*
X633275Y270225D01*
X629903Y271622D01*
X627322Y274203D01*
X625925Y277575D01*
X625925Y281225D01*
X627322Y284597D01*
X629903Y287178D01*
X633275Y288575D01*
X636925Y288575D01*
X640297Y287178D01*
X642878Y284597D01*
X644275Y281225D01*
X644275Y277575D01*
X642878Y274203D01*
X640297Y271622D01*
X636925Y270225D01*
X633275Y270225D01*
G37*
%LPD*%
%LPC*%
G36*
X684075Y524225D02*
X684075Y524225D01*
X680703Y525622D01*
X678122Y528203D01*
X676725Y531575D01*
X676725Y535225D01*
X678122Y538597D01*
X680703Y541178D01*
X684075Y542575D01*
X687725Y542575D01*
X691097Y541178D01*
X693678Y538597D01*
X695075Y535225D01*
X695075Y531575D01*
X693678Y528203D01*
X691097Y525622D01*
X687725Y524225D01*
X684075Y524225D01*
G37*
%LPD*%
%LPC*%
G36*
X734875Y270225D02*
X734875Y270225D01*
X731503Y271622D01*
X728922Y274203D01*
X727525Y277575D01*
X727525Y281225D01*
X728922Y284597D01*
X731503Y287178D01*
X734875Y288575D01*
X738525Y288575D01*
X741897Y287178D01*
X744478Y284597D01*
X745875Y281225D01*
X745875Y277575D01*
X744478Y274203D01*
X741897Y271622D01*
X738525Y270225D01*
X734875Y270225D01*
G37*
%LPD*%
%LPC*%
G36*
X328475Y270225D02*
X328475Y270225D01*
X325103Y271622D01*
X322522Y274203D01*
X321125Y277575D01*
X321125Y281225D01*
X322522Y284597D01*
X325103Y287178D01*
X328475Y288575D01*
X332125Y288575D01*
X335497Y287178D01*
X338078Y284597D01*
X339475Y281225D01*
X339475Y277575D01*
X338078Y274203D01*
X335497Y271622D01*
X332125Y270225D01*
X328475Y270225D01*
G37*
%LPD*%
%LPC*%
G36*
X303075Y524225D02*
X303075Y524225D01*
X299703Y525622D01*
X297122Y528203D01*
X295725Y531575D01*
X295725Y535225D01*
X297122Y538597D01*
X299703Y541178D01*
X303075Y542575D01*
X306725Y542575D01*
X310097Y541178D01*
X312678Y538597D01*
X314075Y535225D01*
X314075Y531575D01*
X312678Y528203D01*
X310097Y525622D01*
X306725Y524225D01*
X303075Y524225D01*
G37*
%LPD*%
%LPC*%
G36*
X303075Y270225D02*
X303075Y270225D01*
X299703Y271622D01*
X297122Y274203D01*
X295725Y277575D01*
X295725Y281225D01*
X297122Y284597D01*
X299703Y287178D01*
X303075Y288575D01*
X306725Y288575D01*
X310097Y287178D01*
X312678Y284597D01*
X314075Y281225D01*
X314075Y277575D01*
X312678Y274203D01*
X310097Y271622D01*
X306725Y270225D01*
X303075Y270225D01*
G37*
%LPD*%
%LPC*%
G36*
X353875Y270225D02*
X353875Y270225D01*
X350503Y271622D01*
X347922Y274203D01*
X346525Y277575D01*
X346525Y281225D01*
X347922Y284597D01*
X350503Y287178D01*
X353875Y288575D01*
X357525Y288575D01*
X360897Y287178D01*
X363478Y284597D01*
X364875Y281225D01*
X364875Y277575D01*
X363478Y274203D01*
X360897Y271622D01*
X357525Y270225D01*
X353875Y270225D01*
G37*
%LPD*%
%LPC*%
G36*
X379275Y270225D02*
X379275Y270225D01*
X375903Y271622D01*
X373322Y274203D01*
X371925Y277575D01*
X371925Y281225D01*
X373322Y284597D01*
X375903Y287178D01*
X379275Y288575D01*
X382925Y288575D01*
X386297Y287178D01*
X388878Y284597D01*
X390275Y281225D01*
X390275Y277575D01*
X388878Y274203D01*
X386297Y271622D01*
X382925Y270225D01*
X379275Y270225D01*
G37*
%LPD*%
%LPC*%
G36*
X684075Y270225D02*
X684075Y270225D01*
X680703Y271622D01*
X678122Y274203D01*
X676725Y277575D01*
X676725Y281225D01*
X678122Y284597D01*
X680703Y287178D01*
X684075Y288575D01*
X687725Y288575D01*
X691097Y287178D01*
X693678Y284597D01*
X695075Y281225D01*
X695075Y277575D01*
X693678Y274203D01*
X691097Y271622D01*
X687725Y270225D01*
X684075Y270225D01*
G37*
%LPD*%
%LPC*%
G36*
X404675Y270225D02*
X404675Y270225D01*
X401303Y271622D01*
X398722Y274203D01*
X397325Y277575D01*
X397325Y281225D01*
X398722Y284597D01*
X401303Y287178D01*
X404675Y288575D01*
X408325Y288575D01*
X411697Y287178D01*
X414278Y284597D01*
X415675Y281225D01*
X415675Y277575D01*
X414278Y274203D01*
X411697Y271622D01*
X408325Y270225D01*
X404675Y270225D01*
G37*
%LPD*%
%LPC*%
G36*
X557075Y270225D02*
X557075Y270225D01*
X553703Y271622D01*
X551122Y274203D01*
X549725Y277575D01*
X549725Y281225D01*
X551122Y284597D01*
X553703Y287178D01*
X557075Y288575D01*
X560725Y288575D01*
X564097Y287178D01*
X566678Y284597D01*
X568075Y281225D01*
X568075Y277575D01*
X566678Y274203D01*
X564097Y271622D01*
X560725Y270225D01*
X557075Y270225D01*
G37*
%LPD*%
%LPC*%
G36*
X582475Y270225D02*
X582475Y270225D01*
X579103Y271622D01*
X576522Y274203D01*
X575125Y277575D01*
X575125Y281225D01*
X576522Y284597D01*
X579103Y287178D01*
X582475Y288575D01*
X586125Y288575D01*
X589497Y287178D01*
X592078Y284597D01*
X593475Y281225D01*
X593475Y277575D01*
X592078Y274203D01*
X589497Y271622D01*
X586125Y270225D01*
X582475Y270225D01*
G37*
%LPD*%
%LPC*%
G36*
X607875Y270225D02*
X607875Y270225D01*
X604503Y271622D01*
X601922Y274203D01*
X600525Y277575D01*
X600525Y281225D01*
X601922Y284597D01*
X604503Y287178D01*
X607875Y288575D01*
X611525Y288575D01*
X614897Y287178D01*
X617478Y284597D01*
X618875Y281225D01*
X618875Y277575D01*
X617478Y274203D01*
X614897Y271622D01*
X611525Y270225D01*
X607875Y270225D01*
G37*
%LPD*%
%LPC*%
G36*
X658675Y270225D02*
X658675Y270225D01*
X655303Y271622D01*
X652722Y274203D01*
X651325Y277575D01*
X651325Y281225D01*
X652722Y284597D01*
X655303Y287178D01*
X658675Y288575D01*
X662325Y288575D01*
X665697Y287178D01*
X668278Y284597D01*
X669675Y281225D01*
X669675Y277575D01*
X668278Y274203D01*
X665697Y271622D01*
X662325Y270225D01*
X658675Y270225D01*
G37*
%LPD*%
%LPC*%
G36*
X709475Y270225D02*
X709475Y270225D01*
X706103Y271622D01*
X703522Y274203D01*
X702125Y277575D01*
X702125Y281225D01*
X703522Y284597D01*
X706103Y287178D01*
X709475Y288575D01*
X713125Y288575D01*
X716497Y287178D01*
X719078Y284597D01*
X720475Y281225D01*
X720475Y277575D01*
X719078Y274203D01*
X716497Y271622D01*
X713125Y270225D01*
X709475Y270225D01*
G37*
%LPD*%
%LPC*%
G36*
X379275Y524225D02*
X379275Y524225D01*
X375903Y525622D01*
X373322Y528203D01*
X371925Y531575D01*
X371925Y535225D01*
X373322Y538597D01*
X375903Y541178D01*
X379275Y542575D01*
X382925Y542575D01*
X386297Y541178D01*
X388878Y538597D01*
X390275Y535225D01*
X390275Y531575D01*
X388878Y528203D01*
X386297Y525622D01*
X382925Y524225D01*
X379275Y524225D01*
G37*
%LPD*%
%LPC*%
G36*
X734875Y524225D02*
X734875Y524225D01*
X731503Y525622D01*
X728922Y528203D01*
X727525Y531575D01*
X727525Y535225D01*
X728922Y538597D01*
X731503Y541178D01*
X734875Y542575D01*
X738525Y542575D01*
X741897Y541178D01*
X744478Y538597D01*
X745875Y535225D01*
X745875Y531575D01*
X744478Y528203D01*
X741897Y525622D01*
X738525Y524225D01*
X734875Y524225D01*
G37*
%LPD*%
%LPC*%
G36*
X353875Y524225D02*
X353875Y524225D01*
X350503Y525622D01*
X347922Y528203D01*
X346525Y531575D01*
X346525Y535225D01*
X347922Y538597D01*
X350503Y541178D01*
X353875Y542575D01*
X357525Y542575D01*
X360897Y541178D01*
X363478Y538597D01*
X364875Y535225D01*
X364875Y531575D01*
X363478Y528203D01*
X360897Y525622D01*
X357525Y524225D01*
X353875Y524225D01*
G37*
%LPD*%
%LPC*%
G36*
X531675Y524225D02*
X531675Y524225D01*
X528303Y525622D01*
X525722Y528203D01*
X524325Y531575D01*
X524325Y535225D01*
X525722Y538597D01*
X528303Y541178D01*
X531675Y542575D01*
X535325Y542575D01*
X538697Y541178D01*
X541278Y538597D01*
X542675Y535225D01*
X542675Y531575D01*
X541278Y528203D01*
X538697Y525622D01*
X535325Y524225D01*
X531675Y524225D01*
G37*
%LPD*%
%LPC*%
G36*
X709475Y524225D02*
X709475Y524225D01*
X706103Y525622D01*
X703522Y528203D01*
X702125Y531575D01*
X702125Y535225D01*
X703522Y538597D01*
X706103Y541178D01*
X709475Y542575D01*
X713125Y542575D01*
X716497Y541178D01*
X719078Y538597D01*
X720475Y535225D01*
X720475Y531575D01*
X719078Y528203D01*
X716497Y525622D01*
X713125Y524225D01*
X709475Y524225D01*
G37*
%LPD*%
%LPC*%
G36*
X430075Y524225D02*
X430075Y524225D01*
X426703Y525622D01*
X424122Y528203D01*
X422725Y531575D01*
X422725Y535225D01*
X424122Y538597D01*
X426703Y541178D01*
X430075Y542575D01*
X433725Y542575D01*
X437097Y541178D01*
X439678Y538597D01*
X441075Y535225D01*
X441075Y531575D01*
X439678Y528203D01*
X437097Y525622D01*
X433725Y524225D01*
X430075Y524225D01*
G37*
%LPD*%
%LPC*%
G36*
X455475Y524225D02*
X455475Y524225D01*
X452103Y525622D01*
X449522Y528203D01*
X448125Y531575D01*
X448125Y535225D01*
X449522Y538597D01*
X452103Y541178D01*
X455475Y542575D01*
X459125Y542575D01*
X462497Y541178D01*
X465078Y538597D01*
X466475Y535225D01*
X466475Y531575D01*
X465078Y528203D01*
X462497Y525622D01*
X459125Y524225D01*
X455475Y524225D01*
G37*
%LPD*%
%LPC*%
G36*
X506275Y524225D02*
X506275Y524225D01*
X502903Y525622D01*
X500322Y528203D01*
X498925Y531575D01*
X498925Y535225D01*
X500322Y538597D01*
X502903Y541178D01*
X506275Y542575D01*
X509925Y542575D01*
X513297Y541178D01*
X515878Y538597D01*
X517275Y535225D01*
X517275Y531575D01*
X515878Y528203D01*
X513297Y525622D01*
X509925Y524225D01*
X506275Y524225D01*
G37*
%LPD*%
G36*
X714380Y323849D02*
X714380Y323849D01*
X714380Y323850D01*
X714380Y336550D01*
X714376Y336555D01*
X714375Y336555D01*
X706440Y336555D01*
X696916Y346079D01*
X696914Y346079D01*
X696913Y346080D01*
X690563Y346080D01*
X690558Y346076D01*
X690558Y346075D01*
X690558Y342900D01*
X690559Y342898D01*
X690559Y342897D01*
X709609Y323847D01*
X709611Y323846D01*
X709613Y323845D01*
X714375Y323845D01*
X714380Y323849D01*
G37*
G36*
X799184Y461978D02*
X799184Y461978D01*
X799203Y461976D01*
X799305Y461998D01*
X799407Y462014D01*
X799424Y462024D01*
X799444Y462028D01*
X799533Y462081D01*
X799624Y462130D01*
X799638Y462144D01*
X799655Y462154D01*
X799722Y462233D01*
X799794Y462308D01*
X799802Y462326D01*
X799815Y462341D01*
X799854Y462437D01*
X799897Y462531D01*
X799899Y462551D01*
X799907Y462569D01*
X799925Y462736D01*
X799925Y462832D01*
X800105Y463012D01*
X800117Y463028D01*
X800133Y463040D01*
X800189Y463128D01*
X800249Y463211D01*
X800255Y463230D01*
X800266Y463247D01*
X800291Y463348D01*
X800321Y463447D01*
X800321Y463467D01*
X800326Y463486D01*
X800318Y463589D01*
X800315Y463692D01*
X800308Y463711D01*
X800307Y463731D01*
X800266Y463826D01*
X800264Y463833D01*
X800261Y463844D01*
X800257Y463851D01*
X800231Y463923D01*
X800218Y463939D01*
X800210Y463957D01*
X800143Y464041D01*
X800135Y464055D01*
X800126Y464062D01*
X800105Y464088D01*
X799925Y464268D01*
X799925Y464364D01*
X799922Y464384D01*
X799924Y464403D01*
X799902Y464505D01*
X799886Y464607D01*
X799876Y464624D01*
X799872Y464644D01*
X799819Y464733D01*
X799770Y464824D01*
X799756Y464838D01*
X799746Y464855D01*
X799667Y464922D01*
X799592Y464994D01*
X799574Y465002D01*
X799559Y465015D01*
X799463Y465054D01*
X799369Y465097D01*
X799349Y465099D01*
X799331Y465107D01*
X799164Y465125D01*
X728519Y465125D01*
X728448Y465114D01*
X728376Y465112D01*
X728327Y465094D01*
X728276Y465086D01*
X728213Y465052D01*
X728145Y465027D01*
X728105Y464995D01*
X728059Y464970D01*
X728009Y464918D01*
X727953Y464874D01*
X727925Y464830D01*
X727889Y464792D01*
X727859Y464727D01*
X727820Y464667D01*
X727808Y464616D01*
X727786Y464569D01*
X727778Y464498D01*
X727760Y464428D01*
X727764Y464376D01*
X727759Y464325D01*
X727774Y464254D01*
X727779Y464183D01*
X727800Y464135D01*
X727811Y464084D01*
X727848Y464023D01*
X727876Y463957D01*
X727921Y463901D01*
X727937Y463873D01*
X727955Y463858D01*
X727981Y463826D01*
X728275Y463532D01*
X728275Y462736D01*
X728278Y462716D01*
X728276Y462697D01*
X728298Y462595D01*
X728314Y462493D01*
X728324Y462476D01*
X728328Y462456D01*
X728381Y462367D01*
X728430Y462276D01*
X728444Y462262D01*
X728454Y462245D01*
X728533Y462178D01*
X728608Y462106D01*
X728626Y462098D01*
X728641Y462085D01*
X728737Y462046D01*
X728831Y462003D01*
X728851Y462001D01*
X728869Y461993D01*
X729036Y461975D01*
X799164Y461975D01*
X799184Y461978D01*
G37*
G36*
X871510Y-1762D02*
X871510Y-1762D01*
X871607Y-1752D01*
X871631Y-1742D01*
X871657Y-1738D01*
X871743Y-1692D01*
X871832Y-1652D01*
X871851Y-1635D01*
X871874Y-1622D01*
X871941Y-1552D01*
X872013Y-1486D01*
X872025Y-1463D01*
X872043Y-1444D01*
X872084Y-1356D01*
X872131Y-1270D01*
X872136Y-1245D01*
X872147Y-1221D01*
X872158Y-1124D01*
X872175Y-1028D01*
X872171Y-1002D01*
X872174Y-977D01*
X872153Y-881D01*
X872139Y-785D01*
X872127Y-762D01*
X872122Y-736D01*
X872072Y-653D01*
X872028Y-566D01*
X872009Y-547D01*
X871996Y-525D01*
X871922Y-462D01*
X871852Y-394D01*
X871824Y-378D01*
X871809Y-365D01*
X871778Y-353D01*
X871705Y-313D01*
X870295Y271D01*
X866171Y4395D01*
X864303Y8905D01*
X864266Y8966D01*
X864236Y9031D01*
X864201Y9070D01*
X864174Y9114D01*
X864119Y9160D01*
X864070Y9212D01*
X864024Y9238D01*
X863984Y9271D01*
X863917Y9296D01*
X863854Y9331D01*
X863803Y9340D01*
X863755Y9359D01*
X863683Y9362D01*
X863612Y9375D01*
X863561Y9367D01*
X863509Y9369D01*
X863440Y9349D01*
X863369Y9339D01*
X863323Y9315D01*
X863273Y9301D01*
X863214Y9260D01*
X863150Y9227D01*
X863113Y9190D01*
X863071Y9161D01*
X863028Y9103D01*
X862978Y9052D01*
X862943Y8989D01*
X862924Y8963D01*
X862917Y8941D01*
X862897Y8905D01*
X861029Y4395D01*
X856905Y271D01*
X855495Y-313D01*
X855412Y-364D01*
X855326Y-410D01*
X855308Y-428D01*
X855286Y-442D01*
X855224Y-518D01*
X855157Y-588D01*
X855146Y-612D01*
X855129Y-632D01*
X855094Y-723D01*
X855053Y-811D01*
X855050Y-837D01*
X855041Y-861D01*
X855037Y-959D01*
X855026Y-1055D01*
X855031Y-1081D01*
X855030Y-1107D01*
X855058Y-1201D01*
X855078Y-1296D01*
X855092Y-1318D01*
X855099Y-1343D01*
X855154Y-1423D01*
X855204Y-1507D01*
X855224Y-1524D01*
X855239Y-1545D01*
X855317Y-1604D01*
X855391Y-1667D01*
X855416Y-1677D01*
X855437Y-1692D01*
X855529Y-1722D01*
X855619Y-1759D01*
X855652Y-1762D01*
X855670Y-1768D01*
X855703Y-1768D01*
X855786Y-1777D01*
X871414Y-1777D01*
X871510Y-1762D01*
G37*
%LPC*%
G36*
X772813Y401843D02*
X772813Y401843D01*
X770143Y404513D01*
X770143Y408287D01*
X772813Y410957D01*
X776587Y410957D01*
X779257Y408287D01*
X779257Y404513D01*
X776587Y401843D01*
X772813Y401843D01*
G37*
%LPD*%
%LPC*%
G36*
X760113Y401843D02*
X760113Y401843D01*
X757443Y404513D01*
X757443Y408287D01*
X760113Y410957D01*
X763887Y410957D01*
X766557Y408287D01*
X766557Y404513D01*
X763887Y401843D01*
X760113Y401843D01*
G37*
%LPD*%
%LPC*%
G36*
X633113Y401843D02*
X633113Y401843D01*
X630443Y404513D01*
X630443Y408287D01*
X633113Y410957D01*
X636887Y410957D01*
X639557Y408287D01*
X639557Y404513D01*
X636887Y401843D01*
X633113Y401843D01*
G37*
%LPD*%
%LPC*%
G36*
X747413Y401843D02*
X747413Y401843D01*
X744743Y404513D01*
X744743Y408287D01*
X747413Y410957D01*
X751187Y410957D01*
X753857Y408287D01*
X753857Y404513D01*
X751187Y401843D01*
X747413Y401843D01*
G37*
%LPD*%
%LPC*%
G36*
X645813Y401843D02*
X645813Y401843D01*
X643143Y404513D01*
X643143Y408287D01*
X645813Y410957D01*
X649587Y410957D01*
X652257Y408287D01*
X652257Y404513D01*
X649587Y401843D01*
X645813Y401843D01*
G37*
%LPD*%
%LPC*%
G36*
X620413Y401843D02*
X620413Y401843D01*
X617743Y404513D01*
X617743Y408287D01*
X620413Y410957D01*
X624187Y410957D01*
X626857Y408287D01*
X626857Y404513D01*
X624187Y401843D01*
X620413Y401843D01*
G37*
%LPD*%
%LPC*%
G36*
X760113Y414543D02*
X760113Y414543D01*
X757443Y417213D01*
X757443Y420987D01*
X760113Y423657D01*
X763887Y423657D01*
X766557Y420987D01*
X766557Y417213D01*
X763887Y414543D01*
X760113Y414543D01*
G37*
%LPD*%
%LPC*%
G36*
X645813Y389143D02*
X645813Y389143D01*
X643143Y391813D01*
X643143Y395587D01*
X645813Y398257D01*
X649587Y398257D01*
X652257Y395587D01*
X652257Y391813D01*
X649587Y389143D01*
X645813Y389143D01*
G37*
%LPD*%
%LPC*%
G36*
X620413Y389143D02*
X620413Y389143D01*
X617743Y391813D01*
X617743Y395587D01*
X620413Y398257D01*
X624187Y398257D01*
X626857Y395587D01*
X626857Y391813D01*
X624187Y389143D01*
X620413Y389143D01*
G37*
%LPD*%
%LPC*%
G36*
X772813Y389143D02*
X772813Y389143D01*
X770143Y391813D01*
X770143Y395587D01*
X772813Y398257D01*
X776587Y398257D01*
X779257Y395587D01*
X779257Y391813D01*
X776587Y389143D01*
X772813Y389143D01*
G37*
%LPD*%
%LPC*%
G36*
X645813Y414543D02*
X645813Y414543D01*
X643143Y417213D01*
X643143Y420987D01*
X645813Y423657D01*
X649587Y423657D01*
X652257Y420987D01*
X652257Y417213D01*
X649587Y414543D01*
X645813Y414543D01*
G37*
%LPD*%
%LPC*%
G36*
X633113Y389143D02*
X633113Y389143D01*
X630443Y391813D01*
X630443Y395587D01*
X633113Y398257D01*
X636887Y398257D01*
X639557Y395587D01*
X639557Y391813D01*
X636887Y389143D01*
X633113Y389143D01*
G37*
%LPD*%
%LPC*%
G36*
X760113Y389143D02*
X760113Y389143D01*
X757443Y391813D01*
X757443Y395587D01*
X760113Y398257D01*
X763887Y398257D01*
X766557Y395587D01*
X766557Y391813D01*
X763887Y389143D01*
X760113Y389143D01*
G37*
%LPD*%
%LPC*%
G36*
X747413Y389143D02*
X747413Y389143D01*
X744743Y391813D01*
X744743Y395587D01*
X747413Y398257D01*
X751187Y398257D01*
X753857Y395587D01*
X753857Y391813D01*
X751187Y389143D01*
X747413Y389143D01*
G37*
%LPD*%
%LPC*%
G36*
X747413Y414543D02*
X747413Y414543D01*
X744743Y417213D01*
X744743Y420987D01*
X747413Y423657D01*
X751187Y423657D01*
X753857Y420987D01*
X753857Y417213D01*
X751187Y414543D01*
X747413Y414543D01*
G37*
%LPD*%
%LPC*%
G36*
X620413Y414543D02*
X620413Y414543D01*
X617743Y417213D01*
X617743Y420987D01*
X620413Y423657D01*
X624187Y423657D01*
X626857Y420987D01*
X626857Y417213D01*
X624187Y414543D01*
X620413Y414543D01*
G37*
%LPD*%
%LPC*%
G36*
X633113Y414543D02*
X633113Y414543D01*
X630443Y417213D01*
X630443Y420987D01*
X633113Y423657D01*
X636887Y423657D01*
X639557Y420987D01*
X639557Y417213D01*
X636887Y414543D01*
X633113Y414543D01*
G37*
%LPD*%
%LPC*%
G36*
X772813Y414543D02*
X772813Y414543D01*
X770143Y417213D01*
X770143Y420987D01*
X772813Y423657D01*
X776587Y423657D01*
X779257Y420987D01*
X779257Y417213D01*
X776587Y414543D01*
X772813Y414543D01*
G37*
%LPD*%
G36*
X711090Y339102D02*
X711090Y339102D01*
X711161Y339104D01*
X711210Y339122D01*
X711262Y339131D01*
X711325Y339164D01*
X711392Y339189D01*
X711433Y339221D01*
X711479Y339246D01*
X711528Y339298D01*
X711584Y339342D01*
X711613Y339386D01*
X711648Y339424D01*
X711679Y339489D01*
X711717Y339549D01*
X711730Y339600D01*
X711752Y339647D01*
X711760Y339718D01*
X711777Y339788D01*
X711773Y339840D01*
X711779Y339892D01*
X711764Y339961D01*
X711758Y340033D01*
X711738Y340081D01*
X711727Y340132D01*
X711690Y340193D01*
X711662Y340259D01*
X711617Y340315D01*
X711601Y340343D01*
X711583Y340358D01*
X711557Y340390D01*
X710802Y341145D01*
X708725Y343222D01*
X708725Y347881D01*
X708724Y347890D01*
X708724Y347893D01*
X708720Y347911D01*
X708714Y347952D01*
X708712Y348024D01*
X708694Y348073D01*
X708686Y348124D01*
X708652Y348187D01*
X708627Y348255D01*
X708595Y348295D01*
X708570Y348341D01*
X708519Y348391D01*
X708474Y348447D01*
X708430Y348475D01*
X708392Y348511D01*
X708327Y348541D01*
X708267Y348580D01*
X708216Y348592D01*
X708169Y348614D01*
X708098Y348622D01*
X708028Y348640D01*
X707976Y348636D01*
X707925Y348641D01*
X707854Y348626D01*
X707783Y348621D01*
X707735Y348600D01*
X707684Y348589D01*
X707623Y348552D01*
X707557Y348524D01*
X707501Y348479D01*
X707473Y348463D01*
X707458Y348445D01*
X707426Y348419D01*
X707382Y348375D01*
X700043Y348375D01*
X699973Y348364D01*
X699901Y348362D01*
X699852Y348344D01*
X699801Y348336D01*
X699737Y348302D01*
X699670Y348277D01*
X699629Y348245D01*
X699583Y348220D01*
X699534Y348168D01*
X699478Y348124D01*
X699450Y348080D01*
X699414Y348042D01*
X699384Y347977D01*
X699345Y347917D01*
X699332Y347866D01*
X699310Y347819D01*
X699302Y347748D01*
X699285Y347678D01*
X699289Y347626D01*
X699283Y347575D01*
X699298Y347504D01*
X699304Y347433D01*
X699324Y347385D01*
X699335Y347334D01*
X699372Y347273D01*
X699400Y347207D01*
X699445Y347151D01*
X699461Y347123D01*
X699479Y347108D01*
X699505Y347076D01*
X707267Y339314D01*
X707341Y339261D01*
X707410Y339201D01*
X707441Y339189D01*
X707467Y339170D01*
X707554Y339143D01*
X707639Y339109D01*
X707679Y339105D01*
X707702Y339098D01*
X707734Y339099D01*
X707805Y339091D01*
X711019Y339091D01*
X711090Y339102D01*
G37*
D10*
X939800Y363220D03*
D11*
X939800Y398780D03*
D12*
X838200Y190500D03*
D13*
X660400Y127000D03*
D14*
X711200Y127000D03*
D13*
X1244600Y127000D03*
D14*
X1295400Y127000D03*
X1346200Y127000D03*
X1397000Y127000D03*
X1447800Y127000D03*
X1498600Y127000D03*
D13*
X1498600Y546100D03*
D14*
X1447800Y546100D03*
X1397000Y546100D03*
X1346200Y546100D03*
X1295400Y546100D03*
X1244600Y546100D03*
D15*
X279500Y279400D03*
D16*
X304900Y279400D03*
X330300Y279400D03*
X355700Y279400D03*
X381100Y279400D03*
X406500Y279400D03*
X431900Y279400D03*
X457300Y279400D03*
X482700Y279400D03*
X508100Y279400D03*
X533500Y279400D03*
X558900Y279400D03*
X584300Y279400D03*
X609700Y279400D03*
X635100Y279400D03*
X660500Y279400D03*
X685900Y279400D03*
X711300Y279400D03*
X736700Y279400D03*
X736700Y533400D03*
X711300Y533400D03*
X685900Y533400D03*
X660500Y533400D03*
X635100Y533400D03*
X609700Y533400D03*
X584300Y533400D03*
X558900Y533400D03*
X533500Y533400D03*
X508100Y533400D03*
X482700Y533400D03*
X457300Y533400D03*
X431900Y533400D03*
X406500Y533400D03*
X381100Y533400D03*
X355700Y533400D03*
X330300Y533400D03*
X304900Y533400D03*
X279500Y533400D03*
D17*
X723500Y356650D03*
X713500Y356650D03*
X703500Y356650D03*
X693500Y356650D03*
X683500Y356650D03*
X673500Y356650D03*
X673500Y456150D03*
X683500Y456150D03*
X693500Y456150D03*
X703500Y456150D03*
X713500Y456150D03*
X723500Y456150D03*
D18*
X698500Y406400D03*
D12*
X812800Y190500D03*
D19*
X806450Y469900D03*
X806450Y457200D03*
X800100Y381000D03*
X914400Y609600D03*
X939800Y609600D03*
X965200Y609600D03*
X990600Y609600D03*
X1016000Y609600D03*
X1041400Y609600D03*
X1066800Y609600D03*
X1092200Y609600D03*
X1117600Y609600D03*
X1143000Y609600D03*
D20*
X914400Y579120D02*
X914400Y563880D01*
X939800Y563880D02*
X939800Y579120D01*
X965200Y579120D02*
X965200Y563880D01*
X990600Y563880D02*
X990600Y579120D01*
X1016000Y579120D02*
X1016000Y563880D01*
X1041400Y563880D02*
X1041400Y579120D01*
X1066800Y579120D02*
X1066800Y563880D01*
X1092200Y563880D02*
X1092200Y579120D01*
X1117600Y579120D02*
X1117600Y563880D01*
X1143000Y563880D02*
X1143000Y579120D01*
D19*
X800100Y393700D03*
X806450Y482600D03*
X800100Y298450D03*
X800100Y368300D03*
D21*
X622300Y419100D03*
X622300Y406400D03*
X635000Y419100D03*
X647700Y419100D03*
X635000Y406400D03*
X647700Y406400D03*
X622300Y393700D03*
X635000Y393700D03*
X647700Y393700D03*
X749300Y419100D03*
X762000Y419100D03*
X774700Y419100D03*
X749300Y406400D03*
X749300Y406400D03*
X762000Y406400D03*
X762000Y406400D03*
X774700Y406400D03*
X749300Y393700D03*
X762000Y393700D03*
X762000Y393700D03*
X774700Y393700D03*
X774700Y393700D03*
D22*
X939800Y571500D02*
X939800Y609600D01*
D23*
X693500Y356650D02*
X693500Y352699D01*
D24*
X906780Y330200D02*
X939800Y363220D01*
X906780Y330200D02*
X714375Y330200D01*
D25*
X693500Y346075D02*
X693500Y356650D01*
X711200Y330200D02*
X714375Y330200D01*
X800100Y393700D02*
X909320Y393700D01*
X939800Y363220D01*
D23*
X673500Y456150D02*
X673100Y456550D01*
D26*
X1447800Y304800D02*
X1447800Y127000D01*
X927100Y508000D02*
X838200Y508000D01*
X812800Y508000D01*
D27*
X825500Y520700D02*
X838200Y508000D01*
X825500Y520700D02*
X774700Y520700D01*
X751586Y497586D01*
X825500Y495300D02*
X838200Y508000D01*
X825500Y495300D02*
X692150Y495300D01*
D25*
X685800Y501650D02*
X673500Y489350D01*
X673500Y469900D02*
X673500Y456150D01*
X673500Y469900D02*
X673500Y476250D01*
X673500Y482600D01*
X673500Y489350D01*
X692550Y488950D02*
X673500Y469900D01*
X692550Y488950D02*
X698500Y488950D01*
X689175Y491925D02*
X673500Y476250D01*
X689175Y491925D02*
X692150Y494900D01*
X692150Y495300D01*
X682825Y491925D02*
X673500Y482600D01*
X682825Y491925D02*
X689175Y491925D01*
D26*
X927100Y508000D02*
X1066800Y368300D01*
X1384300Y368300D02*
X1447800Y304800D01*
X1384300Y368300D02*
X1066800Y368300D01*
X1346200Y152400D02*
X1346200Y127000D01*
X1346200Y152400D02*
X1206500Y292100D01*
X952500Y292100D01*
X927100Y292100D01*
D25*
X683500Y336550D02*
X683500Y356650D01*
D27*
X939800Y304800D02*
X952500Y292100D01*
X939800Y279400D01*
X749300Y304800D02*
X704850Y304800D01*
X698500Y304800D01*
X749300Y304800D02*
X939800Y304800D01*
X774700Y279400D02*
X749300Y304800D01*
X774700Y279400D02*
X939800Y279400D01*
D25*
X683500Y330200D02*
X683500Y336550D01*
X683500Y330200D02*
X683500Y323850D01*
X683500Y317500D01*
X683500Y307100D01*
X700525Y304800D02*
X704850Y304800D01*
X698500Y304800D02*
X696200Y304800D01*
X683500Y317500D01*
X704850Y311150D02*
X704850Y304800D01*
X704850Y311150D02*
X704850Y315200D01*
X687825Y332225D01*
X683500Y336550D01*
X695325Y307975D02*
X698500Y304800D01*
X695325Y307975D02*
X687825Y315475D01*
X687825Y332225D01*
X683500Y307100D02*
X692150Y298450D01*
X695325Y301625D01*
X695325Y307975D01*
X700525Y313175D02*
X683500Y330200D01*
X700525Y313175D02*
X702550Y311150D01*
X704850Y311150D01*
X694175Y313175D02*
X683500Y323850D01*
X694175Y313175D02*
X700525Y313175D01*
D28*
X793750Y292100D02*
X800100Y298450D01*
X793750Y292100D02*
X787400Y292100D01*
D21*
X711200Y368300D03*
D25*
X713500Y356650D02*
X713500Y345200D01*
X713500Y366000D02*
X711200Y368300D01*
X713500Y366000D02*
X713500Y356650D01*
X713500Y345200D02*
X715800Y342900D01*
X774700Y342900D02*
X800100Y368300D01*
X774700Y342900D02*
X715800Y342900D01*
D22*
X914400Y571500D02*
X914400Y609600D01*
D23*
X431900Y279400D02*
X431850Y279450D01*
D29*
X203200Y355600D03*
D30*
X355700Y355600D01*
X431850Y279450D01*
D23*
X800100Y469900D02*
X806450Y469900D01*
D25*
X713500Y467600D02*
X713500Y456150D01*
X713500Y467600D02*
X715800Y469900D01*
X800100Y469900D01*
X713500Y456150D02*
X713500Y446800D01*
X711200Y444500D01*
X635000Y444500D01*
X609600Y469900D01*
X609700Y470000D01*
X609700Y533400D01*
D29*
X203200Y406400D03*
D30*
X330300Y406400D02*
X457300Y279400D01*
X330300Y406400D02*
X203200Y406400D01*
D23*
X330200Y431800D02*
X330300Y431800D01*
D29*
X203200Y444500D03*
D23*
X317600Y444500D02*
X330300Y431800D01*
X330200Y431800D02*
X482600Y279400D01*
X482700Y279400D01*
D30*
X317600Y444500D02*
X203200Y444500D01*
X317600Y444500D02*
X317600Y444400D01*
X482600Y279400D01*
D23*
X508100Y279400D02*
X317600Y469900D01*
X317500Y469900D01*
D29*
X203200Y482600D03*
D23*
X304900Y482600D02*
X317600Y469900D01*
D30*
X304900Y482600D02*
X508100Y279400D01*
X304900Y482600D02*
X203200Y482600D01*
D23*
X533450Y279450D02*
X533500Y279400D01*
X533450Y279450D02*
X304900Y508000D01*
D29*
X203200Y520700D03*
D30*
X292200Y520700D01*
X533450Y279450D01*
D23*
X723500Y356650D02*
X723500Y367900D01*
X723900Y368300D01*
X723900Y357050D02*
X723500Y356650D01*
X723900Y357050D02*
X723900Y368300D01*
D25*
X558900Y431800D02*
X558900Y533400D01*
X723300Y368300D02*
X723900Y368300D01*
X723300Y368300D02*
X714744Y376856D01*
X613844Y376856D01*
X558900Y431800D01*
X787400Y381000D02*
X800100Y381000D01*
X787400Y381000D02*
X774700Y368300D01*
X723900Y368300D01*
D23*
X800100Y457200D02*
X806450Y457200D01*
D25*
X724550Y457200D02*
X723500Y456150D01*
X724550Y457200D02*
X800100Y457200D01*
X723500Y456150D02*
X723500Y443450D01*
X713274Y433224D01*
X584300Y457200D02*
X584300Y533400D01*
X608276Y433224D02*
X713274Y433224D01*
X608276Y433224D02*
X584300Y457200D01*
D22*
X965200Y571500D02*
X965200Y609600D01*
X965200Y622300D01*
X952500Y635000D01*
X355600Y635000D02*
X330200Y609600D01*
X330200Y533500D01*
X330300Y533400D01*
X355600Y635000D02*
X952500Y635000D01*
X990600Y609600D02*
X990600Y571500D01*
X990600Y558800D01*
X977900Y546100D01*
X800100Y546100D01*
X736600Y609600D01*
X419100Y609600D01*
X406400Y596900D01*
X406400Y546200D01*
X406500Y546100D01*
X406500Y533400D01*
X1016000Y571500D02*
X1016000Y609600D01*
X1041400Y609600D02*
X1041400Y571500D01*
X1066800Y571500D02*
X1066800Y609600D01*
X1092200Y609600D02*
X1092200Y571500D01*
X1117600Y571500D02*
X1117600Y609600D01*
X1143000Y609600D02*
X1143000Y571500D01*
M02*
