G04 EAGLE Gerber RS-274X export*
G75*
%MOMM*%
%FSLAX34Y34*%
%LPD*%
%INSolderpaste Top*%
%IPPOS*%
%AMOC8*
5,1,8,0,0,1.08239X$1,22.5*%
G01*
%ADD10R,1.100000X1.200000*%
%ADD11R,2.600000X1.060000*%
%ADD12R,5.700000X5.632000*%
%ADD13R,1.500000X1.300000*%
%ADD14R,1.300000X1.500000*%
%ADD15R,1.860300X0.897900*%
%ADD16R,1.860300X3.189100*%
%ADD17R,0.420000X0.640000*%
%ADD18R,1.450000X1.150000*%


D10*
X40300Y304800D03*
X61300Y304800D03*
X40300Y482600D03*
X61300Y482600D03*
X40300Y444500D03*
X61300Y444500D03*
X40300Y406400D03*
X61300Y406400D03*
X40300Y355600D03*
X61300Y355600D03*
D11*
X1069200Y53340D03*
D12*
X1003700Y76200D03*
D11*
X1069200Y99060D03*
D13*
X1181100Y491100D03*
X1181100Y474100D03*
D14*
X156600Y406400D03*
X173600Y406400D03*
X156600Y355600D03*
X173600Y355600D03*
X478400Y127000D03*
X461400Y127000D03*
X376800Y127000D03*
X359800Y127000D03*
X275200Y127000D03*
X258200Y127000D03*
X173600Y127000D03*
X156600Y127000D03*
D13*
X1155700Y84700D03*
X1155700Y67700D03*
X1181100Y541900D03*
X1181100Y524900D03*
X1028700Y478400D03*
X1028700Y461400D03*
X1028700Y529200D03*
X1028700Y512200D03*
X1079500Y478400D03*
X1079500Y461400D03*
X1079500Y529200D03*
X1079500Y512200D03*
D14*
X156600Y304800D03*
X173600Y304800D03*
X156600Y482600D03*
X173600Y482600D03*
X156600Y444500D03*
X173600Y444500D03*
D15*
X1008650Y218300D03*
X1008650Y241300D03*
X1008650Y264300D03*
D16*
X947150Y241300D03*
D10*
X40300Y520700D03*
X61300Y520700D03*
D14*
X156600Y520700D03*
X173600Y520700D03*
D17*
X1117600Y83700D03*
X1117600Y68700D03*
D18*
X977900Y168800D03*
X977900Y186800D03*
X977900Y313800D03*
X977900Y295800D03*
M02*
