G04 EAGLE Gerber RS-274X export*
G75*
%MOMM*%
%FSLAX34Y34*%
%LPD*%
%INSoldermask Top*%
%IPPOS*%
%AMOC8*
5,1,8,0,0,1.08239X$1,22.5*%
G01*
%ADD10C,3.203200*%
%ADD11C,1.803400*%
%ADD12P,1.951982X8X112.500000*%
%ADD13R,1.303200X1.403200*%
%ADD14P,2.584314X8X202.500000*%
%ADD15R,2.303200X2.303200*%
%ADD16C,2.303200*%
%ADD17R,2.803200X1.263200*%
%ADD18R,5.903200X5.835200*%
%ADD19R,1.703200X1.503200*%
%ADD20R,1.503200X1.703200*%
%ADD21R,1.727200X0.965200*%
%ADD22R,0.903200X1.703200*%
%ADD23R,1.203200X0.803200*%
%ADD24R,1.203200X1.003200*%
%ADD25C,1.103200*%
%ADD26R,1.203200X1.203200*%
%ADD27R,1.733200X1.733200*%
%ADD28C,1.733200*%
%ADD29R,2.063500X1.101100*%
%ADD30R,2.063500X3.392300*%
%ADD31C,1.727200*%
%ADD32C,3.759200*%
%ADD33C,3.505200*%
%ADD34R,0.623200X0.843200*%
%ADD35R,1.653200X1.353200*%
%ADD36R,1.473200X0.838200*%
%ADD37C,0.809600*%
%ADD38C,0.959600*%


D10*
X76200Y622300D03*
X76200Y63500D03*
X1562100Y342900D03*
D11*
X939800Y363220D03*
D12*
X939800Y398780D03*
D13*
X40300Y304800D03*
X61300Y304800D03*
X40300Y482600D03*
X61300Y482600D03*
X40300Y444500D03*
X61300Y444500D03*
X40300Y406400D03*
X61300Y406400D03*
X40300Y355600D03*
X61300Y355600D03*
D14*
X838200Y190500D03*
D15*
X660400Y127000D03*
D16*
X711200Y127000D03*
D15*
X1244600Y127000D03*
D16*
X1295400Y127000D03*
X1346200Y127000D03*
X1397000Y127000D03*
X1447800Y127000D03*
X1498600Y127000D03*
D15*
X1498600Y546100D03*
D16*
X1447800Y546100D03*
X1397000Y546100D03*
X1346200Y546100D03*
X1295400Y546100D03*
X1244600Y546100D03*
D17*
X1005700Y66040D03*
D18*
X940200Y88900D03*
D17*
X1005700Y111760D03*
D19*
X1181100Y491100D03*
X1181100Y474100D03*
D20*
X156600Y406400D03*
X173600Y406400D03*
X156600Y355600D03*
X173600Y355600D03*
X478400Y127000D03*
X461400Y127000D03*
X376800Y127000D03*
X359800Y127000D03*
X275200Y127000D03*
X258200Y127000D03*
X173600Y127000D03*
X156600Y127000D03*
D19*
X1092200Y97400D03*
X1092200Y80400D03*
X1181100Y541900D03*
X1181100Y524900D03*
X1028700Y478400D03*
X1028700Y461400D03*
X1028700Y529200D03*
X1028700Y512200D03*
X1079500Y478400D03*
X1079500Y461400D03*
X1079500Y529200D03*
X1079500Y512200D03*
D20*
X156600Y304800D03*
X173600Y304800D03*
X156600Y482600D03*
X173600Y482600D03*
X156600Y444500D03*
X173600Y444500D03*
D21*
X441960Y82550D03*
X497840Y82550D03*
X441960Y44450D03*
X497840Y44450D03*
X340360Y82550D03*
X396240Y82550D03*
X340360Y44450D03*
X396240Y44450D03*
X238760Y82550D03*
X294640Y82550D03*
X238760Y44450D03*
X294640Y44450D03*
X137160Y82550D03*
X193040Y82550D03*
X137160Y44450D03*
X193040Y44450D03*
D22*
X886100Y30200D03*
X871100Y30200D03*
X841100Y30200D03*
D23*
X900100Y2700D03*
D24*
X900100Y23700D03*
D23*
X827100Y2700D03*
D24*
X827100Y23700D03*
D25*
X878600Y12700D03*
X848600Y12700D03*
D26*
X1244600Y495300D03*
X1346200Y495300D03*
X1295400Y495300D03*
X1447800Y495300D03*
X279400Y254000D03*
X304800Y254000D03*
X330200Y254000D03*
X355600Y254000D03*
X381000Y254000D03*
X406400Y254000D03*
X431800Y254000D03*
X1244600Y177800D03*
X457200Y254000D03*
X482600Y254000D03*
X508000Y254000D03*
X533400Y254000D03*
X558800Y254000D03*
X584200Y254000D03*
X1397000Y495300D03*
X635000Y254000D03*
X660400Y254000D03*
X685800Y254000D03*
X1346200Y177800D03*
X711200Y254000D03*
X1498600Y495300D03*
X279400Y558800D03*
X304800Y558800D03*
X330200Y558800D03*
X355600Y558800D03*
X381000Y558800D03*
X406400Y558800D03*
X431800Y558800D03*
X457200Y558800D03*
X1397000Y177800D03*
X482600Y558800D03*
X508000Y558800D03*
X533400Y558800D03*
X558800Y558800D03*
X584200Y558800D03*
X609600Y558800D03*
X635000Y558800D03*
X660400Y558800D03*
X685800Y558800D03*
X711200Y558800D03*
X1447800Y177800D03*
X736600Y558800D03*
X1498600Y177800D03*
X1295400Y177800D03*
X736600Y254000D03*
X609600Y254000D03*
D27*
X279500Y279400D03*
D28*
X304900Y279400D03*
X330300Y279400D03*
X355700Y279400D03*
X381100Y279400D03*
X406500Y279400D03*
X431900Y279400D03*
X457300Y279400D03*
X482700Y279400D03*
X508100Y279400D03*
X533500Y279400D03*
X558900Y279400D03*
X584300Y279400D03*
X609700Y279400D03*
X635100Y279400D03*
X660500Y279400D03*
X685900Y279400D03*
X711300Y279400D03*
X736700Y279400D03*
X736700Y533400D03*
X711300Y533400D03*
X685900Y533400D03*
X660500Y533400D03*
X635100Y533400D03*
X609700Y533400D03*
X584300Y533400D03*
X558900Y533400D03*
X533500Y533400D03*
X508100Y533400D03*
X482700Y533400D03*
X457300Y533400D03*
X431900Y533400D03*
X406500Y533400D03*
X381100Y533400D03*
X355700Y533400D03*
X330300Y533400D03*
X304900Y533400D03*
X279500Y533400D03*
D29*
X1008650Y218300D03*
X1008650Y241300D03*
X1008650Y264300D03*
D30*
X947150Y241300D03*
D14*
X812800Y190500D03*
D31*
X914400Y563880D02*
X914400Y579120D01*
X939800Y579120D02*
X939800Y563880D01*
X965200Y563880D02*
X965200Y579120D01*
X990600Y579120D02*
X990600Y563880D01*
X1016000Y563880D02*
X1016000Y579120D01*
X1041400Y579120D02*
X1041400Y563880D01*
X1066800Y563880D02*
X1066800Y579120D01*
X1092200Y579120D02*
X1092200Y563880D01*
X1117600Y563880D02*
X1117600Y579120D01*
X1143000Y579120D02*
X1143000Y563880D01*
D32*
X914400Y444500D03*
D33*
X1142873Y444246D03*
D13*
X40300Y520700D03*
X61300Y520700D03*
D20*
X156600Y520700D03*
X173600Y520700D03*
D34*
X1054100Y96400D03*
X1054100Y81400D03*
D35*
X977900Y168800D03*
X977900Y186800D03*
X977900Y313800D03*
X977900Y295800D03*
D36*
X1143000Y604520D03*
X1143000Y614680D03*
D37*
X622300Y419100D03*
X622300Y406400D03*
X635000Y419100D03*
X647700Y419100D03*
X635000Y406400D03*
X647700Y406400D03*
X622300Y393700D03*
X635000Y393700D03*
X647700Y393700D03*
X749300Y419100D03*
X762000Y419100D03*
X774700Y419100D03*
X749300Y406400D03*
X749300Y406400D03*
X762000Y406400D03*
X762000Y406400D03*
X774700Y406400D03*
X749300Y393700D03*
X762000Y393700D03*
X762000Y393700D03*
X774700Y393700D03*
X774700Y393700D03*
X711200Y368300D03*
D38*
X203200Y355600D03*
X203200Y406400D03*
X203200Y444500D03*
X203200Y482600D03*
X203200Y520700D03*
M02*
