G04 EAGLE Gerber RS-274X export*
G75*
%MOMM*%
%FSLAX34Y34*%
%LPD*%
%INSoldermask Bottom*%
%IPPOS*%
%AMOC8*
5,1,8,0,0,1.08239X$1,22.5*%
G01*
%ADD10C,3.403200*%
%ADD11C,2.003400*%
%ADD12P,2.168460X8X112.500000*%
%ADD13P,2.800792X8X202.500000*%
%ADD14R,2.503200X2.503200*%
%ADD15C,2.503200*%
%ADD16R,1.933200X1.933200*%
%ADD17C,1.933200*%
%ADD18R,1.053200X1.753200*%
%ADD19R,1.403200X1.403200*%
%ADD20C,1.927200*%
%ADD21C,3.959200*%
%ADD22C,3.705200*%
%ADD23C,3.178200*%
%ADD24C,1.009600*%
%ADD25C,1.159600*%

G36*
X725047Y383387D02*
X725047Y383387D01*
X725042Y383394D01*
X725049Y383400D01*
X725049Y396351D01*
X738500Y396351D01*
X738547Y396387D01*
X738546Y396388D01*
X738547Y396389D01*
X738543Y396395D01*
X738549Y396400D01*
X738549Y416400D01*
X738513Y416447D01*
X738506Y416442D01*
X738500Y416449D01*
X725049Y416449D01*
X725049Y429400D01*
X725013Y429447D01*
X725006Y429442D01*
X725000Y429449D01*
X672000Y429449D01*
X671953Y429413D01*
X671958Y429406D01*
X671951Y429400D01*
X671951Y416449D01*
X658500Y416449D01*
X658453Y416413D01*
X658454Y416412D01*
X658453Y416411D01*
X658457Y416405D01*
X658451Y416400D01*
X658451Y396400D01*
X658487Y396353D01*
X658494Y396358D01*
X658500Y396351D01*
X671951Y396351D01*
X671951Y383400D01*
X671987Y383353D01*
X671994Y383358D01*
X672000Y383351D01*
X725000Y383351D01*
X725047Y383387D01*
G37*
G36*
X362949Y89590D02*
X362949Y89590D01*
X362996Y89603D01*
X363071Y89613D01*
X364688Y90091D01*
X364716Y90105D01*
X364737Y90109D01*
X364761Y90123D01*
X364803Y90137D01*
X366295Y90921D01*
X366333Y90951D01*
X366399Y90989D01*
X367710Y92049D01*
X367741Y92085D01*
X367798Y92136D01*
X368877Y93431D01*
X368901Y93473D01*
X368947Y93534D01*
X369753Y95015D01*
X369768Y95060D01*
X369801Y95129D01*
X370302Y96738D01*
X370308Y96786D01*
X370327Y96860D01*
X370502Y98513D01*
X370549Y98769D01*
X370549Y98791D01*
X370556Y98951D01*
X370371Y100669D01*
X370358Y100715D01*
X370346Y100790D01*
X369830Y102439D01*
X369808Y102482D01*
X369782Y102553D01*
X368954Y104070D01*
X368924Y104108D01*
X368884Y104173D01*
X367777Y105499D01*
X367740Y105530D01*
X367688Y105586D01*
X366343Y106670D01*
X366301Y106693D01*
X366239Y106739D01*
X364708Y107540D01*
X364662Y107554D01*
X364593Y107586D01*
X362936Y108074D01*
X362888Y108079D01*
X362814Y108097D01*
X361345Y108229D01*
X361317Y108245D01*
X361278Y108251D01*
X361241Y108266D01*
X361145Y108271D01*
X361095Y108279D01*
X361075Y108276D01*
X361054Y108277D01*
X359363Y108125D01*
X359317Y108112D01*
X359241Y108102D01*
X357612Y107623D01*
X357569Y107602D01*
X357497Y107576D01*
X355993Y106789D01*
X355955Y106760D01*
X355889Y106721D01*
X354567Y105655D01*
X354535Y105619D01*
X354478Y105568D01*
X353389Y104265D01*
X353366Y104224D01*
X353319Y104163D01*
X352506Y102672D01*
X352491Y102627D01*
X352457Y102558D01*
X351950Y100938D01*
X351944Y100890D01*
X351925Y100816D01*
X351744Y99133D01*
X351720Y98935D01*
X351722Y98884D01*
X351718Y98793D01*
X351891Y97084D01*
X351905Y97038D01*
X351916Y96962D01*
X352419Y95320D01*
X352441Y95277D01*
X352467Y95205D01*
X353281Y93692D01*
X353311Y93655D01*
X353351Y93589D01*
X354444Y92265D01*
X354481Y92233D01*
X354532Y92177D01*
X355863Y91091D01*
X355906Y91068D01*
X355967Y91022D01*
X357484Y90217D01*
X357530Y90202D01*
X357599Y90170D01*
X357842Y90097D01*
X357843Y90097D01*
X359245Y89676D01*
X359292Y89670D01*
X359367Y89652D01*
X360954Y89500D01*
X360971Y89494D01*
X361065Y89452D01*
X361075Y89452D01*
X361083Y89448D01*
X361270Y89437D01*
X362949Y89590D01*
G37*
G36*
X261349Y89590D02*
X261349Y89590D01*
X261396Y89603D01*
X261471Y89613D01*
X263088Y90091D01*
X263116Y90105D01*
X263137Y90109D01*
X263161Y90123D01*
X263203Y90137D01*
X264695Y90921D01*
X264733Y90951D01*
X264799Y90989D01*
X266110Y92049D01*
X266141Y92085D01*
X266198Y92136D01*
X267277Y93431D01*
X267301Y93473D01*
X267347Y93534D01*
X268153Y95015D01*
X268168Y95060D01*
X268201Y95129D01*
X268702Y96738D01*
X268708Y96786D01*
X268727Y96860D01*
X268902Y98513D01*
X268949Y98769D01*
X268949Y98791D01*
X268956Y98951D01*
X268771Y100669D01*
X268758Y100715D01*
X268746Y100790D01*
X268230Y102439D01*
X268208Y102482D01*
X268182Y102553D01*
X267354Y104070D01*
X267324Y104108D01*
X267284Y104173D01*
X266177Y105499D01*
X266140Y105530D01*
X266088Y105586D01*
X264743Y106670D01*
X264701Y106693D01*
X264639Y106739D01*
X263108Y107540D01*
X263062Y107554D01*
X262993Y107586D01*
X261336Y108074D01*
X261288Y108079D01*
X261214Y108097D01*
X259745Y108229D01*
X259717Y108245D01*
X259678Y108251D01*
X259641Y108266D01*
X259545Y108271D01*
X259495Y108279D01*
X259475Y108276D01*
X259454Y108277D01*
X257763Y108125D01*
X257717Y108112D01*
X257641Y108102D01*
X256012Y107623D01*
X255969Y107602D01*
X255897Y107576D01*
X254393Y106789D01*
X254355Y106760D01*
X254289Y106721D01*
X252967Y105655D01*
X252935Y105619D01*
X252878Y105568D01*
X251789Y104265D01*
X251766Y104224D01*
X251719Y104163D01*
X250906Y102672D01*
X250891Y102627D01*
X250857Y102558D01*
X250350Y100938D01*
X250344Y100890D01*
X250325Y100816D01*
X250144Y99133D01*
X250120Y98935D01*
X250122Y98884D01*
X250118Y98793D01*
X250291Y97084D01*
X250305Y97038D01*
X250316Y96962D01*
X250819Y95320D01*
X250841Y95277D01*
X250867Y95205D01*
X251681Y93692D01*
X251711Y93655D01*
X251751Y93589D01*
X252844Y92265D01*
X252881Y92233D01*
X252932Y92177D01*
X254263Y91091D01*
X254306Y91068D01*
X254367Y91022D01*
X255884Y90217D01*
X255930Y90202D01*
X255999Y90170D01*
X256242Y90097D01*
X256243Y90097D01*
X257645Y89676D01*
X257692Y89670D01*
X257767Y89652D01*
X259354Y89500D01*
X259371Y89494D01*
X259465Y89452D01*
X259475Y89452D01*
X259483Y89448D01*
X259670Y89437D01*
X261349Y89590D01*
G37*
G36*
X464549Y89590D02*
X464549Y89590D01*
X464596Y89603D01*
X464671Y89613D01*
X466288Y90091D01*
X466316Y90105D01*
X466337Y90109D01*
X466361Y90123D01*
X466403Y90137D01*
X467895Y90921D01*
X467933Y90951D01*
X467999Y90989D01*
X469310Y92049D01*
X469341Y92085D01*
X469398Y92136D01*
X470477Y93431D01*
X470501Y93473D01*
X470547Y93534D01*
X471353Y95015D01*
X471368Y95060D01*
X471401Y95129D01*
X471902Y96738D01*
X471908Y96786D01*
X471927Y96860D01*
X472102Y98513D01*
X472149Y98769D01*
X472149Y98791D01*
X472156Y98951D01*
X471971Y100669D01*
X471958Y100715D01*
X471946Y100790D01*
X471430Y102439D01*
X471408Y102482D01*
X471382Y102553D01*
X470554Y104070D01*
X470524Y104108D01*
X470484Y104173D01*
X469377Y105499D01*
X469340Y105530D01*
X469288Y105586D01*
X467943Y106670D01*
X467901Y106693D01*
X467839Y106739D01*
X466308Y107540D01*
X466262Y107554D01*
X466193Y107586D01*
X464536Y108074D01*
X464488Y108079D01*
X464414Y108097D01*
X462945Y108229D01*
X462917Y108245D01*
X462878Y108251D01*
X462841Y108266D01*
X462745Y108271D01*
X462695Y108279D01*
X462675Y108276D01*
X462654Y108277D01*
X460963Y108125D01*
X460917Y108112D01*
X460841Y108102D01*
X459212Y107623D01*
X459169Y107602D01*
X459097Y107576D01*
X457593Y106789D01*
X457555Y106760D01*
X457489Y106721D01*
X456167Y105655D01*
X456135Y105619D01*
X456078Y105568D01*
X454989Y104265D01*
X454966Y104224D01*
X454919Y104163D01*
X454106Y102672D01*
X454091Y102627D01*
X454057Y102558D01*
X453550Y100938D01*
X453544Y100890D01*
X453525Y100816D01*
X453344Y99133D01*
X453320Y98935D01*
X453322Y98884D01*
X453318Y98793D01*
X453491Y97084D01*
X453505Y97038D01*
X453516Y96962D01*
X454019Y95320D01*
X454041Y95277D01*
X454067Y95205D01*
X454881Y93692D01*
X454911Y93655D01*
X454951Y93589D01*
X456044Y92265D01*
X456081Y92233D01*
X456132Y92177D01*
X457463Y91091D01*
X457506Y91068D01*
X457567Y91022D01*
X459084Y90217D01*
X459130Y90202D01*
X459199Y90170D01*
X459442Y90097D01*
X459443Y90097D01*
X460845Y89676D01*
X460892Y89670D01*
X460967Y89652D01*
X462554Y89500D01*
X462571Y89494D01*
X462665Y89452D01*
X462675Y89452D01*
X462683Y89448D01*
X462870Y89437D01*
X464549Y89590D01*
G37*
G36*
X159749Y89590D02*
X159749Y89590D01*
X159796Y89603D01*
X159871Y89613D01*
X161488Y90091D01*
X161516Y90105D01*
X161537Y90109D01*
X161561Y90123D01*
X161603Y90137D01*
X163095Y90921D01*
X163133Y90951D01*
X163199Y90989D01*
X164510Y92049D01*
X164541Y92085D01*
X164598Y92136D01*
X165677Y93431D01*
X165701Y93473D01*
X165747Y93534D01*
X166553Y95015D01*
X166568Y95060D01*
X166601Y95129D01*
X167102Y96738D01*
X167108Y96786D01*
X167127Y96860D01*
X167302Y98513D01*
X167349Y98769D01*
X167349Y98791D01*
X167356Y98951D01*
X167171Y100669D01*
X167158Y100715D01*
X167146Y100790D01*
X166630Y102439D01*
X166608Y102482D01*
X166582Y102553D01*
X165754Y104070D01*
X165724Y104108D01*
X165684Y104173D01*
X164577Y105499D01*
X164540Y105530D01*
X164488Y105586D01*
X163143Y106670D01*
X163101Y106693D01*
X163039Y106739D01*
X161508Y107540D01*
X161462Y107554D01*
X161393Y107586D01*
X159736Y108074D01*
X159688Y108079D01*
X159614Y108097D01*
X158145Y108229D01*
X158117Y108245D01*
X158078Y108251D01*
X158041Y108266D01*
X157945Y108271D01*
X157895Y108279D01*
X157875Y108276D01*
X157854Y108277D01*
X156163Y108125D01*
X156117Y108112D01*
X156041Y108102D01*
X154412Y107623D01*
X154369Y107602D01*
X154297Y107576D01*
X152793Y106789D01*
X152755Y106760D01*
X152689Y106721D01*
X151367Y105655D01*
X151335Y105619D01*
X151278Y105568D01*
X150189Y104265D01*
X150166Y104224D01*
X150119Y104163D01*
X149306Y102672D01*
X149291Y102627D01*
X149257Y102558D01*
X148750Y100938D01*
X148744Y100890D01*
X148725Y100816D01*
X148544Y99133D01*
X148520Y98935D01*
X148522Y98884D01*
X148518Y98793D01*
X148691Y97084D01*
X148705Y97038D01*
X148716Y96962D01*
X149219Y95320D01*
X149241Y95277D01*
X149267Y95205D01*
X150081Y93692D01*
X150111Y93655D01*
X150151Y93589D01*
X151244Y92265D01*
X151281Y92233D01*
X151332Y92177D01*
X152663Y91091D01*
X152706Y91068D01*
X152767Y91022D01*
X154284Y90217D01*
X154330Y90202D01*
X154399Y90170D01*
X154642Y90097D01*
X154643Y90097D01*
X156045Y89676D01*
X156092Y89670D01*
X156167Y89652D01*
X157754Y89500D01*
X157771Y89494D01*
X157865Y89452D01*
X157875Y89452D01*
X157883Y89448D01*
X158070Y89437D01*
X159749Y89590D01*
G37*
G36*
X428024Y89565D02*
X428024Y89565D01*
X428071Y89578D01*
X428146Y89588D01*
X429763Y90066D01*
X429791Y90080D01*
X429812Y90084D01*
X429836Y90098D01*
X429878Y90112D01*
X431370Y90896D01*
X431408Y90926D01*
X431474Y90964D01*
X432785Y92024D01*
X432816Y92060D01*
X432873Y92111D01*
X433952Y93406D01*
X433976Y93448D01*
X434022Y93509D01*
X434828Y94990D01*
X434843Y95035D01*
X434876Y95104D01*
X435377Y96713D01*
X435383Y96761D01*
X435402Y96835D01*
X435577Y98488D01*
X435624Y98744D01*
X435624Y98766D01*
X435631Y98926D01*
X435446Y100644D01*
X435433Y100690D01*
X435421Y100765D01*
X434905Y102414D01*
X434883Y102457D01*
X434857Y102528D01*
X434029Y104045D01*
X433999Y104083D01*
X433959Y104148D01*
X432852Y105474D01*
X432815Y105505D01*
X432763Y105561D01*
X431418Y106645D01*
X431376Y106668D01*
X431314Y106714D01*
X429783Y107515D01*
X429737Y107529D01*
X429668Y107561D01*
X428011Y108049D01*
X427963Y108054D01*
X427889Y108072D01*
X426420Y108204D01*
X426392Y108220D01*
X426353Y108226D01*
X426316Y108241D01*
X426220Y108246D01*
X426170Y108254D01*
X426150Y108251D01*
X426129Y108252D01*
X424438Y108100D01*
X424392Y108087D01*
X424316Y108077D01*
X422687Y107598D01*
X422644Y107577D01*
X422572Y107551D01*
X421068Y106764D01*
X421030Y106735D01*
X420964Y106696D01*
X419642Y105630D01*
X419610Y105594D01*
X419553Y105543D01*
X418464Y104240D01*
X418441Y104199D01*
X418394Y104138D01*
X417581Y102647D01*
X417566Y102602D01*
X417532Y102533D01*
X417025Y100913D01*
X417019Y100865D01*
X417000Y100791D01*
X416819Y99108D01*
X416795Y98910D01*
X416797Y98859D01*
X416793Y98768D01*
X416966Y97059D01*
X416980Y97013D01*
X416991Y96937D01*
X417494Y95295D01*
X417516Y95252D01*
X417542Y95180D01*
X418356Y93667D01*
X418386Y93630D01*
X418426Y93564D01*
X419519Y92240D01*
X419556Y92208D01*
X419607Y92152D01*
X420938Y91066D01*
X420981Y91043D01*
X421042Y90997D01*
X422559Y90192D01*
X422605Y90177D01*
X422674Y90145D01*
X422917Y90072D01*
X422918Y90072D01*
X424320Y89651D01*
X424367Y89645D01*
X424442Y89627D01*
X426029Y89475D01*
X426046Y89469D01*
X426140Y89427D01*
X426150Y89427D01*
X426158Y89423D01*
X426345Y89412D01*
X428024Y89565D01*
G37*
G36*
X326424Y89565D02*
X326424Y89565D01*
X326471Y89578D01*
X326546Y89588D01*
X328163Y90066D01*
X328191Y90080D01*
X328212Y90084D01*
X328236Y90098D01*
X328278Y90112D01*
X329770Y90896D01*
X329808Y90926D01*
X329874Y90964D01*
X331185Y92024D01*
X331216Y92060D01*
X331273Y92111D01*
X332352Y93406D01*
X332376Y93448D01*
X332422Y93509D01*
X333228Y94990D01*
X333243Y95035D01*
X333276Y95104D01*
X333777Y96713D01*
X333783Y96761D01*
X333802Y96835D01*
X333977Y98488D01*
X334024Y98744D01*
X334024Y98766D01*
X334031Y98926D01*
X333846Y100644D01*
X333833Y100690D01*
X333821Y100765D01*
X333305Y102414D01*
X333283Y102457D01*
X333257Y102528D01*
X332429Y104045D01*
X332399Y104083D01*
X332359Y104148D01*
X331252Y105474D01*
X331215Y105505D01*
X331163Y105561D01*
X329818Y106645D01*
X329776Y106668D01*
X329714Y106714D01*
X328183Y107515D01*
X328137Y107529D01*
X328068Y107561D01*
X326411Y108049D01*
X326363Y108054D01*
X326289Y108072D01*
X324820Y108204D01*
X324792Y108220D01*
X324753Y108226D01*
X324716Y108241D01*
X324620Y108246D01*
X324570Y108254D01*
X324550Y108251D01*
X324529Y108252D01*
X322838Y108100D01*
X322792Y108087D01*
X322716Y108077D01*
X321087Y107598D01*
X321044Y107577D01*
X320972Y107551D01*
X319468Y106764D01*
X319430Y106735D01*
X319364Y106696D01*
X318042Y105630D01*
X318010Y105594D01*
X317953Y105543D01*
X316864Y104240D01*
X316841Y104199D01*
X316794Y104138D01*
X315981Y102647D01*
X315966Y102602D01*
X315932Y102533D01*
X315425Y100913D01*
X315419Y100865D01*
X315400Y100791D01*
X315219Y99108D01*
X315195Y98910D01*
X315197Y98859D01*
X315193Y98768D01*
X315366Y97059D01*
X315380Y97013D01*
X315391Y96937D01*
X315894Y95295D01*
X315916Y95252D01*
X315942Y95180D01*
X316756Y93667D01*
X316786Y93630D01*
X316826Y93564D01*
X317919Y92240D01*
X317956Y92208D01*
X318007Y92152D01*
X319338Y91066D01*
X319381Y91043D01*
X319442Y90997D01*
X320959Y90192D01*
X321005Y90177D01*
X321074Y90145D01*
X321317Y90072D01*
X321318Y90072D01*
X322720Y89651D01*
X322767Y89645D01*
X322842Y89627D01*
X324429Y89475D01*
X324446Y89469D01*
X324540Y89427D01*
X324550Y89427D01*
X324558Y89423D01*
X324745Y89412D01*
X326424Y89565D01*
G37*
G36*
X224824Y89565D02*
X224824Y89565D01*
X224871Y89578D01*
X224946Y89588D01*
X226563Y90066D01*
X226591Y90080D01*
X226612Y90084D01*
X226636Y90098D01*
X226678Y90112D01*
X228170Y90896D01*
X228208Y90926D01*
X228274Y90964D01*
X229585Y92024D01*
X229616Y92060D01*
X229673Y92111D01*
X230752Y93406D01*
X230776Y93448D01*
X230822Y93509D01*
X231628Y94990D01*
X231643Y95035D01*
X231676Y95104D01*
X232177Y96713D01*
X232183Y96761D01*
X232202Y96835D01*
X232377Y98488D01*
X232424Y98744D01*
X232424Y98766D01*
X232431Y98926D01*
X232246Y100644D01*
X232233Y100690D01*
X232221Y100765D01*
X231705Y102414D01*
X231683Y102457D01*
X231657Y102528D01*
X230829Y104045D01*
X230799Y104083D01*
X230759Y104148D01*
X229652Y105474D01*
X229615Y105505D01*
X229563Y105561D01*
X228218Y106645D01*
X228176Y106668D01*
X228114Y106714D01*
X226583Y107515D01*
X226537Y107529D01*
X226468Y107561D01*
X224811Y108049D01*
X224763Y108054D01*
X224689Y108072D01*
X223220Y108204D01*
X223192Y108220D01*
X223153Y108226D01*
X223116Y108241D01*
X223020Y108246D01*
X222970Y108254D01*
X222950Y108251D01*
X222929Y108252D01*
X221238Y108100D01*
X221192Y108087D01*
X221116Y108077D01*
X219487Y107598D01*
X219444Y107577D01*
X219372Y107551D01*
X217868Y106764D01*
X217830Y106735D01*
X217764Y106696D01*
X216442Y105630D01*
X216410Y105594D01*
X216353Y105543D01*
X215264Y104240D01*
X215241Y104199D01*
X215194Y104138D01*
X214381Y102647D01*
X214366Y102602D01*
X214332Y102533D01*
X213825Y100913D01*
X213819Y100865D01*
X213800Y100791D01*
X213619Y99108D01*
X213595Y98910D01*
X213597Y98859D01*
X213593Y98768D01*
X213766Y97059D01*
X213780Y97013D01*
X213791Y96937D01*
X214294Y95295D01*
X214316Y95252D01*
X214342Y95180D01*
X215156Y93667D01*
X215186Y93630D01*
X215226Y93564D01*
X216319Y92240D01*
X216356Y92208D01*
X216407Y92152D01*
X217738Y91066D01*
X217781Y91043D01*
X217842Y90997D01*
X219359Y90192D01*
X219405Y90177D01*
X219474Y90145D01*
X219717Y90072D01*
X219718Y90072D01*
X221120Y89651D01*
X221167Y89645D01*
X221242Y89627D01*
X222829Y89475D01*
X222846Y89469D01*
X222940Y89427D01*
X222950Y89427D01*
X222958Y89423D01*
X223145Y89412D01*
X224824Y89565D01*
G37*
G36*
X529624Y89565D02*
X529624Y89565D01*
X529671Y89578D01*
X529746Y89588D01*
X531363Y90066D01*
X531391Y90080D01*
X531412Y90084D01*
X531436Y90098D01*
X531478Y90112D01*
X532970Y90896D01*
X533008Y90926D01*
X533074Y90964D01*
X534385Y92024D01*
X534416Y92060D01*
X534473Y92111D01*
X535552Y93406D01*
X535576Y93448D01*
X535622Y93509D01*
X536428Y94990D01*
X536443Y95035D01*
X536476Y95104D01*
X536977Y96713D01*
X536983Y96761D01*
X537002Y96835D01*
X537177Y98488D01*
X537224Y98744D01*
X537224Y98766D01*
X537231Y98926D01*
X537046Y100644D01*
X537033Y100690D01*
X537021Y100765D01*
X536505Y102414D01*
X536483Y102457D01*
X536457Y102528D01*
X535629Y104045D01*
X535599Y104083D01*
X535559Y104148D01*
X534452Y105474D01*
X534415Y105505D01*
X534363Y105561D01*
X533018Y106645D01*
X532976Y106668D01*
X532914Y106714D01*
X531383Y107515D01*
X531337Y107529D01*
X531268Y107561D01*
X529611Y108049D01*
X529563Y108054D01*
X529489Y108072D01*
X528020Y108204D01*
X527992Y108220D01*
X527953Y108226D01*
X527916Y108241D01*
X527820Y108246D01*
X527770Y108254D01*
X527750Y108251D01*
X527729Y108252D01*
X526038Y108100D01*
X525992Y108087D01*
X525916Y108077D01*
X524287Y107598D01*
X524244Y107577D01*
X524172Y107551D01*
X522668Y106764D01*
X522630Y106735D01*
X522564Y106696D01*
X521242Y105630D01*
X521210Y105594D01*
X521153Y105543D01*
X520064Y104240D01*
X520041Y104199D01*
X519994Y104138D01*
X519181Y102647D01*
X519166Y102602D01*
X519132Y102533D01*
X518625Y100913D01*
X518619Y100865D01*
X518600Y100791D01*
X518419Y99108D01*
X518395Y98910D01*
X518397Y98859D01*
X518393Y98768D01*
X518566Y97059D01*
X518580Y97013D01*
X518591Y96937D01*
X519094Y95295D01*
X519116Y95252D01*
X519142Y95180D01*
X519956Y93667D01*
X519986Y93630D01*
X520026Y93564D01*
X521119Y92240D01*
X521156Y92208D01*
X521207Y92152D01*
X522538Y91066D01*
X522581Y91043D01*
X522642Y90997D01*
X524159Y90192D01*
X524205Y90177D01*
X524274Y90145D01*
X524517Y90072D01*
X524518Y90072D01*
X525920Y89651D01*
X525967Y89645D01*
X526042Y89627D01*
X527629Y89475D01*
X527646Y89469D01*
X527740Y89427D01*
X527750Y89427D01*
X527758Y89423D01*
X527945Y89412D01*
X529624Y89565D01*
G37*
G36*
X224824Y44327D02*
X224824Y44327D01*
X224871Y44340D01*
X224946Y44350D01*
X226563Y44828D01*
X226591Y44842D01*
X226612Y44846D01*
X226636Y44860D01*
X226678Y44874D01*
X228170Y45658D01*
X228208Y45688D01*
X228274Y45726D01*
X229585Y46786D01*
X229616Y46822D01*
X229673Y46873D01*
X230752Y48168D01*
X230776Y48210D01*
X230822Y48271D01*
X231628Y49752D01*
X231643Y49797D01*
X231676Y49866D01*
X232177Y51475D01*
X232183Y51523D01*
X232202Y51597D01*
X232377Y53250D01*
X232424Y53506D01*
X232424Y53528D01*
X232431Y53688D01*
X232246Y55406D01*
X232233Y55452D01*
X232221Y55527D01*
X231705Y57176D01*
X231683Y57219D01*
X231657Y57290D01*
X230829Y58807D01*
X230799Y58845D01*
X230759Y58910D01*
X229652Y60236D01*
X229615Y60267D01*
X229563Y60323D01*
X228218Y61407D01*
X228176Y61430D01*
X228114Y61476D01*
X226583Y62277D01*
X226537Y62291D01*
X226468Y62323D01*
X224811Y62811D01*
X224763Y62816D01*
X224689Y62834D01*
X223220Y62966D01*
X223192Y62982D01*
X223153Y62988D01*
X223116Y63003D01*
X223020Y63008D01*
X222970Y63016D01*
X222950Y63013D01*
X222929Y63014D01*
X221238Y62862D01*
X221192Y62849D01*
X221116Y62839D01*
X219487Y62360D01*
X219444Y62339D01*
X219372Y62313D01*
X217868Y61526D01*
X217830Y61497D01*
X217764Y61458D01*
X216442Y60392D01*
X216410Y60356D01*
X216353Y60305D01*
X215264Y59002D01*
X215241Y58961D01*
X215194Y58900D01*
X214381Y57409D01*
X214366Y57364D01*
X214332Y57295D01*
X213825Y55675D01*
X213819Y55627D01*
X213800Y55553D01*
X213619Y53870D01*
X213595Y53672D01*
X213597Y53621D01*
X213593Y53530D01*
X213766Y51821D01*
X213780Y51775D01*
X213791Y51699D01*
X214294Y50057D01*
X214316Y50014D01*
X214342Y49942D01*
X215156Y48429D01*
X215186Y48392D01*
X215226Y48326D01*
X216319Y47002D01*
X216356Y46970D01*
X216407Y46914D01*
X217738Y45828D01*
X217781Y45805D01*
X217842Y45759D01*
X219359Y44954D01*
X219405Y44939D01*
X219474Y44907D01*
X219717Y44834D01*
X219718Y44834D01*
X221120Y44413D01*
X221167Y44407D01*
X221242Y44389D01*
X222829Y44237D01*
X222846Y44231D01*
X222940Y44189D01*
X222950Y44189D01*
X222958Y44185D01*
X223145Y44174D01*
X224824Y44327D01*
G37*
G36*
X529624Y44327D02*
X529624Y44327D01*
X529671Y44340D01*
X529746Y44350D01*
X531363Y44828D01*
X531391Y44842D01*
X531412Y44846D01*
X531436Y44860D01*
X531478Y44874D01*
X532970Y45658D01*
X533008Y45688D01*
X533074Y45726D01*
X534385Y46786D01*
X534416Y46822D01*
X534473Y46873D01*
X535552Y48168D01*
X535576Y48210D01*
X535622Y48271D01*
X536428Y49752D01*
X536443Y49797D01*
X536476Y49866D01*
X536977Y51475D01*
X536983Y51523D01*
X537002Y51597D01*
X537177Y53250D01*
X537224Y53506D01*
X537224Y53528D01*
X537231Y53688D01*
X537046Y55406D01*
X537033Y55452D01*
X537021Y55527D01*
X536505Y57176D01*
X536483Y57219D01*
X536457Y57290D01*
X535629Y58807D01*
X535599Y58845D01*
X535559Y58910D01*
X534452Y60236D01*
X534415Y60267D01*
X534363Y60323D01*
X533018Y61407D01*
X532976Y61430D01*
X532914Y61476D01*
X531383Y62277D01*
X531337Y62291D01*
X531268Y62323D01*
X529611Y62811D01*
X529563Y62816D01*
X529489Y62834D01*
X528020Y62966D01*
X527992Y62982D01*
X527953Y62988D01*
X527916Y63003D01*
X527820Y63008D01*
X527770Y63016D01*
X527750Y63013D01*
X527729Y63014D01*
X526038Y62862D01*
X525992Y62849D01*
X525916Y62839D01*
X524287Y62360D01*
X524244Y62339D01*
X524172Y62313D01*
X522668Y61526D01*
X522630Y61497D01*
X522564Y61458D01*
X521242Y60392D01*
X521210Y60356D01*
X521153Y60305D01*
X520064Y59002D01*
X520041Y58961D01*
X519994Y58900D01*
X519181Y57409D01*
X519166Y57364D01*
X519132Y57295D01*
X518625Y55675D01*
X518619Y55627D01*
X518600Y55553D01*
X518419Y53870D01*
X518395Y53672D01*
X518397Y53621D01*
X518393Y53530D01*
X518566Y51821D01*
X518580Y51775D01*
X518591Y51699D01*
X519094Y50057D01*
X519116Y50014D01*
X519142Y49942D01*
X519956Y48429D01*
X519986Y48392D01*
X520026Y48326D01*
X521119Y47002D01*
X521156Y46970D01*
X521207Y46914D01*
X522538Y45828D01*
X522581Y45805D01*
X522642Y45759D01*
X524159Y44954D01*
X524205Y44939D01*
X524274Y44907D01*
X524517Y44834D01*
X524518Y44834D01*
X525920Y44413D01*
X525967Y44407D01*
X526042Y44389D01*
X527629Y44237D01*
X527646Y44231D01*
X527740Y44189D01*
X527750Y44189D01*
X527758Y44185D01*
X527945Y44174D01*
X529624Y44327D01*
G37*
G36*
X428024Y44327D02*
X428024Y44327D01*
X428071Y44340D01*
X428146Y44350D01*
X429763Y44828D01*
X429791Y44842D01*
X429812Y44846D01*
X429836Y44860D01*
X429878Y44874D01*
X431370Y45658D01*
X431408Y45688D01*
X431474Y45726D01*
X432785Y46786D01*
X432816Y46822D01*
X432873Y46873D01*
X433952Y48168D01*
X433976Y48210D01*
X434022Y48271D01*
X434828Y49752D01*
X434843Y49797D01*
X434876Y49866D01*
X435377Y51475D01*
X435383Y51523D01*
X435402Y51597D01*
X435577Y53250D01*
X435624Y53506D01*
X435624Y53528D01*
X435631Y53688D01*
X435446Y55406D01*
X435433Y55452D01*
X435421Y55527D01*
X434905Y57176D01*
X434883Y57219D01*
X434857Y57290D01*
X434029Y58807D01*
X433999Y58845D01*
X433959Y58910D01*
X432852Y60236D01*
X432815Y60267D01*
X432763Y60323D01*
X431418Y61407D01*
X431376Y61430D01*
X431314Y61476D01*
X429783Y62277D01*
X429737Y62291D01*
X429668Y62323D01*
X428011Y62811D01*
X427963Y62816D01*
X427889Y62834D01*
X426420Y62966D01*
X426392Y62982D01*
X426353Y62988D01*
X426316Y63003D01*
X426220Y63008D01*
X426170Y63016D01*
X426150Y63013D01*
X426129Y63014D01*
X424438Y62862D01*
X424392Y62849D01*
X424316Y62839D01*
X422687Y62360D01*
X422644Y62339D01*
X422572Y62313D01*
X421068Y61526D01*
X421030Y61497D01*
X420964Y61458D01*
X419642Y60392D01*
X419610Y60356D01*
X419553Y60305D01*
X418464Y59002D01*
X418441Y58961D01*
X418394Y58900D01*
X417581Y57409D01*
X417566Y57364D01*
X417532Y57295D01*
X417025Y55675D01*
X417019Y55627D01*
X417000Y55553D01*
X416819Y53870D01*
X416795Y53672D01*
X416797Y53621D01*
X416793Y53530D01*
X416966Y51821D01*
X416980Y51775D01*
X416991Y51699D01*
X417494Y50057D01*
X417516Y50014D01*
X417542Y49942D01*
X418356Y48429D01*
X418386Y48392D01*
X418426Y48326D01*
X419519Y47002D01*
X419556Y46970D01*
X419607Y46914D01*
X420938Y45828D01*
X420981Y45805D01*
X421042Y45759D01*
X422559Y44954D01*
X422605Y44939D01*
X422674Y44907D01*
X422917Y44834D01*
X422918Y44834D01*
X424320Y44413D01*
X424367Y44407D01*
X424442Y44389D01*
X426029Y44237D01*
X426046Y44231D01*
X426140Y44189D01*
X426150Y44189D01*
X426158Y44185D01*
X426345Y44174D01*
X428024Y44327D01*
G37*
G36*
X326424Y44327D02*
X326424Y44327D01*
X326471Y44340D01*
X326546Y44350D01*
X328163Y44828D01*
X328191Y44842D01*
X328212Y44846D01*
X328236Y44860D01*
X328278Y44874D01*
X329770Y45658D01*
X329808Y45688D01*
X329874Y45726D01*
X331185Y46786D01*
X331216Y46822D01*
X331273Y46873D01*
X332352Y48168D01*
X332376Y48210D01*
X332422Y48271D01*
X333228Y49752D01*
X333243Y49797D01*
X333276Y49866D01*
X333777Y51475D01*
X333783Y51523D01*
X333802Y51597D01*
X333977Y53250D01*
X334024Y53506D01*
X334024Y53528D01*
X334031Y53688D01*
X333846Y55406D01*
X333833Y55452D01*
X333821Y55527D01*
X333305Y57176D01*
X333283Y57219D01*
X333257Y57290D01*
X332429Y58807D01*
X332399Y58845D01*
X332359Y58910D01*
X331252Y60236D01*
X331215Y60267D01*
X331163Y60323D01*
X329818Y61407D01*
X329776Y61430D01*
X329714Y61476D01*
X328183Y62277D01*
X328137Y62291D01*
X328068Y62323D01*
X326411Y62811D01*
X326363Y62816D01*
X326289Y62834D01*
X324820Y62966D01*
X324792Y62982D01*
X324753Y62988D01*
X324716Y63003D01*
X324620Y63008D01*
X324570Y63016D01*
X324550Y63013D01*
X324529Y63014D01*
X322838Y62862D01*
X322792Y62849D01*
X322716Y62839D01*
X321087Y62360D01*
X321044Y62339D01*
X320972Y62313D01*
X319468Y61526D01*
X319430Y61497D01*
X319364Y61458D01*
X318042Y60392D01*
X318010Y60356D01*
X317953Y60305D01*
X316864Y59002D01*
X316841Y58961D01*
X316794Y58900D01*
X315981Y57409D01*
X315966Y57364D01*
X315932Y57295D01*
X315425Y55675D01*
X315419Y55627D01*
X315400Y55553D01*
X315219Y53870D01*
X315195Y53672D01*
X315197Y53621D01*
X315193Y53530D01*
X315366Y51821D01*
X315380Y51775D01*
X315391Y51699D01*
X315894Y50057D01*
X315916Y50014D01*
X315942Y49942D01*
X316756Y48429D01*
X316786Y48392D01*
X316826Y48326D01*
X317919Y47002D01*
X317956Y46970D01*
X318007Y46914D01*
X319338Y45828D01*
X319381Y45805D01*
X319442Y45759D01*
X320959Y44954D01*
X321005Y44939D01*
X321074Y44907D01*
X321317Y44834D01*
X321318Y44834D01*
X322720Y44413D01*
X322767Y44407D01*
X322842Y44389D01*
X324429Y44237D01*
X324446Y44231D01*
X324540Y44189D01*
X324550Y44189D01*
X324558Y44185D01*
X324745Y44174D01*
X326424Y44327D01*
G37*
G36*
X363000Y44302D02*
X363000Y44302D01*
X363047Y44315D01*
X363122Y44325D01*
X364739Y44803D01*
X364767Y44817D01*
X364788Y44821D01*
X364812Y44835D01*
X364854Y44849D01*
X366346Y45633D01*
X366384Y45663D01*
X366450Y45701D01*
X367761Y46761D01*
X367792Y46797D01*
X367849Y46848D01*
X368928Y48143D01*
X368952Y48185D01*
X368998Y48246D01*
X369804Y49727D01*
X369819Y49772D01*
X369852Y49841D01*
X370353Y51450D01*
X370359Y51498D01*
X370378Y51572D01*
X370553Y53225D01*
X370600Y53481D01*
X370600Y53503D01*
X370607Y53663D01*
X370422Y55381D01*
X370409Y55427D01*
X370397Y55502D01*
X369881Y57151D01*
X369859Y57194D01*
X369833Y57265D01*
X369005Y58782D01*
X368975Y58820D01*
X368935Y58885D01*
X367828Y60211D01*
X367791Y60242D01*
X367739Y60298D01*
X366394Y61382D01*
X366352Y61405D01*
X366290Y61451D01*
X364759Y62252D01*
X364713Y62266D01*
X364644Y62298D01*
X362987Y62786D01*
X362939Y62791D01*
X362865Y62809D01*
X361396Y62941D01*
X361368Y62957D01*
X361329Y62963D01*
X361292Y62978D01*
X361196Y62983D01*
X361146Y62991D01*
X361126Y62988D01*
X361105Y62989D01*
X359414Y62837D01*
X359368Y62824D01*
X359292Y62814D01*
X357663Y62335D01*
X357620Y62314D01*
X357548Y62288D01*
X356044Y61501D01*
X356006Y61472D01*
X355940Y61433D01*
X354618Y60367D01*
X354586Y60331D01*
X354529Y60280D01*
X353440Y58977D01*
X353417Y58936D01*
X353370Y58875D01*
X352557Y57384D01*
X352542Y57339D01*
X352508Y57270D01*
X352001Y55650D01*
X351995Y55602D01*
X351976Y55528D01*
X351795Y53845D01*
X351771Y53647D01*
X351773Y53596D01*
X351769Y53505D01*
X351942Y51796D01*
X351956Y51750D01*
X351967Y51674D01*
X352470Y50032D01*
X352492Y49989D01*
X352518Y49917D01*
X353332Y48404D01*
X353362Y48367D01*
X353402Y48301D01*
X354495Y46977D01*
X354532Y46945D01*
X354583Y46889D01*
X355914Y45803D01*
X355957Y45780D01*
X356018Y45734D01*
X357535Y44929D01*
X357581Y44914D01*
X357650Y44882D01*
X357893Y44809D01*
X357894Y44809D01*
X359296Y44388D01*
X359343Y44382D01*
X359418Y44364D01*
X361005Y44212D01*
X361022Y44206D01*
X361116Y44164D01*
X361126Y44164D01*
X361134Y44160D01*
X361321Y44149D01*
X363000Y44302D01*
G37*
G36*
X261400Y44302D02*
X261400Y44302D01*
X261447Y44315D01*
X261522Y44325D01*
X263139Y44803D01*
X263167Y44817D01*
X263188Y44821D01*
X263212Y44835D01*
X263254Y44849D01*
X264746Y45633D01*
X264784Y45663D01*
X264850Y45701D01*
X266161Y46761D01*
X266192Y46797D01*
X266249Y46848D01*
X267328Y48143D01*
X267352Y48185D01*
X267398Y48246D01*
X268204Y49727D01*
X268219Y49772D01*
X268252Y49841D01*
X268753Y51450D01*
X268759Y51498D01*
X268778Y51572D01*
X268953Y53225D01*
X269000Y53481D01*
X269000Y53503D01*
X269007Y53663D01*
X268822Y55381D01*
X268809Y55427D01*
X268797Y55502D01*
X268281Y57151D01*
X268259Y57194D01*
X268233Y57265D01*
X267405Y58782D01*
X267375Y58820D01*
X267335Y58885D01*
X266228Y60211D01*
X266191Y60242D01*
X266139Y60298D01*
X264794Y61382D01*
X264752Y61405D01*
X264690Y61451D01*
X263159Y62252D01*
X263113Y62266D01*
X263044Y62298D01*
X261387Y62786D01*
X261339Y62791D01*
X261265Y62809D01*
X259796Y62941D01*
X259768Y62957D01*
X259729Y62963D01*
X259692Y62978D01*
X259596Y62983D01*
X259546Y62991D01*
X259526Y62988D01*
X259505Y62989D01*
X257814Y62837D01*
X257768Y62824D01*
X257692Y62814D01*
X256063Y62335D01*
X256020Y62314D01*
X255948Y62288D01*
X254444Y61501D01*
X254406Y61472D01*
X254340Y61433D01*
X253018Y60367D01*
X252986Y60331D01*
X252929Y60280D01*
X251840Y58977D01*
X251817Y58936D01*
X251770Y58875D01*
X250957Y57384D01*
X250942Y57339D01*
X250908Y57270D01*
X250401Y55650D01*
X250395Y55602D01*
X250376Y55528D01*
X250195Y53845D01*
X250171Y53647D01*
X250173Y53596D01*
X250169Y53505D01*
X250342Y51796D01*
X250356Y51750D01*
X250367Y51674D01*
X250870Y50032D01*
X250892Y49989D01*
X250918Y49917D01*
X251732Y48404D01*
X251762Y48367D01*
X251802Y48301D01*
X252895Y46977D01*
X252932Y46945D01*
X252983Y46889D01*
X254314Y45803D01*
X254357Y45780D01*
X254418Y45734D01*
X255935Y44929D01*
X255981Y44914D01*
X256050Y44882D01*
X256293Y44809D01*
X256294Y44809D01*
X257696Y44388D01*
X257743Y44382D01*
X257818Y44364D01*
X259405Y44212D01*
X259422Y44206D01*
X259516Y44164D01*
X259526Y44164D01*
X259534Y44160D01*
X259721Y44149D01*
X261400Y44302D01*
G37*
G36*
X159800Y44302D02*
X159800Y44302D01*
X159847Y44315D01*
X159922Y44325D01*
X161539Y44803D01*
X161567Y44817D01*
X161588Y44821D01*
X161612Y44835D01*
X161654Y44849D01*
X163146Y45633D01*
X163184Y45663D01*
X163250Y45701D01*
X164561Y46761D01*
X164592Y46797D01*
X164649Y46848D01*
X165728Y48143D01*
X165752Y48185D01*
X165798Y48246D01*
X166604Y49727D01*
X166619Y49772D01*
X166652Y49841D01*
X167153Y51450D01*
X167159Y51498D01*
X167178Y51572D01*
X167353Y53225D01*
X167400Y53481D01*
X167400Y53503D01*
X167407Y53663D01*
X167222Y55381D01*
X167209Y55427D01*
X167197Y55502D01*
X166681Y57151D01*
X166659Y57194D01*
X166633Y57265D01*
X165805Y58782D01*
X165775Y58820D01*
X165735Y58885D01*
X164628Y60211D01*
X164591Y60242D01*
X164539Y60298D01*
X163194Y61382D01*
X163152Y61405D01*
X163090Y61451D01*
X161559Y62252D01*
X161513Y62266D01*
X161444Y62298D01*
X159787Y62786D01*
X159739Y62791D01*
X159665Y62809D01*
X158196Y62941D01*
X158168Y62957D01*
X158129Y62963D01*
X158092Y62978D01*
X157996Y62983D01*
X157946Y62991D01*
X157926Y62988D01*
X157905Y62989D01*
X156214Y62837D01*
X156168Y62824D01*
X156092Y62814D01*
X154463Y62335D01*
X154420Y62314D01*
X154348Y62288D01*
X152844Y61501D01*
X152806Y61472D01*
X152740Y61433D01*
X151418Y60367D01*
X151386Y60331D01*
X151329Y60280D01*
X150240Y58977D01*
X150217Y58936D01*
X150170Y58875D01*
X149357Y57384D01*
X149342Y57339D01*
X149308Y57270D01*
X148801Y55650D01*
X148795Y55602D01*
X148776Y55528D01*
X148595Y53845D01*
X148571Y53647D01*
X148573Y53596D01*
X148569Y53505D01*
X148742Y51796D01*
X148756Y51750D01*
X148767Y51674D01*
X149270Y50032D01*
X149292Y49989D01*
X149318Y49917D01*
X150132Y48404D01*
X150162Y48367D01*
X150202Y48301D01*
X151295Y46977D01*
X151332Y46945D01*
X151383Y46889D01*
X152714Y45803D01*
X152757Y45780D01*
X152818Y45734D01*
X154335Y44929D01*
X154381Y44914D01*
X154450Y44882D01*
X154693Y44809D01*
X154694Y44809D01*
X156096Y44388D01*
X156143Y44382D01*
X156218Y44364D01*
X157805Y44212D01*
X157822Y44206D01*
X157916Y44164D01*
X157926Y44164D01*
X157934Y44160D01*
X158121Y44149D01*
X159800Y44302D01*
G37*
G36*
X464600Y44302D02*
X464600Y44302D01*
X464647Y44315D01*
X464722Y44325D01*
X466339Y44803D01*
X466367Y44817D01*
X466388Y44821D01*
X466412Y44835D01*
X466454Y44849D01*
X467946Y45633D01*
X467984Y45663D01*
X468050Y45701D01*
X469361Y46761D01*
X469392Y46797D01*
X469449Y46848D01*
X470528Y48143D01*
X470552Y48185D01*
X470598Y48246D01*
X471404Y49727D01*
X471419Y49772D01*
X471452Y49841D01*
X471953Y51450D01*
X471959Y51498D01*
X471978Y51572D01*
X472153Y53225D01*
X472200Y53481D01*
X472200Y53503D01*
X472207Y53663D01*
X472022Y55381D01*
X472009Y55427D01*
X471997Y55502D01*
X471481Y57151D01*
X471459Y57194D01*
X471433Y57265D01*
X470605Y58782D01*
X470575Y58820D01*
X470535Y58885D01*
X469428Y60211D01*
X469391Y60242D01*
X469339Y60298D01*
X467994Y61382D01*
X467952Y61405D01*
X467890Y61451D01*
X466359Y62252D01*
X466313Y62266D01*
X466244Y62298D01*
X464587Y62786D01*
X464539Y62791D01*
X464465Y62809D01*
X462996Y62941D01*
X462968Y62957D01*
X462929Y62963D01*
X462892Y62978D01*
X462796Y62983D01*
X462746Y62991D01*
X462726Y62988D01*
X462705Y62989D01*
X461014Y62837D01*
X460968Y62824D01*
X460892Y62814D01*
X459263Y62335D01*
X459220Y62314D01*
X459148Y62288D01*
X457644Y61501D01*
X457606Y61472D01*
X457540Y61433D01*
X456218Y60367D01*
X456186Y60331D01*
X456129Y60280D01*
X455040Y58977D01*
X455017Y58936D01*
X454970Y58875D01*
X454157Y57384D01*
X454142Y57339D01*
X454108Y57270D01*
X453601Y55650D01*
X453595Y55602D01*
X453576Y55528D01*
X453395Y53845D01*
X453371Y53647D01*
X453373Y53596D01*
X453369Y53505D01*
X453542Y51796D01*
X453556Y51750D01*
X453567Y51674D01*
X454070Y50032D01*
X454092Y49989D01*
X454118Y49917D01*
X454932Y48404D01*
X454962Y48367D01*
X455002Y48301D01*
X456095Y46977D01*
X456132Y46945D01*
X456183Y46889D01*
X457514Y45803D01*
X457557Y45780D01*
X457618Y45734D01*
X459135Y44929D01*
X459181Y44914D01*
X459250Y44882D01*
X459493Y44809D01*
X459494Y44809D01*
X460896Y44388D01*
X460943Y44382D01*
X461018Y44364D01*
X462605Y44212D01*
X462622Y44206D01*
X462716Y44164D01*
X462726Y44164D01*
X462734Y44160D01*
X462921Y44149D01*
X464600Y44302D01*
G37*
D10*
X76200Y622300D03*
X76200Y63500D03*
X1562100Y342900D03*
D11*
X939800Y363220D03*
D12*
X939800Y398780D03*
D13*
X838200Y190500D03*
D14*
X622300Y101600D03*
D15*
X673100Y101600D03*
D14*
X1244600Y127000D03*
D15*
X1295400Y127000D03*
X1346200Y127000D03*
X1397000Y127000D03*
X1447800Y127000D03*
X1498600Y127000D03*
D14*
X1498600Y546100D03*
D15*
X1447800Y546100D03*
X1397000Y546100D03*
X1346200Y546100D03*
X1295400Y546100D03*
X1244600Y546100D03*
D16*
X279500Y279400D03*
D17*
X304900Y279400D03*
X330300Y279400D03*
X355700Y279400D03*
X381100Y279400D03*
X406500Y279400D03*
X431900Y279400D03*
X457300Y279400D03*
X482700Y279400D03*
X508100Y279400D03*
X533500Y279400D03*
X558900Y279400D03*
X584300Y279400D03*
X609700Y279400D03*
X635100Y279400D03*
X660500Y279400D03*
X685900Y279400D03*
X711300Y279400D03*
X736700Y279400D03*
X736700Y533400D03*
X711300Y533400D03*
X685900Y533400D03*
X660500Y533400D03*
X635100Y533400D03*
X609700Y533400D03*
X584300Y533400D03*
X558900Y533400D03*
X533500Y533400D03*
X508100Y533400D03*
X482700Y533400D03*
X457300Y533400D03*
X431900Y533400D03*
X406500Y533400D03*
X381100Y533400D03*
X355700Y533400D03*
X330300Y533400D03*
X304900Y533400D03*
X279500Y533400D03*
D18*
X723500Y356650D03*
X713500Y356650D03*
X703500Y356650D03*
X693500Y356650D03*
X683500Y356650D03*
X673500Y356650D03*
X673500Y456150D03*
X683500Y456150D03*
X693500Y456150D03*
X703500Y456150D03*
X713500Y456150D03*
X723500Y456150D03*
D13*
X812800Y190500D03*
D19*
X800100Y457200D03*
X800100Y431800D03*
X800100Y381000D03*
X914400Y609600D03*
X939800Y609600D03*
X965200Y609600D03*
X990600Y609600D03*
X1016000Y609600D03*
X1041400Y609600D03*
X1066800Y609600D03*
X1092200Y609600D03*
X1117600Y609600D03*
X1143000Y609600D03*
D20*
X914400Y579120D02*
X914400Y563880D01*
X939800Y563880D02*
X939800Y579120D01*
X965200Y579120D02*
X965200Y563880D01*
X990600Y563880D02*
X990600Y579120D01*
X1016000Y579120D02*
X1016000Y563880D01*
X1041400Y563880D02*
X1041400Y579120D01*
X1066800Y579120D02*
X1066800Y563880D01*
X1092200Y563880D02*
X1092200Y579120D01*
X1117600Y579120D02*
X1117600Y563880D01*
X1143000Y563880D02*
X1143000Y579120D01*
D21*
X914400Y444500D03*
D22*
X1142873Y444246D03*
D19*
X800100Y406400D03*
X800100Y482600D03*
X800100Y298450D03*
X800100Y355600D03*
D23*
X885200Y112200D03*
X838200Y112200D03*
X791200Y112200D03*
X904250Y16900D03*
X772150Y16900D03*
D24*
X622300Y419100D03*
X622300Y406400D03*
X635000Y419100D03*
X647700Y419100D03*
X635000Y406400D03*
X647700Y406400D03*
X622300Y393700D03*
X635000Y393700D03*
X647700Y393700D03*
X749300Y419100D03*
X762000Y419100D03*
X774700Y419100D03*
X749300Y406400D03*
X749300Y406400D03*
X762000Y406400D03*
X762000Y406400D03*
X774700Y406400D03*
X749300Y393700D03*
X762000Y393700D03*
X762000Y393700D03*
X774700Y393700D03*
X774700Y393700D03*
X711200Y368300D03*
D25*
X203200Y355600D03*
X203200Y406400D03*
X203200Y444500D03*
X203200Y482600D03*
X203200Y520700D03*
M02*
