G04 EAGLE Gerber RS-274X export*
G75*
%MOMM*%
%FSLAX34Y34*%
%LPD*%
%INSolderpaste Top*%
%IPPOS*%
%AMOC8*
5,1,8,0,0,1.08239X$1,22.5*%
G01*
%ADD10R,1.100000X1.200000*%
%ADD11R,2.600000X1.060000*%
%ADD12R,5.700000X5.632000*%
%ADD13R,1.500000X1.300000*%
%ADD14R,1.300000X1.500000*%
%ADD15R,1.524000X0.762000*%
%ADD16R,0.700000X1.500000*%
%ADD17R,1.000000X0.600000*%
%ADD18R,1.000000X0.800000*%
%ADD19R,1.860300X0.897900*%
%ADD20R,1.860300X3.189100*%
%ADD21R,0.420000X0.640000*%
%ADD22R,1.450000X1.150000*%


D10*
X40300Y304800D03*
X61300Y304800D03*
X40300Y482600D03*
X61300Y482600D03*
X40300Y444500D03*
X61300Y444500D03*
X40300Y406400D03*
X61300Y406400D03*
X40300Y355600D03*
X61300Y355600D03*
D11*
X1005700Y66040D03*
D12*
X940200Y88900D03*
D11*
X1005700Y111760D03*
D13*
X1181100Y491100D03*
X1181100Y474100D03*
D14*
X156600Y406400D03*
X173600Y406400D03*
X156600Y355600D03*
X173600Y355600D03*
X478400Y127000D03*
X461400Y127000D03*
X376800Y127000D03*
X359800Y127000D03*
X275200Y127000D03*
X258200Y127000D03*
X173600Y127000D03*
X156600Y127000D03*
D13*
X1092200Y97400D03*
X1092200Y80400D03*
X1181100Y541900D03*
X1181100Y524900D03*
X1028700Y478400D03*
X1028700Y461400D03*
X1028700Y529200D03*
X1028700Y512200D03*
X1079500Y478400D03*
X1079500Y461400D03*
X1079500Y529200D03*
X1079500Y512200D03*
D14*
X156600Y304800D03*
X173600Y304800D03*
X156600Y482600D03*
X173600Y482600D03*
X156600Y444500D03*
X173600Y444500D03*
D15*
X441960Y82550D03*
X497840Y82550D03*
X441960Y44450D03*
X497840Y44450D03*
X340360Y82550D03*
X396240Y82550D03*
X340360Y44450D03*
X396240Y44450D03*
X238760Y82550D03*
X294640Y82550D03*
X238760Y44450D03*
X294640Y44450D03*
X137160Y82550D03*
X193040Y82550D03*
X137160Y44450D03*
X193040Y44450D03*
D16*
X886100Y30200D03*
X871100Y30200D03*
X841100Y30200D03*
D17*
X900100Y2700D03*
D18*
X900100Y23700D03*
D17*
X827100Y2700D03*
D18*
X827100Y23700D03*
D19*
X1008650Y218300D03*
X1008650Y241300D03*
X1008650Y264300D03*
D20*
X947150Y241300D03*
D10*
X40300Y520700D03*
X61300Y520700D03*
D14*
X156600Y520700D03*
X173600Y520700D03*
D21*
X1054100Y96400D03*
X1054100Y81400D03*
D22*
X977900Y168800D03*
X977900Y186800D03*
X977900Y313800D03*
X977900Y295800D03*
M02*
