G04 EAGLE Gerber RS-274X export*
G75*
%MOMM*%
%FSLAX34Y34*%
%LPD*%
%INSoldermask Top*%
%IPPOS*%
%AMOC8*
5,1,8,0,0,1.08239X$1,22.5*%
G01*
%ADD10C,3.403200*%
%ADD11C,2.003400*%
%ADD12P,2.168460X8X112.500000*%
%ADD13R,1.503200X1.603200*%
%ADD14P,2.800792X8X202.500000*%
%ADD15R,2.503200X2.503200*%
%ADD16C,2.503200*%
%ADD17R,3.003200X1.463200*%
%ADD18R,6.103200X6.035200*%
%ADD19R,1.903200X1.703200*%
%ADD20R,1.703200X1.903200*%
%ADD21R,1.403200X1.403200*%
%ADD22R,1.933200X1.933200*%
%ADD23C,1.933200*%
%ADD24R,2.263500X1.301100*%
%ADD25R,2.263500X3.592300*%
%ADD26C,1.927200*%
%ADD27C,3.959200*%
%ADD28C,3.705200*%
%ADD29R,0.823200X1.043200*%
%ADD30R,1.853200X1.553200*%
%ADD31C,3.178200*%
%ADD32C,1.009600*%
%ADD33C,1.159600*%

G36*
X463035Y93759D02*
X463035Y93759D01*
X463134Y93759D01*
X464091Y93901D01*
X464139Y93917D01*
X464229Y93937D01*
X465131Y94289D01*
X465174Y94315D01*
X465256Y94355D01*
X466057Y94898D01*
X466093Y94934D01*
X466165Y94991D01*
X466825Y95699D01*
X466852Y95741D01*
X466909Y95813D01*
X467395Y96650D01*
X467412Y96698D01*
X467452Y96781D01*
X467739Y97705D01*
X467745Y97755D01*
X467766Y97845D01*
X467833Y98729D01*
X467834Y98732D01*
X467834Y98740D01*
X467837Y98777D01*
X467841Y98806D01*
X467841Y98858D01*
X467836Y98885D01*
X467733Y99852D01*
X467719Y99900D01*
X467702Y99991D01*
X467383Y100921D01*
X467358Y100965D01*
X467322Y101050D01*
X466803Y101886D01*
X466770Y101923D01*
X466715Y101998D01*
X466024Y102697D01*
X465982Y102726D01*
X465913Y102787D01*
X465083Y103315D01*
X465036Y103334D01*
X464955Y103377D01*
X464028Y103708D01*
X463978Y103716D01*
X463890Y103740D01*
X462937Y103853D01*
X462834Y103873D01*
X462829Y103873D01*
X462826Y103875D01*
X462638Y103881D01*
X461680Y103770D01*
X461632Y103756D01*
X461542Y103738D01*
X460633Y103417D01*
X460589Y103392D01*
X460505Y103355D01*
X459690Y102840D01*
X459653Y102806D01*
X459580Y102751D01*
X458900Y102067D01*
X458871Y102026D01*
X458812Y101956D01*
X458301Y101138D01*
X458283Y101091D01*
X458240Y101010D01*
X457925Y100099D01*
X457917Y100049D01*
X457893Y99960D01*
X457789Y99002D01*
X457791Y98972D01*
X457785Y98933D01*
X457785Y98832D01*
X457790Y98805D01*
X457788Y98768D01*
X457887Y97795D01*
X457900Y97746D01*
X457917Y97656D01*
X458229Y96729D01*
X458254Y96685D01*
X458289Y96600D01*
X458800Y95766D01*
X458834Y95728D01*
X458888Y95654D01*
X459572Y94954D01*
X459613Y94925D01*
X459682Y94865D01*
X460504Y94335D01*
X460551Y94315D01*
X460631Y94271D01*
X461551Y93938D01*
X461600Y93929D01*
X461689Y93904D01*
X462660Y93784D01*
X462670Y93784D01*
X462682Y93781D01*
X462985Y93754D01*
X463035Y93759D01*
G37*
G36*
X361435Y93759D02*
X361435Y93759D01*
X361534Y93759D01*
X362491Y93901D01*
X362539Y93917D01*
X362629Y93937D01*
X363531Y94289D01*
X363574Y94315D01*
X363656Y94355D01*
X364457Y94898D01*
X364493Y94934D01*
X364565Y94991D01*
X365225Y95699D01*
X365252Y95741D01*
X365309Y95813D01*
X365795Y96650D01*
X365812Y96698D01*
X365852Y96781D01*
X366139Y97705D01*
X366145Y97755D01*
X366166Y97845D01*
X366233Y98729D01*
X366234Y98732D01*
X366234Y98740D01*
X366237Y98777D01*
X366241Y98806D01*
X366241Y98858D01*
X366236Y98885D01*
X366133Y99852D01*
X366119Y99900D01*
X366102Y99991D01*
X365783Y100921D01*
X365758Y100965D01*
X365722Y101050D01*
X365203Y101886D01*
X365170Y101923D01*
X365115Y101998D01*
X364424Y102697D01*
X364382Y102726D01*
X364313Y102787D01*
X363483Y103315D01*
X363436Y103334D01*
X363355Y103377D01*
X362428Y103708D01*
X362378Y103716D01*
X362290Y103740D01*
X361337Y103853D01*
X361234Y103873D01*
X361229Y103873D01*
X361226Y103875D01*
X361038Y103881D01*
X360080Y103770D01*
X360032Y103756D01*
X359942Y103738D01*
X359033Y103417D01*
X358989Y103392D01*
X358905Y103355D01*
X358090Y102840D01*
X358053Y102806D01*
X357980Y102751D01*
X357300Y102067D01*
X357271Y102026D01*
X357212Y101956D01*
X356701Y101138D01*
X356683Y101091D01*
X356640Y101010D01*
X356325Y100099D01*
X356317Y100049D01*
X356293Y99960D01*
X356189Y99002D01*
X356191Y98972D01*
X356185Y98933D01*
X356185Y98832D01*
X356190Y98805D01*
X356188Y98768D01*
X356287Y97795D01*
X356300Y97746D01*
X356317Y97656D01*
X356629Y96729D01*
X356654Y96685D01*
X356689Y96600D01*
X357200Y95766D01*
X357234Y95728D01*
X357288Y95654D01*
X357972Y94954D01*
X358013Y94925D01*
X358082Y94865D01*
X358904Y94335D01*
X358951Y94315D01*
X359031Y94271D01*
X359951Y93938D01*
X360000Y93929D01*
X360089Y93904D01*
X361060Y93784D01*
X361070Y93784D01*
X361082Y93781D01*
X361385Y93754D01*
X361435Y93759D01*
G37*
G36*
X158235Y93759D02*
X158235Y93759D01*
X158334Y93759D01*
X159291Y93901D01*
X159339Y93917D01*
X159429Y93937D01*
X160331Y94289D01*
X160374Y94315D01*
X160456Y94355D01*
X161257Y94898D01*
X161293Y94934D01*
X161365Y94991D01*
X162025Y95699D01*
X162052Y95741D01*
X162109Y95813D01*
X162595Y96650D01*
X162612Y96698D01*
X162652Y96781D01*
X162939Y97705D01*
X162945Y97755D01*
X162966Y97845D01*
X163033Y98729D01*
X163034Y98732D01*
X163034Y98740D01*
X163037Y98777D01*
X163041Y98806D01*
X163041Y98858D01*
X163036Y98885D01*
X162933Y99852D01*
X162919Y99900D01*
X162902Y99991D01*
X162583Y100921D01*
X162558Y100965D01*
X162522Y101050D01*
X162003Y101886D01*
X161970Y101923D01*
X161915Y101998D01*
X161224Y102697D01*
X161182Y102726D01*
X161113Y102787D01*
X160283Y103315D01*
X160236Y103334D01*
X160155Y103377D01*
X159228Y103708D01*
X159178Y103716D01*
X159090Y103740D01*
X158137Y103853D01*
X158034Y103873D01*
X158029Y103873D01*
X158026Y103875D01*
X157838Y103881D01*
X156880Y103770D01*
X156832Y103756D01*
X156742Y103738D01*
X155833Y103417D01*
X155789Y103392D01*
X155705Y103355D01*
X154890Y102840D01*
X154853Y102806D01*
X154780Y102751D01*
X154100Y102067D01*
X154071Y102026D01*
X154012Y101956D01*
X153501Y101138D01*
X153483Y101091D01*
X153440Y101010D01*
X153125Y100099D01*
X153117Y100049D01*
X153093Y99960D01*
X152989Y99002D01*
X152991Y98972D01*
X152985Y98933D01*
X152985Y98832D01*
X152990Y98805D01*
X152988Y98768D01*
X153087Y97795D01*
X153100Y97746D01*
X153117Y97656D01*
X153429Y96729D01*
X153454Y96685D01*
X153489Y96600D01*
X154000Y95766D01*
X154034Y95728D01*
X154088Y95654D01*
X154772Y94954D01*
X154813Y94925D01*
X154882Y94865D01*
X155704Y94335D01*
X155751Y94315D01*
X155831Y94271D01*
X156751Y93938D01*
X156800Y93929D01*
X156889Y93904D01*
X157860Y93784D01*
X157870Y93784D01*
X157882Y93781D01*
X158185Y93754D01*
X158235Y93759D01*
G37*
G36*
X259835Y93759D02*
X259835Y93759D01*
X259934Y93759D01*
X260891Y93901D01*
X260939Y93917D01*
X261029Y93937D01*
X261931Y94289D01*
X261974Y94315D01*
X262056Y94355D01*
X262857Y94898D01*
X262893Y94934D01*
X262965Y94991D01*
X263625Y95699D01*
X263652Y95741D01*
X263709Y95813D01*
X264195Y96650D01*
X264212Y96698D01*
X264252Y96781D01*
X264539Y97705D01*
X264545Y97755D01*
X264566Y97845D01*
X264633Y98729D01*
X264634Y98732D01*
X264634Y98740D01*
X264637Y98777D01*
X264641Y98806D01*
X264641Y98858D01*
X264636Y98885D01*
X264533Y99852D01*
X264519Y99900D01*
X264502Y99991D01*
X264183Y100921D01*
X264158Y100965D01*
X264122Y101050D01*
X263603Y101886D01*
X263570Y101923D01*
X263515Y101998D01*
X262824Y102697D01*
X262782Y102726D01*
X262713Y102787D01*
X261883Y103315D01*
X261836Y103334D01*
X261755Y103377D01*
X260828Y103708D01*
X260778Y103716D01*
X260690Y103740D01*
X259737Y103853D01*
X259634Y103873D01*
X259629Y103873D01*
X259626Y103875D01*
X259438Y103881D01*
X258480Y103770D01*
X258432Y103756D01*
X258342Y103738D01*
X257433Y103417D01*
X257389Y103392D01*
X257305Y103355D01*
X256490Y102840D01*
X256453Y102806D01*
X256380Y102751D01*
X255700Y102067D01*
X255671Y102026D01*
X255612Y101956D01*
X255101Y101138D01*
X255083Y101091D01*
X255040Y101010D01*
X254725Y100099D01*
X254717Y100049D01*
X254693Y99960D01*
X254589Y99002D01*
X254591Y98972D01*
X254585Y98933D01*
X254585Y98832D01*
X254590Y98805D01*
X254588Y98768D01*
X254687Y97795D01*
X254700Y97746D01*
X254717Y97656D01*
X255029Y96729D01*
X255054Y96685D01*
X255089Y96600D01*
X255600Y95766D01*
X255634Y95728D01*
X255688Y95654D01*
X256372Y94954D01*
X256413Y94925D01*
X256482Y94865D01*
X257304Y94335D01*
X257351Y94315D01*
X257431Y94271D01*
X258351Y93938D01*
X258400Y93929D01*
X258489Y93904D01*
X259460Y93784D01*
X259470Y93784D01*
X259482Y93781D01*
X259785Y93754D01*
X259835Y93759D01*
G37*
G36*
X426510Y93734D02*
X426510Y93734D01*
X426609Y93734D01*
X427566Y93876D01*
X427614Y93892D01*
X427704Y93912D01*
X428606Y94264D01*
X428649Y94290D01*
X428731Y94330D01*
X429532Y94873D01*
X429568Y94909D01*
X429640Y94966D01*
X430300Y95674D01*
X430327Y95716D01*
X430384Y95788D01*
X430870Y96625D01*
X430887Y96673D01*
X430927Y96756D01*
X431214Y97680D01*
X431220Y97730D01*
X431241Y97820D01*
X431308Y98704D01*
X431309Y98707D01*
X431309Y98715D01*
X431312Y98752D01*
X431316Y98781D01*
X431316Y98833D01*
X431311Y98860D01*
X431208Y99827D01*
X431194Y99875D01*
X431177Y99966D01*
X430858Y100896D01*
X430833Y100940D01*
X430797Y101025D01*
X430278Y101861D01*
X430245Y101898D01*
X430190Y101973D01*
X429499Y102672D01*
X429457Y102701D01*
X429388Y102762D01*
X428558Y103290D01*
X428511Y103309D01*
X428430Y103352D01*
X427503Y103683D01*
X427453Y103691D01*
X427365Y103715D01*
X426412Y103828D01*
X426309Y103848D01*
X426304Y103848D01*
X426301Y103850D01*
X426113Y103856D01*
X425155Y103745D01*
X425107Y103731D01*
X425017Y103713D01*
X424108Y103392D01*
X424064Y103367D01*
X423980Y103330D01*
X423165Y102815D01*
X423128Y102781D01*
X423055Y102726D01*
X422375Y102042D01*
X422346Y102001D01*
X422287Y101931D01*
X421776Y101113D01*
X421758Y101066D01*
X421715Y100985D01*
X421400Y100074D01*
X421392Y100024D01*
X421368Y99935D01*
X421264Y98977D01*
X421266Y98947D01*
X421260Y98908D01*
X421260Y98807D01*
X421265Y98780D01*
X421263Y98743D01*
X421362Y97770D01*
X421375Y97721D01*
X421392Y97631D01*
X421704Y96704D01*
X421729Y96660D01*
X421764Y96575D01*
X422275Y95741D01*
X422309Y95703D01*
X422363Y95629D01*
X423047Y94929D01*
X423088Y94900D01*
X423157Y94840D01*
X423979Y94310D01*
X424026Y94290D01*
X424106Y94246D01*
X425026Y93913D01*
X425075Y93904D01*
X425164Y93879D01*
X426135Y93759D01*
X426145Y93759D01*
X426157Y93756D01*
X426460Y93729D01*
X426510Y93734D01*
G37*
G36*
X223310Y93734D02*
X223310Y93734D01*
X223409Y93734D01*
X224366Y93876D01*
X224414Y93892D01*
X224504Y93912D01*
X225406Y94264D01*
X225449Y94290D01*
X225531Y94330D01*
X226332Y94873D01*
X226368Y94909D01*
X226440Y94966D01*
X227100Y95674D01*
X227127Y95716D01*
X227184Y95788D01*
X227670Y96625D01*
X227687Y96673D01*
X227727Y96756D01*
X228014Y97680D01*
X228020Y97730D01*
X228041Y97820D01*
X228108Y98704D01*
X228109Y98707D01*
X228109Y98715D01*
X228112Y98752D01*
X228116Y98781D01*
X228116Y98833D01*
X228111Y98860D01*
X228008Y99827D01*
X227994Y99875D01*
X227977Y99966D01*
X227658Y100896D01*
X227633Y100940D01*
X227597Y101025D01*
X227078Y101861D01*
X227045Y101898D01*
X226990Y101973D01*
X226299Y102672D01*
X226257Y102701D01*
X226188Y102762D01*
X225358Y103290D01*
X225311Y103309D01*
X225230Y103352D01*
X224303Y103683D01*
X224253Y103691D01*
X224165Y103715D01*
X223212Y103828D01*
X223109Y103848D01*
X223104Y103848D01*
X223101Y103850D01*
X222913Y103856D01*
X221955Y103745D01*
X221907Y103731D01*
X221817Y103713D01*
X220908Y103392D01*
X220864Y103367D01*
X220780Y103330D01*
X219965Y102815D01*
X219928Y102781D01*
X219855Y102726D01*
X219175Y102042D01*
X219146Y102001D01*
X219087Y101931D01*
X218576Y101113D01*
X218558Y101066D01*
X218515Y100985D01*
X218200Y100074D01*
X218192Y100024D01*
X218168Y99935D01*
X218064Y98977D01*
X218066Y98947D01*
X218060Y98908D01*
X218060Y98807D01*
X218065Y98780D01*
X218063Y98743D01*
X218162Y97770D01*
X218175Y97721D01*
X218192Y97631D01*
X218504Y96704D01*
X218529Y96660D01*
X218564Y96575D01*
X219075Y95741D01*
X219109Y95703D01*
X219163Y95629D01*
X219847Y94929D01*
X219888Y94900D01*
X219957Y94840D01*
X220779Y94310D01*
X220826Y94290D01*
X220906Y94246D01*
X221826Y93913D01*
X221875Y93904D01*
X221964Y93879D01*
X222935Y93759D01*
X222945Y93759D01*
X222957Y93756D01*
X223260Y93729D01*
X223310Y93734D01*
G37*
G36*
X324910Y93734D02*
X324910Y93734D01*
X325009Y93734D01*
X325966Y93876D01*
X326014Y93892D01*
X326104Y93912D01*
X327006Y94264D01*
X327049Y94290D01*
X327131Y94330D01*
X327932Y94873D01*
X327968Y94909D01*
X328040Y94966D01*
X328700Y95674D01*
X328727Y95716D01*
X328784Y95788D01*
X329270Y96625D01*
X329287Y96673D01*
X329327Y96756D01*
X329614Y97680D01*
X329620Y97730D01*
X329641Y97820D01*
X329708Y98704D01*
X329709Y98707D01*
X329709Y98715D01*
X329712Y98752D01*
X329716Y98781D01*
X329716Y98833D01*
X329711Y98860D01*
X329608Y99827D01*
X329594Y99875D01*
X329577Y99966D01*
X329258Y100896D01*
X329233Y100940D01*
X329197Y101025D01*
X328678Y101861D01*
X328645Y101898D01*
X328590Y101973D01*
X327899Y102672D01*
X327857Y102701D01*
X327788Y102762D01*
X326958Y103290D01*
X326911Y103309D01*
X326830Y103352D01*
X325903Y103683D01*
X325853Y103691D01*
X325765Y103715D01*
X324812Y103828D01*
X324709Y103848D01*
X324704Y103848D01*
X324701Y103850D01*
X324513Y103856D01*
X323555Y103745D01*
X323507Y103731D01*
X323417Y103713D01*
X322508Y103392D01*
X322464Y103367D01*
X322380Y103330D01*
X321565Y102815D01*
X321528Y102781D01*
X321455Y102726D01*
X320775Y102042D01*
X320746Y102001D01*
X320687Y101931D01*
X320176Y101113D01*
X320158Y101066D01*
X320115Y100985D01*
X319800Y100074D01*
X319792Y100024D01*
X319768Y99935D01*
X319664Y98977D01*
X319666Y98947D01*
X319660Y98908D01*
X319660Y98807D01*
X319665Y98780D01*
X319663Y98743D01*
X319762Y97770D01*
X319775Y97721D01*
X319792Y97631D01*
X320104Y96704D01*
X320129Y96660D01*
X320164Y96575D01*
X320675Y95741D01*
X320709Y95703D01*
X320763Y95629D01*
X321447Y94929D01*
X321488Y94900D01*
X321557Y94840D01*
X322379Y94310D01*
X322426Y94290D01*
X322506Y94246D01*
X323426Y93913D01*
X323475Y93904D01*
X323564Y93879D01*
X324535Y93759D01*
X324545Y93759D01*
X324557Y93756D01*
X324860Y93729D01*
X324910Y93734D01*
G37*
G36*
X528110Y93734D02*
X528110Y93734D01*
X528209Y93734D01*
X529166Y93876D01*
X529214Y93892D01*
X529304Y93912D01*
X530206Y94264D01*
X530249Y94290D01*
X530331Y94330D01*
X531132Y94873D01*
X531168Y94909D01*
X531240Y94966D01*
X531900Y95674D01*
X531927Y95716D01*
X531984Y95788D01*
X532470Y96625D01*
X532487Y96673D01*
X532527Y96756D01*
X532814Y97680D01*
X532820Y97730D01*
X532841Y97820D01*
X532908Y98704D01*
X532909Y98707D01*
X532909Y98715D01*
X532912Y98752D01*
X532916Y98781D01*
X532916Y98833D01*
X532911Y98860D01*
X532808Y99827D01*
X532794Y99875D01*
X532777Y99966D01*
X532458Y100896D01*
X532433Y100940D01*
X532397Y101025D01*
X531878Y101861D01*
X531845Y101898D01*
X531790Y101973D01*
X531099Y102672D01*
X531057Y102701D01*
X530988Y102762D01*
X530158Y103290D01*
X530111Y103309D01*
X530030Y103352D01*
X529103Y103683D01*
X529053Y103691D01*
X528965Y103715D01*
X528012Y103828D01*
X527909Y103848D01*
X527904Y103848D01*
X527901Y103850D01*
X527713Y103856D01*
X526755Y103745D01*
X526707Y103731D01*
X526617Y103713D01*
X525708Y103392D01*
X525664Y103367D01*
X525580Y103330D01*
X524765Y102815D01*
X524728Y102781D01*
X524655Y102726D01*
X523975Y102042D01*
X523946Y102001D01*
X523887Y101931D01*
X523376Y101113D01*
X523358Y101066D01*
X523315Y100985D01*
X523000Y100074D01*
X522992Y100024D01*
X522968Y99935D01*
X522864Y98977D01*
X522866Y98947D01*
X522860Y98908D01*
X522860Y98807D01*
X522865Y98780D01*
X522863Y98743D01*
X522962Y97770D01*
X522975Y97721D01*
X522992Y97631D01*
X523304Y96704D01*
X523329Y96660D01*
X523364Y96575D01*
X523875Y95741D01*
X523909Y95703D01*
X523963Y95629D01*
X524647Y94929D01*
X524688Y94900D01*
X524757Y94840D01*
X525579Y94310D01*
X525626Y94290D01*
X525706Y94246D01*
X526626Y93913D01*
X526675Y93904D01*
X526764Y93879D01*
X527735Y93759D01*
X527745Y93759D01*
X527757Y93756D01*
X528060Y93729D01*
X528110Y93734D01*
G37*
G36*
X528110Y48496D02*
X528110Y48496D01*
X528209Y48496D01*
X529166Y48638D01*
X529214Y48654D01*
X529304Y48674D01*
X530206Y49026D01*
X530249Y49052D01*
X530331Y49092D01*
X531132Y49635D01*
X531168Y49671D01*
X531240Y49728D01*
X531900Y50436D01*
X531927Y50478D01*
X531984Y50550D01*
X532470Y51387D01*
X532487Y51435D01*
X532527Y51518D01*
X532814Y52442D01*
X532820Y52492D01*
X532841Y52582D01*
X532908Y53466D01*
X532909Y53469D01*
X532909Y53477D01*
X532912Y53514D01*
X532916Y53543D01*
X532916Y53595D01*
X532911Y53622D01*
X532808Y54589D01*
X532794Y54637D01*
X532777Y54728D01*
X532458Y55658D01*
X532433Y55702D01*
X532397Y55787D01*
X531878Y56623D01*
X531845Y56660D01*
X531790Y56735D01*
X531099Y57434D01*
X531057Y57463D01*
X530988Y57524D01*
X530158Y58052D01*
X530111Y58071D01*
X530030Y58114D01*
X529103Y58445D01*
X529053Y58453D01*
X528965Y58477D01*
X528012Y58590D01*
X527909Y58610D01*
X527904Y58610D01*
X527901Y58612D01*
X527713Y58618D01*
X526755Y58507D01*
X526707Y58493D01*
X526617Y58475D01*
X525708Y58154D01*
X525664Y58129D01*
X525580Y58092D01*
X524765Y57577D01*
X524728Y57543D01*
X524655Y57488D01*
X523975Y56804D01*
X523946Y56763D01*
X523887Y56693D01*
X523376Y55875D01*
X523358Y55828D01*
X523315Y55747D01*
X523000Y54836D01*
X522992Y54786D01*
X522968Y54697D01*
X522864Y53739D01*
X522866Y53709D01*
X522860Y53670D01*
X522860Y53569D01*
X522865Y53542D01*
X522863Y53505D01*
X522962Y52532D01*
X522975Y52483D01*
X522992Y52393D01*
X523304Y51466D01*
X523329Y51422D01*
X523364Y51337D01*
X523875Y50503D01*
X523909Y50465D01*
X523963Y50391D01*
X524647Y49691D01*
X524688Y49662D01*
X524757Y49602D01*
X525579Y49072D01*
X525626Y49052D01*
X525706Y49008D01*
X526626Y48675D01*
X526675Y48666D01*
X526764Y48641D01*
X527735Y48521D01*
X527745Y48521D01*
X527757Y48518D01*
X528060Y48491D01*
X528110Y48496D01*
G37*
G36*
X426510Y48496D02*
X426510Y48496D01*
X426609Y48496D01*
X427566Y48638D01*
X427614Y48654D01*
X427704Y48674D01*
X428606Y49026D01*
X428649Y49052D01*
X428731Y49092D01*
X429532Y49635D01*
X429568Y49671D01*
X429640Y49728D01*
X430300Y50436D01*
X430327Y50478D01*
X430384Y50550D01*
X430870Y51387D01*
X430887Y51435D01*
X430927Y51518D01*
X431214Y52442D01*
X431220Y52492D01*
X431241Y52582D01*
X431308Y53466D01*
X431309Y53469D01*
X431309Y53477D01*
X431312Y53514D01*
X431316Y53543D01*
X431316Y53595D01*
X431311Y53622D01*
X431208Y54589D01*
X431194Y54637D01*
X431177Y54728D01*
X430858Y55658D01*
X430833Y55702D01*
X430797Y55787D01*
X430278Y56623D01*
X430245Y56660D01*
X430190Y56735D01*
X429499Y57434D01*
X429457Y57463D01*
X429388Y57524D01*
X428558Y58052D01*
X428511Y58071D01*
X428430Y58114D01*
X427503Y58445D01*
X427453Y58453D01*
X427365Y58477D01*
X426412Y58590D01*
X426309Y58610D01*
X426304Y58610D01*
X426301Y58612D01*
X426113Y58618D01*
X425155Y58507D01*
X425107Y58493D01*
X425017Y58475D01*
X424108Y58154D01*
X424064Y58129D01*
X423980Y58092D01*
X423165Y57577D01*
X423128Y57543D01*
X423055Y57488D01*
X422375Y56804D01*
X422346Y56763D01*
X422287Y56693D01*
X421776Y55875D01*
X421758Y55828D01*
X421715Y55747D01*
X421400Y54836D01*
X421392Y54786D01*
X421368Y54697D01*
X421264Y53739D01*
X421266Y53709D01*
X421260Y53670D01*
X421260Y53569D01*
X421265Y53542D01*
X421263Y53505D01*
X421362Y52532D01*
X421375Y52483D01*
X421392Y52393D01*
X421704Y51466D01*
X421729Y51422D01*
X421764Y51337D01*
X422275Y50503D01*
X422309Y50465D01*
X422363Y50391D01*
X423047Y49691D01*
X423088Y49662D01*
X423157Y49602D01*
X423979Y49072D01*
X424026Y49052D01*
X424106Y49008D01*
X425026Y48675D01*
X425075Y48666D01*
X425164Y48641D01*
X426135Y48521D01*
X426145Y48521D01*
X426157Y48518D01*
X426460Y48491D01*
X426510Y48496D01*
G37*
G36*
X324910Y48496D02*
X324910Y48496D01*
X325009Y48496D01*
X325966Y48638D01*
X326014Y48654D01*
X326104Y48674D01*
X327006Y49026D01*
X327049Y49052D01*
X327131Y49092D01*
X327932Y49635D01*
X327968Y49671D01*
X328040Y49728D01*
X328700Y50436D01*
X328727Y50478D01*
X328784Y50550D01*
X329270Y51387D01*
X329287Y51435D01*
X329327Y51518D01*
X329614Y52442D01*
X329620Y52492D01*
X329641Y52582D01*
X329708Y53466D01*
X329709Y53469D01*
X329709Y53477D01*
X329712Y53514D01*
X329716Y53543D01*
X329716Y53595D01*
X329711Y53622D01*
X329608Y54589D01*
X329594Y54637D01*
X329577Y54728D01*
X329258Y55658D01*
X329233Y55702D01*
X329197Y55787D01*
X328678Y56623D01*
X328645Y56660D01*
X328590Y56735D01*
X327899Y57434D01*
X327857Y57463D01*
X327788Y57524D01*
X326958Y58052D01*
X326911Y58071D01*
X326830Y58114D01*
X325903Y58445D01*
X325853Y58453D01*
X325765Y58477D01*
X324812Y58590D01*
X324709Y58610D01*
X324704Y58610D01*
X324701Y58612D01*
X324513Y58618D01*
X323555Y58507D01*
X323507Y58493D01*
X323417Y58475D01*
X322508Y58154D01*
X322464Y58129D01*
X322380Y58092D01*
X321565Y57577D01*
X321528Y57543D01*
X321455Y57488D01*
X320775Y56804D01*
X320746Y56763D01*
X320687Y56693D01*
X320176Y55875D01*
X320158Y55828D01*
X320115Y55747D01*
X319800Y54836D01*
X319792Y54786D01*
X319768Y54697D01*
X319664Y53739D01*
X319666Y53709D01*
X319660Y53670D01*
X319660Y53569D01*
X319665Y53542D01*
X319663Y53505D01*
X319762Y52532D01*
X319775Y52483D01*
X319792Y52393D01*
X320104Y51466D01*
X320129Y51422D01*
X320164Y51337D01*
X320675Y50503D01*
X320709Y50465D01*
X320763Y50391D01*
X321447Y49691D01*
X321488Y49662D01*
X321557Y49602D01*
X322379Y49072D01*
X322426Y49052D01*
X322506Y49008D01*
X323426Y48675D01*
X323475Y48666D01*
X323564Y48641D01*
X324535Y48521D01*
X324545Y48521D01*
X324557Y48518D01*
X324860Y48491D01*
X324910Y48496D01*
G37*
G36*
X223310Y48496D02*
X223310Y48496D01*
X223409Y48496D01*
X224366Y48638D01*
X224414Y48654D01*
X224504Y48674D01*
X225406Y49026D01*
X225449Y49052D01*
X225531Y49092D01*
X226332Y49635D01*
X226368Y49671D01*
X226440Y49728D01*
X227100Y50436D01*
X227127Y50478D01*
X227184Y50550D01*
X227670Y51387D01*
X227687Y51435D01*
X227727Y51518D01*
X228014Y52442D01*
X228020Y52492D01*
X228041Y52582D01*
X228108Y53466D01*
X228109Y53469D01*
X228109Y53477D01*
X228112Y53514D01*
X228116Y53543D01*
X228116Y53595D01*
X228111Y53622D01*
X228008Y54589D01*
X227994Y54637D01*
X227977Y54728D01*
X227658Y55658D01*
X227633Y55702D01*
X227597Y55787D01*
X227078Y56623D01*
X227045Y56660D01*
X226990Y56735D01*
X226299Y57434D01*
X226257Y57463D01*
X226188Y57524D01*
X225358Y58052D01*
X225311Y58071D01*
X225230Y58114D01*
X224303Y58445D01*
X224253Y58453D01*
X224165Y58477D01*
X223212Y58590D01*
X223109Y58610D01*
X223104Y58610D01*
X223101Y58612D01*
X222913Y58618D01*
X221955Y58507D01*
X221907Y58493D01*
X221817Y58475D01*
X220908Y58154D01*
X220864Y58129D01*
X220780Y58092D01*
X219965Y57577D01*
X219928Y57543D01*
X219855Y57488D01*
X219175Y56804D01*
X219146Y56763D01*
X219087Y56693D01*
X218576Y55875D01*
X218558Y55828D01*
X218515Y55747D01*
X218200Y54836D01*
X218192Y54786D01*
X218168Y54697D01*
X218064Y53739D01*
X218066Y53709D01*
X218060Y53670D01*
X218060Y53569D01*
X218065Y53542D01*
X218063Y53505D01*
X218162Y52532D01*
X218175Y52483D01*
X218192Y52393D01*
X218504Y51466D01*
X218529Y51422D01*
X218564Y51337D01*
X219075Y50503D01*
X219109Y50465D01*
X219163Y50391D01*
X219847Y49691D01*
X219888Y49662D01*
X219957Y49602D01*
X220779Y49072D01*
X220826Y49052D01*
X220906Y49008D01*
X221826Y48675D01*
X221875Y48666D01*
X221964Y48641D01*
X222935Y48521D01*
X222945Y48521D01*
X222957Y48518D01*
X223260Y48491D01*
X223310Y48496D01*
G37*
G36*
X361486Y48471D02*
X361486Y48471D01*
X361585Y48471D01*
X362542Y48613D01*
X362590Y48629D01*
X362680Y48649D01*
X363582Y49001D01*
X363625Y49027D01*
X363707Y49067D01*
X364508Y49610D01*
X364544Y49646D01*
X364616Y49703D01*
X365276Y50411D01*
X365303Y50453D01*
X365360Y50525D01*
X365846Y51362D01*
X365863Y51410D01*
X365903Y51493D01*
X366190Y52417D01*
X366196Y52467D01*
X366217Y52557D01*
X366284Y53441D01*
X366285Y53444D01*
X366285Y53452D01*
X366288Y53489D01*
X366292Y53518D01*
X366292Y53570D01*
X366287Y53597D01*
X366184Y54564D01*
X366170Y54612D01*
X366153Y54703D01*
X365834Y55633D01*
X365809Y55677D01*
X365773Y55762D01*
X365254Y56598D01*
X365221Y56635D01*
X365166Y56710D01*
X364475Y57409D01*
X364433Y57438D01*
X364364Y57499D01*
X363534Y58027D01*
X363487Y58046D01*
X363406Y58089D01*
X362479Y58420D01*
X362429Y58428D01*
X362341Y58452D01*
X361388Y58565D01*
X361285Y58585D01*
X361280Y58585D01*
X361277Y58587D01*
X361089Y58593D01*
X360131Y58482D01*
X360083Y58468D01*
X359993Y58450D01*
X359084Y58129D01*
X359040Y58104D01*
X358956Y58067D01*
X358141Y57552D01*
X358104Y57518D01*
X358031Y57463D01*
X357351Y56779D01*
X357322Y56738D01*
X357263Y56668D01*
X356752Y55850D01*
X356734Y55803D01*
X356691Y55722D01*
X356376Y54811D01*
X356368Y54761D01*
X356344Y54672D01*
X356240Y53714D01*
X356242Y53684D01*
X356236Y53645D01*
X356236Y53544D01*
X356241Y53517D01*
X356239Y53480D01*
X356338Y52507D01*
X356351Y52458D01*
X356368Y52368D01*
X356680Y51441D01*
X356705Y51397D01*
X356740Y51312D01*
X357251Y50478D01*
X357285Y50440D01*
X357339Y50366D01*
X358023Y49666D01*
X358064Y49637D01*
X358133Y49577D01*
X358955Y49047D01*
X359002Y49027D01*
X359082Y48983D01*
X360002Y48650D01*
X360051Y48641D01*
X360140Y48616D01*
X361111Y48496D01*
X361121Y48496D01*
X361133Y48493D01*
X361436Y48466D01*
X361486Y48471D01*
G37*
G36*
X158286Y48471D02*
X158286Y48471D01*
X158385Y48471D01*
X159342Y48613D01*
X159390Y48629D01*
X159480Y48649D01*
X160382Y49001D01*
X160425Y49027D01*
X160507Y49067D01*
X161308Y49610D01*
X161344Y49646D01*
X161416Y49703D01*
X162076Y50411D01*
X162103Y50453D01*
X162160Y50525D01*
X162646Y51362D01*
X162663Y51410D01*
X162703Y51493D01*
X162990Y52417D01*
X162996Y52467D01*
X163017Y52557D01*
X163084Y53441D01*
X163085Y53444D01*
X163085Y53452D01*
X163088Y53489D01*
X163092Y53518D01*
X163092Y53570D01*
X163087Y53597D01*
X162984Y54564D01*
X162970Y54612D01*
X162953Y54703D01*
X162634Y55633D01*
X162609Y55677D01*
X162573Y55762D01*
X162054Y56598D01*
X162021Y56635D01*
X161966Y56710D01*
X161275Y57409D01*
X161233Y57438D01*
X161164Y57499D01*
X160334Y58027D01*
X160287Y58046D01*
X160206Y58089D01*
X159279Y58420D01*
X159229Y58428D01*
X159141Y58452D01*
X158188Y58565D01*
X158085Y58585D01*
X158080Y58585D01*
X158077Y58587D01*
X157889Y58593D01*
X156931Y58482D01*
X156883Y58468D01*
X156793Y58450D01*
X155884Y58129D01*
X155840Y58104D01*
X155756Y58067D01*
X154941Y57552D01*
X154904Y57518D01*
X154831Y57463D01*
X154151Y56779D01*
X154122Y56738D01*
X154063Y56668D01*
X153552Y55850D01*
X153534Y55803D01*
X153491Y55722D01*
X153176Y54811D01*
X153168Y54761D01*
X153144Y54672D01*
X153040Y53714D01*
X153042Y53684D01*
X153036Y53645D01*
X153036Y53544D01*
X153041Y53517D01*
X153039Y53480D01*
X153138Y52507D01*
X153151Y52458D01*
X153168Y52368D01*
X153480Y51441D01*
X153505Y51397D01*
X153540Y51312D01*
X154051Y50478D01*
X154085Y50440D01*
X154139Y50366D01*
X154823Y49666D01*
X154864Y49637D01*
X154933Y49577D01*
X155755Y49047D01*
X155802Y49027D01*
X155882Y48983D01*
X156802Y48650D01*
X156851Y48641D01*
X156940Y48616D01*
X157911Y48496D01*
X157921Y48496D01*
X157933Y48493D01*
X158236Y48466D01*
X158286Y48471D01*
G37*
G36*
X259886Y48471D02*
X259886Y48471D01*
X259985Y48471D01*
X260942Y48613D01*
X260990Y48629D01*
X261080Y48649D01*
X261982Y49001D01*
X262025Y49027D01*
X262107Y49067D01*
X262908Y49610D01*
X262944Y49646D01*
X263016Y49703D01*
X263676Y50411D01*
X263703Y50453D01*
X263760Y50525D01*
X264246Y51362D01*
X264263Y51410D01*
X264303Y51493D01*
X264590Y52417D01*
X264596Y52467D01*
X264617Y52557D01*
X264684Y53441D01*
X264685Y53444D01*
X264685Y53452D01*
X264688Y53489D01*
X264692Y53518D01*
X264692Y53570D01*
X264687Y53597D01*
X264584Y54564D01*
X264570Y54612D01*
X264553Y54703D01*
X264234Y55633D01*
X264209Y55677D01*
X264173Y55762D01*
X263654Y56598D01*
X263621Y56635D01*
X263566Y56710D01*
X262875Y57409D01*
X262833Y57438D01*
X262764Y57499D01*
X261934Y58027D01*
X261887Y58046D01*
X261806Y58089D01*
X260879Y58420D01*
X260829Y58428D01*
X260741Y58452D01*
X259788Y58565D01*
X259685Y58585D01*
X259680Y58585D01*
X259677Y58587D01*
X259489Y58593D01*
X258531Y58482D01*
X258483Y58468D01*
X258393Y58450D01*
X257484Y58129D01*
X257440Y58104D01*
X257356Y58067D01*
X256541Y57552D01*
X256504Y57518D01*
X256431Y57463D01*
X255751Y56779D01*
X255722Y56738D01*
X255663Y56668D01*
X255152Y55850D01*
X255134Y55803D01*
X255091Y55722D01*
X254776Y54811D01*
X254768Y54761D01*
X254744Y54672D01*
X254640Y53714D01*
X254642Y53684D01*
X254636Y53645D01*
X254636Y53544D01*
X254641Y53517D01*
X254639Y53480D01*
X254738Y52507D01*
X254751Y52458D01*
X254768Y52368D01*
X255080Y51441D01*
X255105Y51397D01*
X255140Y51312D01*
X255651Y50478D01*
X255685Y50440D01*
X255739Y50366D01*
X256423Y49666D01*
X256464Y49637D01*
X256533Y49577D01*
X257355Y49047D01*
X257402Y49027D01*
X257482Y48983D01*
X258402Y48650D01*
X258451Y48641D01*
X258540Y48616D01*
X259511Y48496D01*
X259521Y48496D01*
X259533Y48493D01*
X259836Y48466D01*
X259886Y48471D01*
G37*
G36*
X463086Y48471D02*
X463086Y48471D01*
X463185Y48471D01*
X464142Y48613D01*
X464190Y48629D01*
X464280Y48649D01*
X465182Y49001D01*
X465225Y49027D01*
X465307Y49067D01*
X466108Y49610D01*
X466144Y49646D01*
X466216Y49703D01*
X466876Y50411D01*
X466903Y50453D01*
X466960Y50525D01*
X467446Y51362D01*
X467463Y51410D01*
X467503Y51493D01*
X467790Y52417D01*
X467796Y52467D01*
X467817Y52557D01*
X467884Y53441D01*
X467885Y53444D01*
X467885Y53452D01*
X467888Y53489D01*
X467892Y53518D01*
X467892Y53570D01*
X467887Y53597D01*
X467784Y54564D01*
X467770Y54612D01*
X467753Y54703D01*
X467434Y55633D01*
X467409Y55677D01*
X467373Y55762D01*
X466854Y56598D01*
X466821Y56635D01*
X466766Y56710D01*
X466075Y57409D01*
X466033Y57438D01*
X465964Y57499D01*
X465134Y58027D01*
X465087Y58046D01*
X465006Y58089D01*
X464079Y58420D01*
X464029Y58428D01*
X463941Y58452D01*
X462988Y58565D01*
X462885Y58585D01*
X462880Y58585D01*
X462877Y58587D01*
X462689Y58593D01*
X461731Y58482D01*
X461683Y58468D01*
X461593Y58450D01*
X460684Y58129D01*
X460640Y58104D01*
X460556Y58067D01*
X459741Y57552D01*
X459704Y57518D01*
X459631Y57463D01*
X458951Y56779D01*
X458922Y56738D01*
X458863Y56668D01*
X458352Y55850D01*
X458334Y55803D01*
X458291Y55722D01*
X457976Y54811D01*
X457968Y54761D01*
X457944Y54672D01*
X457840Y53714D01*
X457842Y53684D01*
X457836Y53645D01*
X457836Y53544D01*
X457841Y53517D01*
X457839Y53480D01*
X457938Y52507D01*
X457951Y52458D01*
X457968Y52368D01*
X458280Y51441D01*
X458305Y51397D01*
X458340Y51312D01*
X458851Y50478D01*
X458885Y50440D01*
X458939Y50366D01*
X459623Y49666D01*
X459664Y49637D01*
X459733Y49577D01*
X460555Y49047D01*
X460602Y49027D01*
X460682Y48983D01*
X461602Y48650D01*
X461651Y48641D01*
X461740Y48616D01*
X462711Y48496D01*
X462721Y48496D01*
X462733Y48493D01*
X463036Y48466D01*
X463086Y48471D01*
G37*
D10*
X76200Y622300D03*
X76200Y63500D03*
X1562100Y342900D03*
D11*
X939800Y363220D03*
D12*
X939800Y398780D03*
D13*
X40300Y304800D03*
X61300Y304800D03*
X40300Y482600D03*
X61300Y482600D03*
X40300Y444500D03*
X61300Y444500D03*
X40300Y406400D03*
X61300Y406400D03*
X40300Y355600D03*
X61300Y355600D03*
D14*
X838200Y190500D03*
D15*
X622300Y101600D03*
D16*
X673100Y101600D03*
D15*
X1244600Y127000D03*
D16*
X1295400Y127000D03*
X1346200Y127000D03*
X1397000Y127000D03*
X1447800Y127000D03*
X1498600Y127000D03*
D15*
X1498600Y546100D03*
D16*
X1447800Y546100D03*
X1397000Y546100D03*
X1346200Y546100D03*
X1295400Y546100D03*
X1244600Y546100D03*
D17*
X1069200Y53340D03*
D18*
X1003700Y76200D03*
D17*
X1069200Y99060D03*
D19*
X1181100Y491100D03*
X1181100Y474100D03*
D20*
X156600Y406400D03*
X173600Y406400D03*
X156600Y355600D03*
X173600Y355600D03*
X478400Y127000D03*
X461400Y127000D03*
X376800Y127000D03*
X359800Y127000D03*
X275200Y127000D03*
X258200Y127000D03*
X173600Y127000D03*
X156600Y127000D03*
D19*
X1155700Y84700D03*
X1155700Y67700D03*
X1181100Y541900D03*
X1181100Y524900D03*
X1028700Y478400D03*
X1028700Y461400D03*
X1028700Y529200D03*
X1028700Y512200D03*
X1079500Y478400D03*
X1079500Y461400D03*
X1079500Y529200D03*
X1079500Y512200D03*
D20*
X156600Y304800D03*
X173600Y304800D03*
X156600Y482600D03*
X173600Y482600D03*
X156600Y444500D03*
X173600Y444500D03*
D21*
X1244600Y495300D03*
X1346200Y495300D03*
X1295400Y495300D03*
X1447800Y495300D03*
X279400Y254000D03*
X304800Y254000D03*
X330200Y254000D03*
X355600Y254000D03*
X381000Y254000D03*
X406400Y254000D03*
X431800Y254000D03*
X1244600Y177800D03*
X457200Y254000D03*
X482600Y254000D03*
X508000Y254000D03*
X533400Y254000D03*
X558800Y254000D03*
X584200Y254000D03*
X1397000Y495300D03*
X635000Y254000D03*
X660400Y254000D03*
X685800Y254000D03*
X1346200Y177800D03*
X711200Y254000D03*
X1498600Y495300D03*
X279400Y558800D03*
X304800Y558800D03*
X330200Y558800D03*
X355600Y558800D03*
X381000Y558800D03*
X406400Y558800D03*
X431800Y558800D03*
X457200Y558800D03*
X1397000Y177800D03*
X482600Y558800D03*
X508000Y558800D03*
X533400Y558800D03*
X558800Y558800D03*
X584200Y558800D03*
X609600Y558800D03*
X635000Y558800D03*
X660400Y558800D03*
X685800Y558800D03*
X711200Y558800D03*
X1447800Y177800D03*
X736600Y558800D03*
X1498600Y177800D03*
X1295400Y177800D03*
X736600Y254000D03*
X609600Y254000D03*
D22*
X279500Y279400D03*
D23*
X304900Y279400D03*
X330300Y279400D03*
X355700Y279400D03*
X381100Y279400D03*
X406500Y279400D03*
X431900Y279400D03*
X457300Y279400D03*
X482700Y279400D03*
X508100Y279400D03*
X533500Y279400D03*
X558900Y279400D03*
X584300Y279400D03*
X609700Y279400D03*
X635100Y279400D03*
X660500Y279400D03*
X685900Y279400D03*
X711300Y279400D03*
X736700Y279400D03*
X736700Y533400D03*
X711300Y533400D03*
X685900Y533400D03*
X660500Y533400D03*
X635100Y533400D03*
X609700Y533400D03*
X584300Y533400D03*
X558900Y533400D03*
X533500Y533400D03*
X508100Y533400D03*
X482700Y533400D03*
X457300Y533400D03*
X431900Y533400D03*
X406500Y533400D03*
X381100Y533400D03*
X355700Y533400D03*
X330300Y533400D03*
X304900Y533400D03*
X279500Y533400D03*
D24*
X1008650Y218300D03*
X1008650Y241300D03*
X1008650Y264300D03*
D25*
X947150Y241300D03*
D14*
X812800Y190500D03*
D26*
X914400Y563880D02*
X914400Y579120D01*
X939800Y579120D02*
X939800Y563880D01*
X965200Y563880D02*
X965200Y579120D01*
X990600Y579120D02*
X990600Y563880D01*
X1016000Y563880D02*
X1016000Y579120D01*
X1041400Y579120D02*
X1041400Y563880D01*
X1066800Y563880D02*
X1066800Y579120D01*
X1092200Y579120D02*
X1092200Y563880D01*
X1117600Y563880D02*
X1117600Y579120D01*
X1143000Y579120D02*
X1143000Y563880D01*
D27*
X914400Y444500D03*
D28*
X1142873Y444246D03*
D13*
X40300Y520700D03*
X61300Y520700D03*
D20*
X156600Y520700D03*
X173600Y520700D03*
D29*
X1117600Y83700D03*
X1117600Y68700D03*
D30*
X977900Y168800D03*
X977900Y186800D03*
X977900Y313800D03*
X977900Y295800D03*
D31*
X885200Y112200D03*
X838200Y112200D03*
X791200Y112200D03*
X904250Y16900D03*
X772150Y16900D03*
D32*
X622300Y419100D03*
X622300Y406400D03*
X635000Y419100D03*
X647700Y419100D03*
X635000Y406400D03*
X647700Y406400D03*
X622300Y393700D03*
X635000Y393700D03*
X647700Y393700D03*
X749300Y419100D03*
X762000Y419100D03*
X774700Y419100D03*
X749300Y406400D03*
X749300Y406400D03*
X762000Y406400D03*
X762000Y406400D03*
X774700Y406400D03*
X749300Y393700D03*
X762000Y393700D03*
X762000Y393700D03*
X774700Y393700D03*
X774700Y393700D03*
X711200Y368300D03*
D33*
X203200Y355600D03*
X203200Y406400D03*
X203200Y444500D03*
X203200Y482600D03*
X203200Y520700D03*
M02*
