G04 EAGLE Gerber RS-274X export*
G75*
%MOMM*%
%FSLAX34Y34*%
%LPD*%
%INSoldermask Top*%
%IPPOS*%
%AMOC8*
5,1,8,0,0,1.08239X$1,22.5*%
G01*
%ADD10C,1.203200*%
%ADD11C,1.511200*%
%ADD12C,1.803400*%
%ADD13P,1.951982X8X292.500000*%
%ADD14P,2.584314X8X112.500000*%
%ADD15P,2.584314X8X22.500000*%
%ADD16P,2.584314X8X292.500000*%
%ADD17P,2.584314X8X202.500000*%
%ADD18C,1.727200*%
%ADD19R,2.303200X2.303200*%
%ADD20C,2.303200*%
%ADD21P,1.649562X8X292.500000*%
%ADD22P,1.649562X8X22.500000*%
%ADD23C,3.213100*%
%ADD24R,1.371600X1.803400*%
%ADD25R,2.743200X1.473200*%
%ADD26R,1.473200X2.743200*%
%ADD27R,1.733200X1.733200*%
%ADD28C,1.733200*%
%ADD29R,0.853200X1.553200*%

G36*
X1118747Y269087D02*
X1118747Y269087D01*
X1118742Y269094D01*
X1118749Y269100D01*
X1118749Y282051D01*
X1132200Y282051D01*
X1132247Y282087D01*
X1132246Y282088D01*
X1132247Y282089D01*
X1132243Y282095D01*
X1132249Y282100D01*
X1132249Y302100D01*
X1132213Y302147D01*
X1132206Y302142D01*
X1132200Y302149D01*
X1118749Y302149D01*
X1118749Y315100D01*
X1118713Y315147D01*
X1118706Y315142D01*
X1118700Y315149D01*
X1065700Y315149D01*
X1065653Y315113D01*
X1065658Y315106D01*
X1065651Y315100D01*
X1065651Y302149D01*
X1052200Y302149D01*
X1052153Y302113D01*
X1052154Y302112D01*
X1052153Y302111D01*
X1052157Y302105D01*
X1052151Y302100D01*
X1052151Y282100D01*
X1052187Y282053D01*
X1052194Y282058D01*
X1052200Y282051D01*
X1065651Y282051D01*
X1065651Y269100D01*
X1065687Y269053D01*
X1065694Y269058D01*
X1065700Y269051D01*
X1118700Y269051D01*
X1118747Y269087D01*
G37*
D10*
X25400Y977900D03*
X25400Y25400D03*
X1587500Y12700D03*
X1581150Y977900D03*
D11*
X965200Y63500D03*
X965200Y38100D03*
X711200Y63500D03*
X711200Y38100D03*
D12*
X1231900Y386080D03*
D13*
X1231900Y350520D03*
D14*
X1054100Y165100D03*
D15*
X165100Y520700D03*
X698500Y647700D03*
X165100Y571500D03*
D16*
X1397000Y266700D03*
X1397000Y330200D03*
D17*
X241300Y622300D03*
D14*
X673100Y165100D03*
D17*
X1295400Y495300D03*
X368300Y368300D03*
X368300Y393700D03*
X368300Y469900D03*
X368300Y419100D03*
X368300Y444500D03*
X368300Y495300D03*
X368300Y520700D03*
X368300Y546100D03*
X368300Y571500D03*
X368300Y596900D03*
X368300Y622300D03*
X368300Y723900D03*
X368300Y749300D03*
X368300Y342900D03*
X368300Y774700D03*
X368300Y698500D03*
D15*
X698500Y749300D03*
X698500Y723900D03*
X698500Y698500D03*
X698500Y673100D03*
D14*
X1308100Y165100D03*
D15*
X698500Y546100D03*
D14*
X1257300Y165100D03*
D15*
X698500Y520700D03*
D17*
X698500Y495300D03*
X698500Y469900D03*
D15*
X698500Y444500D03*
X698500Y419100D03*
X698500Y393700D03*
X698500Y368300D03*
X698500Y342900D03*
D17*
X368300Y800100D03*
D15*
X165100Y622300D03*
D14*
X1155700Y165100D03*
D15*
X698500Y774700D03*
X698500Y800100D03*
X698500Y622300D03*
X698500Y596900D03*
X698500Y571500D03*
X165100Y723900D03*
D14*
X1206500Y165100D03*
X1104900Y165100D03*
D15*
X165100Y469900D03*
X165100Y673100D03*
D18*
X863600Y58420D02*
X863600Y43180D01*
X838200Y43180D02*
X838200Y58420D01*
X812800Y58420D02*
X812800Y43180D01*
D19*
X1473200Y114300D03*
D20*
X1524000Y114300D03*
D19*
X1054100Y114300D03*
D20*
X1104900Y114300D03*
X1155700Y114300D03*
X1206500Y114300D03*
X1257300Y114300D03*
X1308100Y114300D03*
D19*
X114300Y723900D03*
D20*
X114300Y673100D03*
X114300Y622300D03*
X114300Y571500D03*
X114300Y520700D03*
X114300Y469900D03*
D21*
X241300Y596900D03*
X241300Y495300D03*
X241300Y749300D03*
X241300Y647700D03*
D22*
X698500Y165100D03*
X800100Y165100D03*
X546100Y165100D03*
X647700Y165100D03*
D21*
X1295400Y469900D03*
X1295400Y368300D03*
X1295400Y622300D03*
X1295400Y520700D03*
D23*
X1513332Y434150D02*
X1513332Y404051D01*
X1473200Y404051D02*
X1473200Y434150D01*
X1433068Y434150D02*
X1433068Y404051D01*
D24*
X777240Y279400D03*
X762000Y279400D03*
X746760Y279400D03*
D25*
X965200Y431800D03*
X965200Y457200D03*
X965200Y482600D03*
D26*
X812800Y317500D03*
X787400Y317500D03*
X762000Y317500D03*
D27*
X406400Y800000D03*
D28*
X406400Y774600D03*
X406400Y749200D03*
X406400Y723800D03*
X406400Y698400D03*
X406400Y673000D03*
X406400Y647600D03*
X406400Y622200D03*
X406400Y596800D03*
X406400Y571400D03*
X406400Y546000D03*
X406400Y520600D03*
X406400Y495200D03*
X406400Y469800D03*
X406400Y444400D03*
X406400Y419000D03*
X406400Y393600D03*
X406400Y368200D03*
X406400Y342800D03*
X660400Y342800D03*
X660400Y368200D03*
X660400Y393600D03*
X660400Y419000D03*
X660400Y444400D03*
X660400Y469800D03*
X660400Y495200D03*
X660400Y520600D03*
X660400Y546000D03*
X660400Y571400D03*
X660400Y596800D03*
X660400Y622200D03*
X660400Y647600D03*
X660400Y673000D03*
X660400Y698400D03*
X660400Y723800D03*
X660400Y749200D03*
X660400Y774600D03*
X660400Y800000D03*
D29*
X1117200Y341850D03*
X1107200Y341850D03*
X1097200Y341850D03*
X1087200Y341850D03*
X1077200Y341850D03*
X1067200Y341850D03*
X1067200Y242350D03*
X1077200Y242350D03*
X1087200Y242350D03*
X1097200Y242350D03*
X1107200Y242350D03*
X1117200Y242350D03*
D17*
X368300Y673100D03*
X368300Y647700D03*
X984250Y292100D03*
X984250Y215900D03*
M02*
