G04 EAGLE Gerber RS-274X export*
G75*
%MOMM*%
%FSLAX34Y34*%
%LPD*%
%IN*%
%IPPOS*%
%AMOC8*
5,1,8,0,0,1.08239X$1,22.5*%
G01*
%ADD10C,0.254000*%


D10*
X0Y0D02*
X1606350Y0D01*
X1606350Y993650D01*
X0Y993650D01*
X0Y0D01*
X30400Y977619D02*
X30337Y977061D01*
X30212Y976514D01*
X30027Y975984D01*
X29783Y975478D01*
X29484Y975002D01*
X29134Y974563D01*
X28737Y974166D01*
X28298Y973816D01*
X27822Y973517D01*
X27316Y973273D01*
X26786Y973088D01*
X26239Y972963D01*
X25681Y972900D01*
X25119Y972900D01*
X24561Y972963D01*
X24014Y973088D01*
X23484Y973273D01*
X22978Y973517D01*
X22502Y973816D01*
X22063Y974166D01*
X21666Y974563D01*
X21316Y975002D01*
X21017Y975478D01*
X20773Y975984D01*
X20588Y976514D01*
X20463Y977061D01*
X20400Y977619D01*
X20400Y978181D01*
X20463Y978739D01*
X20588Y979286D01*
X20773Y979816D01*
X21017Y980322D01*
X21316Y980798D01*
X21666Y981237D01*
X22063Y981634D01*
X22502Y981984D01*
X22978Y982283D01*
X23484Y982527D01*
X24014Y982712D01*
X24561Y982837D01*
X25119Y982900D01*
X25681Y982900D01*
X26239Y982837D01*
X26786Y982712D01*
X27316Y982527D01*
X27822Y982283D01*
X28298Y981984D01*
X28737Y981634D01*
X29134Y981237D01*
X29484Y980798D01*
X29783Y980322D01*
X30027Y979816D01*
X30212Y979286D01*
X30337Y978739D01*
X30400Y978181D01*
X30400Y977619D01*
X30400Y25119D02*
X30337Y24561D01*
X30212Y24014D01*
X30027Y23484D01*
X29783Y22978D01*
X29484Y22502D01*
X29134Y22063D01*
X28737Y21666D01*
X28298Y21316D01*
X27822Y21017D01*
X27316Y20773D01*
X26786Y20588D01*
X26239Y20463D01*
X25681Y20400D01*
X25119Y20400D01*
X24561Y20463D01*
X24014Y20588D01*
X23484Y20773D01*
X22978Y21017D01*
X22502Y21316D01*
X22063Y21666D01*
X21666Y22063D01*
X21316Y22502D01*
X21017Y22978D01*
X20773Y23484D01*
X20588Y24014D01*
X20463Y24561D01*
X20400Y25119D01*
X20400Y25681D01*
X20463Y26239D01*
X20588Y26786D01*
X20773Y27316D01*
X21017Y27822D01*
X21316Y28298D01*
X21666Y28737D01*
X22063Y29134D01*
X22502Y29484D01*
X22978Y29783D01*
X23484Y30027D01*
X24014Y30212D01*
X24561Y30337D01*
X25119Y30400D01*
X25681Y30400D01*
X26239Y30337D01*
X26786Y30212D01*
X27316Y30027D01*
X27822Y29783D01*
X28298Y29484D01*
X28737Y29134D01*
X29134Y28737D01*
X29484Y28298D01*
X29783Y27822D01*
X30027Y27316D01*
X30212Y26786D01*
X30337Y26239D01*
X30400Y25681D01*
X30400Y25119D01*
X1592500Y12419D02*
X1592437Y11861D01*
X1592312Y11314D01*
X1592127Y10784D01*
X1591883Y10278D01*
X1591584Y9802D01*
X1591234Y9363D01*
X1590837Y8966D01*
X1590398Y8616D01*
X1589922Y8317D01*
X1589416Y8073D01*
X1588886Y7888D01*
X1588339Y7763D01*
X1587781Y7700D01*
X1587219Y7700D01*
X1586661Y7763D01*
X1586114Y7888D01*
X1585584Y8073D01*
X1585078Y8317D01*
X1584602Y8616D01*
X1584163Y8966D01*
X1583766Y9363D01*
X1583416Y9802D01*
X1583117Y10278D01*
X1582873Y10784D01*
X1582688Y11314D01*
X1582563Y11861D01*
X1582500Y12419D01*
X1582500Y12981D01*
X1582563Y13539D01*
X1582688Y14086D01*
X1582873Y14616D01*
X1583117Y15122D01*
X1583416Y15598D01*
X1583766Y16037D01*
X1584163Y16434D01*
X1584602Y16784D01*
X1585078Y17083D01*
X1585584Y17327D01*
X1586114Y17512D01*
X1586661Y17637D01*
X1587219Y17700D01*
X1587781Y17700D01*
X1588339Y17637D01*
X1588886Y17512D01*
X1589416Y17327D01*
X1589922Y17083D01*
X1590398Y16784D01*
X1590837Y16434D01*
X1591234Y16037D01*
X1591584Y15598D01*
X1591883Y15122D01*
X1592127Y14616D01*
X1592312Y14086D01*
X1592437Y13539D01*
X1592500Y12981D01*
X1592500Y12419D01*
X1586150Y977619D02*
X1586087Y977061D01*
X1585962Y976514D01*
X1585777Y975984D01*
X1585533Y975478D01*
X1585234Y975002D01*
X1584884Y974563D01*
X1584487Y974166D01*
X1584048Y973816D01*
X1583572Y973517D01*
X1583066Y973273D01*
X1582536Y973088D01*
X1581989Y972963D01*
X1581431Y972900D01*
X1580869Y972900D01*
X1580311Y972963D01*
X1579764Y973088D01*
X1579234Y973273D01*
X1578728Y973517D01*
X1578252Y973816D01*
X1577813Y974166D01*
X1577416Y974563D01*
X1577066Y975002D01*
X1576767Y975478D01*
X1576523Y975984D01*
X1576338Y976514D01*
X1576213Y977061D01*
X1576150Y977619D01*
X1576150Y978181D01*
X1576213Y978739D01*
X1576338Y979286D01*
X1576523Y979816D01*
X1576767Y980322D01*
X1577066Y980798D01*
X1577416Y981237D01*
X1577813Y981634D01*
X1578252Y981984D01*
X1578728Y982283D01*
X1579234Y982527D01*
X1579764Y982712D01*
X1580311Y982837D01*
X1580869Y982900D01*
X1581431Y982900D01*
X1581989Y982837D01*
X1582536Y982712D01*
X1583066Y982527D01*
X1583572Y982283D01*
X1584048Y981984D01*
X1584487Y981634D01*
X1584884Y981237D01*
X1585234Y980798D01*
X1585533Y980322D01*
X1585777Y979816D01*
X1585962Y979286D01*
X1586087Y978739D01*
X1586150Y978181D01*
X1586150Y977619D01*
M02*
